<?xml version="1.0" encoding="utf-8" standalone="no"?>
<!DOCTYPE svg PUBLIC "-//W3C//DTD SVG 1.1//EN"
  "http://www.w3.org/Graphics/SVG/1.1/DTD/svg11.dtd">
<!-- Created with matplotlib (http://matplotlib.org/) -->
<svg height="919pt" version="1.1" viewBox="0 0 1728 919" width="1728pt" xmlns="http://www.w3.org/2000/svg" xmlns:xlink="http://www.w3.org/1999/xlink">
 <defs>
  <style type="text/css">
*{stroke-linecap:butt;stroke-linejoin:round;}
  </style>
 </defs>
 <g id="figure_1">
  <g id="patch_1">
   <path d="
M0 919.8
L1728 919.8
L1728 0
L0 0
z
" style="fill:#ffffff;"/>
  </g>
  <g id="axes_1">
   <g id="patch_2">
    <path d="
M216 308.404
L1555.2 308.404
L1555.2 91.98
L216 91.98
z
" style="fill:#ffffff;"/>
   </g>
   <g id="line2d_1">
    <path clip-path="url(#p250b35b7e6)" d="
M216 238.667
L217.339 236.262
L218.678 238.667
L220.018 236.262
L221.357 238.667
L225.374 231.453
L226.714 233.858
L228.053 231.453
L229.392 233.858
L233.41 226.644
L237.427 233.858
L238.766 231.453
L241.445 236.262
L244.123 231.453
L249.48 241.072
L261.533 219.429
L262.872 221.834
L264.211 219.429
L265.55 221.834
L270.907 212.215
L272.246 214.62
L273.586 212.215
L277.603 219.429
L278.942 217.025
L281.621 221.834
L282.96 219.429
L284.299 221.834
L288.317 214.62
L292.334 221.834
L293.674 219.429
L296.352 224.239
L303.048 212.215
L304.387 214.62
L305.726 212.215
L309.744 219.429
L311.083 217.025
L315.101 224.239
L317.779 219.429
L321.797 226.644
L323.136 224.239
L324.475 226.644
L325.814 224.239
L327.154 226.644
L332.51 217.025
L333.85 219.429
L335.189 217.025
L336.528 219.429
L337.867 217.025
L340.546 221.834
L341.885 219.429
L343.224 221.834
L344.563 219.429
L349.92 229.048
L352.598 224.239
L353.938 226.644
L355.277 224.239
L359.294 231.453
L361.973 226.644
L363.312 229.048
L367.33 221.834
L370.008 226.644
L372.686 221.834
L375.365 226.644
L380.722 217.025
L383.4 221.834
L384.739 219.429
L390.096 229.048
L394.114 221.834
L395.453 224.239
L399.47 217.025
L402.149 221.834
L403.488 219.429
L407.506 226.644
L411.523 219.429
L414.202 224.239
L415.541 221.834
L416.88 224.239
L418.219 221.834
L419.558 224.239
L422.237 219.429
L423.576 221.834
L426.254 217.025
L427.594 219.429
L430.272 214.62
L431.611 217.025
L432.95 214.62
L435.629 219.429
L438.307 214.62
L440.986 219.429
L445.003 212.215
L446.342 214.62
L447.682 212.215
L449.021 214.62
L450.36 212.215
L454.378 219.429
L459.734 209.811
L461.074 212.215
L463.752 207.406
L467.77 214.62
L469.109 212.215
L470.448 214.62
L474.466 207.406
L475.805 209.811
L477.144 207.406
L479.822 212.215
L483.84 205.001
L485.179 207.406
L493.214 192.978
L498.571 202.596
L499.91 200.192
L501.25 202.596
L507.946 190.573
L509.285 192.978
L514.642 183.359
L518.659 190.573
L521.338 185.764
L522.677 188.168
L526.694 180.954
L532.051 190.573
L537.408 180.954
L538.747 183.359
L540.086 180.954
L541.426 183.359
L542.765 180.954
L544.104 183.359
L545.443 180.954
L549.461 188.168
L552.139 183.359
L553.478 185.764
L557.496 178.549
L558.835 180.954
L560.174 178.549
L565.531 188.168
L566.87 185.764
L568.21 188.168
L569.549 185.764
L572.227 190.573
L576.245 183.359
L577.584 185.764
L581.602 178.549
L585.619 185.764
L589.637 178.549
L590.976 180.954
L594.994 173.74
L604.368 190.573
L608.386 183.359
L611.064 188.168
L612.403 185.764
L613.742 188.168
L617.76 180.954
L621.778 188.168
L625.795 180.954
L627.134 183.359
L628.474 180.954
L629.813 183.359
L631.152 180.954
L632.491 183.359
L635.17 178.549
L636.509 180.954
L637.848 178.549
L640.526 183.359
L647.222 171.335
L648.562 173.74
L651.24 168.931
L653.918 173.74
L655.258 171.335
L656.597 173.74
L659.275 168.931
L660.614 171.335
L665.971 161.716
L667.31 164.121
L668.65 161.716
L669.989 164.121
L679.363 147.288
L683.381 154.502
L684.72 152.098
L687.398 156.907
L690.077 152.098
L692.755 156.907
L695.434 152.098
L696.773 154.502
L698.112 152.098
L703.469 161.716
L706.147 156.907
L707.486 159.312
L708.826 156.907
L710.165 159.312
L712.843 154.502
L716.861 161.716
L718.2 159.312
L720.878 164.121
L722.218 161.716
L726.235 168.931
L732.931 156.907
L734.27 159.312
L740.966 147.288
L744.984 154.502
L750.341 144.884
L754.358 152.098
L758.376 144.884
L761.054 149.693
L762.394 147.288
L763.733 149.693
L766.411 144.884
L770.429 152.098
L774.446 144.884
L775.786 147.288
L779.803 140.074
L781.142 142.479
L782.482 140.074
L785.16 144.884
L787.838 140.074
L789.178 142.479
L790.517 140.074
L791.856 142.479
L795.874 135.265
L799.891 142.479
L801.23 140.074
L802.57 142.479
L805.248 137.669
L806.587 140.074
L813.283 128.051
L814.622 130.455
L815.962 128.051
L819.979 135.265
L821.318 132.86
L825.336 140.074
L828.014 135.265
L829.354 137.669
L832.032 132.86
L833.371 135.265
L834.71 132.86
L836.05 135.265
L837.389 132.86
L838.728 135.265
L840.067 132.86
L844.085 140.074
L845.424 137.669
L849.442 144.884
L850.781 142.479
L852.12 144.884
L853.459 142.479
L854.798 144.884
L868.19 120.836
L872.208 128.051
L873.547 125.646
L877.565 132.86
L880.243 128.051
L881.582 130.455
L882.922 128.051
L886.939 135.265
L888.278 132.86
L889.618 135.265
L890.957 132.86
L892.296 135.265
L893.635 132.86
L898.992 142.479
L901.67 137.669
L903.01 140.074
L907.027 132.86
L912.384 142.479
L915.062 137.669
L917.741 142.479
L919.08 140.074
L924.437 149.693
L931.133 137.669
L932.472 140.074
L933.811 137.669
L937.829 144.884
L939.168 142.479
L943.186 149.693
L944.525 147.288
L945.864 149.693
L948.542 144.884
L951.221 149.693
L953.899 144.884
L955.238 147.288
L956.578 144.884
L957.917 147.288
L959.256 144.884
L967.291 159.312
L969.97 154.502
L972.648 159.312
L979.344 147.288
L983.362 154.502
L986.04 149.693
L990.058 156.907
L994.075 149.693
L995.414 152.098
L996.754 149.693
L998.093 152.098
L1000.77 147.288
L1004.79 154.502
L1006.13 152.098
L1007.47 154.502
L1008.81 152.098
L1014.16 161.716
L1018.18 154.502
L1020.86 159.312
L1022.2 156.907
L1023.54 159.312
L1024.88 156.907
L1028.89 164.121
L1031.57 159.312
L1034.25 164.121
L1038.27 156.907
L1039.61 159.312
L1043.63 152.098
L1046.3 156.907
L1047.64 154.502
L1053 164.121
L1057.02 156.907
L1062.37 166.526
L1065.05 161.716
L1066.39 164.121
L1073.09 152.098
L1074.43 154.502
L1075.77 152.098
L1077.11 154.502
L1082.46 144.884
L1083.8 147.288
L1085.14 144.884
L1090.5 154.502
L1095.85 144.884
L1098.53 149.693
L1101.21 144.884
L1107.91 156.907
L1109.25 154.502
L1110.59 156.907
L1113.26 152.098
L1117.28 159.312
L1119.96 154.502
L1121.3 156.907
L1126.66 147.288
L1129.33 152.098
L1133.35 144.884
L1134.69 147.288
L1137.37 142.479
L1138.71 144.884
L1140.05 142.479
L1142.73 147.288
L1144.07 144.884
L1145.4 147.288
L1150.76 137.669
L1152.1 140.074
L1153.44 137.669
L1157.46 144.884
L1158.8 142.479
L1160.14 144.884
L1161.48 142.479
L1166.83 152.098
L1168.17 149.693
L1169.51 152.098
L1172.19 147.288
L1174.87 152.098
L1177.55 147.288
L1182.9 156.907
L1185.58 152.098
L1188.26 156.907
L1189.6 154.502
L1190.94 156.907
L1197.63 144.884
L1200.31 149.693
L1201.65 147.288
L1202.99 149.693
L1204.33 147.288
L1205.67 149.693
L1208.35 144.884
L1217.72 161.716
L1219.06 159.312
L1220.4 161.716
L1221.74 159.312
L1224.42 164.121
L1225.76 161.716
L1228.44 166.526
L1233.79 156.907
L1235.13 159.312
L1237.81 154.502
L1239.15 156.907
L1241.83 152.098
L1244.51 156.907
L1245.84 154.502
L1247.18 156.907
L1249.86 152.098
L1252.54 156.907
L1256.56 149.693
L1257.9 152.098
L1260.58 147.288
L1264.59 154.502
L1268.61 147.288
L1269.95 149.693
L1272.63 144.884
L1275.31 149.693
L1276.65 147.288
L1277.99 149.693
L1279.32 147.288
L1280.66 149.693
L1282 147.288
L1288.7 159.312
L1292.72 152.098
L1294.06 154.502
L1296.73 149.693
L1298.07 152.098
L1303.43 142.479
L1304.77 144.884
L1306.11 142.479
L1307.45 144.884
L1314.14 132.86
L1315.48 135.265
L1319.5 128.051
L1326.2 140.074
L1328.88 135.265
L1330.21 137.669
L1331.55 135.265
L1334.23 140.074
L1340.93 128.051
L1342.27 130.455
L1344.95 125.646
L1346.28 128.051
L1351.64 118.432
L1354.32 123.241
L1355.66 120.836
L1359.68 128.051
L1362.36 123.241
L1363.69 125.646
L1365.03 123.241
L1367.71 128.051
L1373.07 118.432
L1374.41 120.836
L1375.75 118.432
L1378.43 123.241
L1382.44 116.027
L1385.12 120.836
L1387.8 116.027
L1389.14 118.432
L1391.82 113.622
L1393.16 116.027
L1395.84 111.218
L1398.51 116.027
L1399.85 113.622
L1402.53 118.432
L1403.87 116.027
L1410.57 128.051
L1411.91 125.646
L1415.92 132.86
L1417.26 130.455
L1423.96 142.479
L1429.32 132.86
L1430.65 135.265
L1434.67 128.051
L1436.01 130.455
L1441.37 120.836
L1444.05 125.646
L1445.39 123.241
L1446.72 125.646
L1449.4 120.836
L1454.76 130.455
L1458.78 123.241
L1460.12 125.646
L1461.46 123.241
L1462.8 125.646
L1464.13 123.241
L1465.47 125.646
L1468.15 120.836
L1469.49 123.241
L1470.83 120.836
L1477.53 132.86
L1478.87 130.455
L1480.2 132.86
L1482.88 128.051
L1484.22 130.455
L1485.56 128.051
L1486.9 130.455
L1488.24 128.051
L1490.92 132.86
L1493.6 128.051
L1494.94 130.455
L1496.28 128.051
L1497.61 130.455
L1498.95 128.051
L1500.29 130.455
L1505.65 120.836
L1509.67 128.051
L1512.35 123.241
L1513.68 125.646
L1515.02 123.241
L1517.7 128.051
L1520.38 123.241
L1521.72 125.646
L1525.74 118.432
L1529.76 125.646
L1531.09 123.241
L1535.11 130.455
L1540.47 120.836
L1541.81 123.241
L1543.15 120.836
L1548.5 130.455
L1549.84 128.051
L1552.52 132.86
L1553.86 130.455
L1553.86 130.455" style="fill:none;stroke:#0000ff;stroke-linecap:square;stroke-width:2.0;"/>
   </g>
   <g id="line2d_2">
    <path clip-path="url(#p250b35b7e6)" d="
M216 233.858
L217.339 231.453
L220.018 236.262
L221.357 233.858
L222.696 236.262
L224.035 233.858
L225.374 236.262
L226.714 233.858
L228.053 236.262
L229.392 233.858
L233.41 241.072
L234.749 238.667
L237.427 243.476
L238.766 241.072
L246.802 255.5
L249.48 250.691
L250.819 253.095
L252.158 250.691
L258.854 262.714
L261.533 257.905
L264.211 262.714
L269.568 253.095
L274.925 262.714
L276.264 260.309
L277.603 262.714
L278.942 260.309
L280.282 262.714
L281.621 260.309
L284.299 265.119
L285.638 262.714
L286.978 265.119
L289.656 260.309
L290.995 262.714
L292.334 260.309
L295.013 265.119
L300.37 255.5
L304.387 262.714
L308.405 255.5
L311.083 260.309
L312.422 257.905
L317.779 267.524
L319.118 265.119
L323.136 272.333
L324.475 269.928
L328.493 277.142
L329.832 274.738
L331.171 277.142
L332.51 274.738
L336.528 281.952
L339.206 277.142
L340.546 279.547
L341.885 277.142
L344.563 281.952
L353.938 265.119
L356.616 269.928
L357.955 267.524
L359.294 269.928
L363.312 262.714
L370.008 274.738
L372.686 269.928
L374.026 272.333
L380.722 260.309
L388.757 274.738
L392.774 267.524
L394.114 269.928
L395.453 267.524
L396.792 269.928
L400.81 262.714
L403.488 267.524
L408.845 257.905
L410.184 260.309
L411.523 257.905
L415.541 265.119
L419.558 257.905
L423.576 265.119
L430.272 253.095
L431.611 255.5
L432.95 253.095
L434.29 255.5
L439.646 245.881
L446.342 257.905
L447.682 255.5
L449.021 257.905
L450.36 255.5
L453.038 260.309
L455.717 255.5
L457.056 257.905
L458.395 255.5
L461.074 260.309
L462.413 257.905
L463.752 260.309
L465.091 257.905
L469.109 265.119
L474.466 255.5
L479.822 265.119
L482.501 260.309
L483.84 262.714
L485.179 260.309
L486.518 262.714
L490.536 255.5
L491.875 257.905
L494.554 253.095
L502.589 267.524
L506.606 260.309
L510.624 267.524
L513.302 262.714
L514.642 265.119
L517.32 260.309
L518.659 262.714
L522.677 255.5
L524.016 257.905
L526.694 253.095
L529.373 257.905
L534.73 248.286
L540.086 257.905
L545.443 248.286
L550.8 257.905
L553.478 253.095
L554.818 255.5
L556.157 253.095
L557.496 255.5
L560.174 250.691
L561.514 253.095
L564.192 248.286
L565.531 250.691
L566.87 248.286
L570.888 255.5
L574.906 248.286
L576.245 250.691
L577.584 248.286
L578.923 250.691
L584.28 241.072
L586.958 245.881
L588.298 243.476
L589.637 245.881
L592.315 241.072
L593.654 243.476
L596.333 238.667
L597.672 241.072
L599.011 238.667
L601.69 243.476
L603.029 241.072
L612.403 257.905
L615.082 253.095
L616.421 255.5
L617.76 253.095
L621.778 260.309
L623.117 257.905
L625.795 262.714
L627.134 260.309
L628.474 262.714
L631.152 257.905
L632.491 260.309
L633.83 257.905
L635.17 260.309
L639.187 253.095
L640.526 255.5
L643.205 250.691
L644.544 253.095
L648.562 245.881
L649.901 248.286
L651.24 245.881
L653.918 250.691
L656.597 245.881
L660.614 253.095
L669.989 236.262
L674.006 243.476
L678.024 236.262
L679.363 238.667
L680.702 236.262
L683.381 241.072
L684.72 238.667
L687.398 243.476
L688.738 241.072
L690.077 243.476
L691.416 241.072
L692.755 243.476
L696.773 236.262
L698.112 238.667
L702.13 231.453
L704.808 236.262
L706.147 233.858
L707.486 236.262
L708.826 233.858
L714.182 243.476
L718.2 236.262
L723.557 245.881
L726.235 241.072
L730.253 248.286
L731.592 245.881
L734.27 250.691
L736.949 245.881
L738.288 248.286
L739.627 245.881
L740.966 248.286
L743.645 243.476
L744.984 245.881
L746.323 243.476
L750.341 250.691
L751.68 248.286
L754.358 253.095
L755.698 250.691
L758.376 255.5
L759.715 253.095
L761.054 255.5
L763.733 250.691
L767.75 257.905
L771.768 250.691
L775.786 257.905
L783.821 243.476
L787.838 250.691
L789.178 248.286
L790.517 250.691
L794.534 243.476
L801.23 255.5
L802.57 253.095
L806.587 260.309
L810.605 253.095
L815.962 262.714
L819.979 255.5
L825.336 265.119
L826.675 262.714
L828.014 265.119
L830.693 260.309
L833.371 265.119
L838.728 255.5
L840.067 257.905
L841.406 255.5
L852.12 274.738
L853.459 272.333
L854.798 274.738
L862.834 260.309
L865.512 265.119
L866.851 262.714
L869.53 267.524
L870.869 265.119
L873.547 269.928
L876.226 265.119
L877.565 267.524
L878.904 265.119
L880.243 267.524
L881.582 265.119
L884.261 269.928
L885.6 267.524
L886.939 269.928
L888.278 267.524
L894.974 279.547
L897.653 274.738
L900.331 279.547
L901.67 277.142
L903.01 279.547
L908.366 269.928
L909.706 272.333
L916.402 260.309
L917.741 262.714
L919.08 260.309
L920.419 262.714
L921.758 260.309
L923.098 262.714
L924.437 260.309
L928.454 267.524
L929.794 265.119
L931.133 267.524
L933.811 262.714
L936.49 267.524
L943.186 255.5
L944.525 257.905
L945.864 255.5
L947.203 257.905
L948.542 255.5
L949.882 257.905
L951.221 255.5
L952.56 257.905
L953.899 255.5
L956.578 260.309
L959.256 255.5
L960.595 257.905
L961.934 255.5
L963.274 257.905
L964.613 255.5
L967.291 260.309
L968.63 257.905
L969.97 260.309
L971.309 257.905
L972.648 260.309
L973.987 257.905
L982.022 272.333
L988.718 260.309
L990.058 262.714
L996.754 250.691
L998.093 253.095
L1003.45 243.476
L1004.79 245.881
L1008.81 238.667
L1010.15 241.072
L1011.48 238.667
L1012.82 241.072
L1014.16 238.667
L1016.84 243.476
L1019.52 238.667
L1020.86 241.072
L1022.2 238.667
L1023.54 241.072
L1026.22 236.262
L1028.89 241.072
L1030.23 238.667
L1032.91 243.476
L1036.93 236.262
L1038.27 238.667
L1040.95 233.858
L1043.63 238.667
L1044.96 236.262
L1047.64 241.072
L1048.98 238.667
L1050.32 241.072
L1053 236.262
L1054.34 238.667
L1057.02 233.858
L1058.36 236.262
L1059.7 233.858
L1062.37 238.667
L1065.05 233.858
L1067.73 238.667
L1069.07 236.262
L1071.75 241.072
L1073.09 238.667
L1075.77 243.476
L1077.11 241.072
L1079.78 245.881
L1081.12 243.476
L1083.8 248.286
L1086.48 243.476
L1087.82 245.881
L1091.84 238.667
L1093.18 241.072
L1094.52 238.667
L1095.85 241.072
L1103.89 226.644
L1105.23 229.048
L1107.91 224.239
L1110.59 229.048
L1111.92 226.644
L1113.26 229.048
L1117.28 221.834
L1118.62 224.239
L1121.3 219.429
L1126.66 229.048
L1128 226.644
L1129.33 229.048
L1130.67 226.644
L1140.05 243.476
L1144.07 236.262
L1145.4 238.667
L1150.76 229.048
L1152.1 231.453
L1154.78 226.644
L1156.12 229.048
L1157.46 226.644
L1158.8 229.048
L1165.49 217.025
L1168.17 221.834
L1169.51 219.429
L1174.87 229.048
L1177.55 224.239
L1178.88 226.644
L1185.58 214.62
L1186.92 217.025
L1189.6 212.215
L1190.94 214.62
L1192.28 212.215
L1194.96 217.025
L1201.65 205.001
L1202.99 207.406
L1208.35 197.787
L1212.36 205.001
L1213.7 202.596
L1225.76 224.239
L1227.1 221.834
L1228.44 224.239
L1229.77 221.834
L1233.79 229.048
L1239.15 219.429
L1243.17 226.644
L1244.51 224.239
L1245.84 226.644
L1247.18 224.239
L1251.2 231.453
L1255.22 224.239
L1256.56 226.644
L1257.9 224.239
L1265.93 238.667
L1272.63 226.644
L1275.31 231.453
L1283.34 217.025
L1284.68 219.429
L1287.36 214.62
L1291.38 221.834
L1295.4 214.62
L1296.73 217.025
L1300.75 209.811
L1310.13 226.644
L1312.8 221.834
L1316.82 229.048
L1323.52 217.025
L1324.86 219.429
L1328.88 212.215
L1330.21 214.62
L1331.55 212.215
L1332.89 214.62
L1334.23 212.215
L1336.91 217.025
L1339.59 212.215
L1348.96 229.048
L1350.3 226.644
L1354.32 233.858
L1355.66 231.453
L1357 233.858
L1358.34 231.453
L1362.36 238.667
L1363.69 236.262
L1365.03 238.667
L1366.37 236.262
L1367.71 238.667
L1369.05 236.262
L1374.41 245.881
L1375.75 243.476
L1379.76 250.691
L1381.1 248.286
L1386.46 257.905
L1387.8 255.5
L1398.51 274.738
L1399.85 272.333
L1405.21 281.952
L1406.55 279.547
L1409.23 284.356
L1410.57 281.952
L1411.91 284.356
L1413.24 281.952
L1414.58 284.356
L1415.92 281.952
L1418.6 286.761
L1419.94 284.356
L1421.28 286.761
L1425.3 279.547
L1427.98 284.356
L1429.32 281.952
L1434.67 291.571
L1436.01 289.166
L1437.35 291.571
L1440.03 286.761
L1441.37 289.166
L1444.05 284.356
L1445.39 286.761
L1448.06 281.952
L1452.08 289.166
L1464.13 267.524
L1466.81 272.333
L1469.49 267.524
L1472.17 272.333
L1477.53 262.714
L1478.87 265.119
L1482.88 257.905
L1485.56 262.714
L1486.9 260.309
L1489.58 265.119
L1492.26 260.309
L1494.94 265.119
L1496.28 262.714
L1497.61 265.119
L1498.95 262.714
L1505.65 274.738
L1506.99 272.333
L1508.33 274.738
L1512.35 267.524
L1513.68 269.928
L1515.02 267.524
L1517.7 272.333
L1521.72 265.119
L1523.06 267.524
L1524.4 265.119
L1533.77 281.952
L1536.45 277.142
L1537.79 279.547
L1539.13 277.142
L1541.81 281.952
L1543.15 279.547
L1553.86 298.785
L1553.86 298.785" style="fill:none;stroke:#008000;stroke-linecap:square;stroke-width:2.0;"/>
   </g>
   <g id="line2d_3">
    <path clip-path="url(#p250b35b7e6)" d="
M216 238.667
L224.035 253.095
L228.053 245.881
L229.392 248.286
L230.731 245.881
L237.427 257.905
L238.766 255.5
L242.784 262.714
L244.123 260.309
L245.462 262.714
L246.802 260.309
L253.498 272.333
L256.176 267.524
L258.854 272.333
L260.194 269.928
L261.533 272.333
L262.872 269.928
L264.211 272.333
L265.55 269.928
L268.229 274.738
L270.907 269.928
L272.246 272.333
L273.586 269.928
L277.603 277.142
L278.942 274.738
L280.282 277.142
L281.621 274.738
L282.96 277.142
L285.638 272.333
L286.978 274.738
L290.995 267.524
L295.013 274.738
L299.03 267.524
L301.709 272.333
L303.048 269.928
L304.387 272.333
L309.744 262.714
L311.083 265.119
L312.422 262.714
L315.101 267.524
L316.44 265.119
L317.779 267.524
L319.118 265.119
L320.458 267.524
L321.797 265.119
L323.136 267.524
L324.475 265.119
L328.493 272.333
L331.171 267.524
L333.85 272.333
L335.189 269.928
L336.528 272.333
L337.867 269.928
L341.885 277.142
L343.224 274.738
L344.563 277.142
L347.242 272.333
L351.259 279.547
L353.938 274.738
L355.277 277.142
L357.955 272.333
L361.973 279.547
L363.312 277.142
L364.651 279.547
L368.669 272.333
L374.026 281.952
L380.722 269.928
L386.078 279.547
L387.418 277.142
L390.096 281.952
L394.114 274.738
L395.453 277.142
L400.81 267.524
L403.488 272.333
L407.506 265.119
L408.845 267.524
L410.184 265.119
L414.202 272.333
L416.88 267.524
L418.219 269.928
L419.558 267.524
L422.237 272.333
L423.576 269.928
L427.594 277.142
L428.933 274.738
L430.272 277.142
L432.95 272.333
L434.29 274.738
L435.629 272.333
L436.968 274.738
L440.986 267.524
L442.325 269.928
L443.664 267.524
L445.003 269.928
L447.682 265.119
L449.021 267.524
L450.36 265.119
L453.038 269.928
L455.717 265.119
L457.056 267.524
L462.413 257.905
L465.091 262.714
L469.109 255.5
L471.787 260.309
L473.126 257.905
L474.466 260.309
L475.805 257.905
L477.144 260.309
L479.822 255.5
L482.501 260.309
L483.84 257.905
L485.179 260.309
L487.858 255.5
L489.197 257.905
L491.875 253.095
L497.232 262.714
L498.571 260.309
L501.25 265.119
L505.267 257.905
L506.606 260.309
L507.946 257.905
L511.963 265.119
L517.32 255.5
L521.338 262.714
L524.016 257.905
L525.355 260.309
L526.694 257.905
L528.034 260.309
L530.712 255.5
L533.39 260.309
L536.069 255.5
L538.747 260.309
L540.086 257.905
L541.426 260.309
L545.443 253.095
L546.782 255.5
L550.8 248.286
L553.478 253.095
L556.157 248.286
L560.174 255.5
L561.514 253.095
L562.853 255.5
L565.531 250.691
L568.21 255.5
L572.227 248.286
L573.566 250.691
L576.245 245.881
L577.584 248.286
L578.923 245.881
L580.262 248.286
L581.602 245.881
L593.654 267.524
L594.994 265.119
L599.011 272.333
L600.35 269.928
L601.69 272.333
L607.046 262.714
L608.386 265.119
L611.064 260.309
L612.403 262.714
L613.742 260.309
L615.082 262.714
L616.421 260.309
L620.438 267.524
L627.134 255.5
L629.813 260.309
L632.491 255.5
L635.17 260.309
L637.848 255.5
L640.526 260.309
L641.866 257.905
L643.205 260.309
L647.222 253.095
L648.562 255.5
L652.579 248.286
L653.918 250.691
L656.597 245.881
L659.275 250.691
L660.614 248.286
L661.954 250.691
L665.971 243.476
L667.31 245.881
L671.328 238.667
L674.006 243.476
L678.024 236.262
L682.042 243.476
L686.059 236.262
L687.398 238.667
L688.738 236.262
L690.077 238.667
L691.416 236.262
L694.094 241.072
L695.434 238.667
L696.773 241.072
L702.13 231.453
L703.469 233.858
L706.147 229.048
L712.843 241.072
L718.2 231.453
L719.539 233.858
L722.218 229.048
L723.557 231.453
L724.896 229.048
L726.235 231.453
L734.27 217.025
L735.61 219.429
L736.949 217.025
L743.645 229.048
L744.984 226.644
L749.002 233.858
L750.341 231.453
L753.019 236.262
L755.698 231.453
L757.037 233.858
L758.376 231.453
L761.054 236.262
L762.394 233.858
L766.411 241.072
L767.75 238.667
L770.429 243.476
L771.768 241.072
L773.107 243.476
L774.446 241.072
L778.464 248.286
L779.803 245.881
L781.142 248.286
L785.16 241.072
L787.838 245.881
L789.178 243.476
L791.856 248.286
L793.195 245.881
L795.874 250.691
L803.909 236.262
L805.248 238.667
L806.587 236.262
L807.926 238.667
L811.944 231.453
L819.979 245.881
L821.318 243.476
L830.693 260.309
L832.032 257.905
L834.71 262.714
L836.05 260.309
L837.389 262.714
L838.728 260.309
L840.067 262.714
L841.406 260.309
L846.763 269.928
L848.102 267.524
L849.442 269.928
L850.781 267.524
L852.12 269.928
L858.816 257.905
L862.834 265.119
L866.851 257.905
L872.208 267.524
L873.547 265.119
L876.226 269.928
L878.904 265.119
L881.582 269.928
L885.6 262.714
L888.278 267.524
L890.957 262.714
L892.296 265.119
L894.974 260.309
L896.314 262.714
L907.027 243.476
L909.706 248.286
L915.062 238.667
L916.402 241.072
L919.08 236.262
L920.419 238.667
L927.115 226.644
L931.133 233.858
L932.472 231.453
L933.811 233.858
L936.49 229.048
L939.168 233.858
L940.507 231.453
L948.542 245.881
L949.882 243.476
L951.221 245.881
L952.56 243.476
L955.238 248.286
L959.256 241.072
L964.613 250.691
L967.291 245.881
L968.63 248.286
L969.97 245.881
L971.309 248.286
L972.648 245.881
L973.987 248.286
L979.344 238.667
L982.022 243.476
L983.362 241.072
L987.379 248.286
L990.058 243.476
L998.093 257.905
L1000.77 253.095
L1003.45 257.905
L1006.13 253.095
L1007.47 255.5
L1008.81 253.095
L1010.15 255.5
L1011.48 253.095
L1012.82 255.5
L1015.5 250.691
L1016.84 253.095
L1018.18 250.691
L1019.52 253.095
L1020.86 250.691
L1022.2 253.095
L1023.54 250.691
L1024.88 253.095
L1027.56 248.286
L1031.57 255.5
L1032.91 253.095
L1034.25 255.5
L1035.59 253.095
L1036.93 255.5
L1038.27 253.095
L1040.95 257.905
L1046.3 248.286
L1047.64 250.691
L1048.98 248.286
L1051.66 253.095
L1053 250.691
L1055.68 255.5
L1059.7 248.286
L1062.37 253.095
L1066.39 245.881
L1070.41 253.095
L1075.77 243.476
L1077.11 245.881
L1078.44 243.476
L1079.78 245.881
L1082.46 241.072
L1083.8 243.476
L1085.14 241.072
L1086.48 243.476
L1090.5 236.262
L1094.52 243.476
L1098.53 236.262
L1099.87 238.667
L1101.21 236.262
L1102.55 238.667
L1103.89 236.262
L1106.57 241.072
L1109.25 236.262
L1110.59 238.667
L1111.92 236.262
L1114.6 241.072
L1119.96 231.453
L1128 245.881
L1130.67 241.072
L1133.35 245.881
L1136.03 241.072
L1142.73 253.095
L1144.07 250.691
L1145.4 253.095
L1146.74 250.691
L1148.08 253.095
L1152.1 245.881
L1153.44 248.286
L1157.46 241.072
L1164.15 253.095
L1165.49 250.691
L1169.51 257.905
L1170.85 255.5
L1172.19 257.905
L1173.53 255.5
L1178.88 265.119
L1181.56 260.309
L1186.92 269.928
L1189.6 265.119
L1190.94 267.524
L1193.62 262.714
L1194.96 265.119
L1196.29 262.714
L1198.97 267.524
L1201.65 262.714
L1204.33 267.524
L1205.67 265.119
L1207.01 267.524
L1209.69 262.714
L1211.03 265.119
L1212.36 262.714
L1213.7 265.119
L1216.38 260.309
L1219.06 265.119
L1221.74 260.309
L1224.42 265.119
L1225.76 262.714
L1227.1 265.119
L1228.44 262.714
L1231.11 267.524
L1235.13 260.309
L1239.15 267.524
L1241.83 262.714
L1244.51 267.524
L1247.18 262.714
L1249.86 267.524
L1251.2 265.119
L1256.56 274.738
L1259.24 269.928
L1263.25 277.142
L1265.93 272.333
L1268.61 277.142
L1271.29 272.333
L1273.97 277.142
L1275.31 274.738
L1276.65 277.142
L1279.32 272.333
L1280.66 274.738
L1282 272.333
L1284.68 277.142
L1286.02 274.738
L1287.36 277.142
L1290.04 272.333
L1291.38 274.738
L1292.72 272.333
L1299.41 284.356
L1302.09 279.547
L1303.43 281.952
L1304.77 279.547
L1307.45 284.356
L1310.13 279.547
L1311.47 281.952
L1312.8 279.547
L1314.14 281.952
L1315.48 279.547
L1316.82 281.952
L1319.5 277.142
L1320.84 279.547
L1324.86 272.333
L1327.54 277.142
L1330.21 272.333
L1332.89 277.142
L1334.23 274.738
L1338.25 281.952
L1339.59 279.547
L1342.27 284.356
L1346.28 277.142
L1347.62 279.547
L1351.64 272.333
L1354.32 277.142
L1355.66 274.738
L1357 277.142
L1359.68 272.333
L1363.69 279.547
L1365.03 277.142
L1366.37 279.547
L1369.05 274.738
L1370.39 277.142
L1371.73 274.738
L1374.41 279.547
L1375.75 277.142
L1377.09 279.547
L1378.43 277.142
L1379.76 279.547
L1383.78 272.333
L1386.46 277.142
L1393.16 265.119
L1394.5 267.524
L1397.17 262.714
L1402.53 272.333
L1405.21 267.524
L1406.55 269.928
L1410.57 262.714
L1413.24 267.524
L1415.92 262.714
L1417.26 265.119
L1423.96 253.095
L1425.3 255.5
L1426.64 253.095
L1429.32 257.905
L1434.67 248.286
L1436.01 250.691
L1440.03 243.476
L1444.05 250.691
L1449.4 241.072
L1450.74 243.476
L1452.08 241.072
L1453.42 243.476
L1454.76 241.072
L1457.44 245.881
L1461.46 238.667
L1462.8 241.072
L1465.47 236.262
L1466.81 238.667
L1470.83 231.453
L1472.17 233.858
L1473.51 231.453
L1474.85 233.858
L1477.53 229.048
L1480.2 233.858
L1481.54 231.453
L1485.56 238.667
L1489.58 231.453
L1492.26 236.262
L1493.6 233.858
L1498.95 243.476
L1501.63 238.667
L1502.97 241.072
L1504.31 238.667
L1505.65 241.072
L1509.67 233.858
L1511.01 236.262
L1512.35 233.858
L1515.02 238.667
L1516.36 236.262
L1517.7 238.667
L1525.74 224.239
L1528.42 229.048
L1529.76 226.644
L1533.77 233.858
L1536.45 229.048
L1537.79 231.453
L1539.13 229.048
L1540.47 231.453
L1543.15 226.644
L1544.49 229.048
L1545.83 226.644
L1549.84 233.858
L1553.86 226.644
L1553.86 226.644" style="fill:none;stroke:#ff0000;stroke-linecap:square;stroke-width:2.0;"/>
   </g>
   <g id="matplotlib.axis_1">
    <g id="xtick_1">
     <g id="line2d_4">
      <defs>
       <path d="
M0 0
L0 -4" id="m93b0483c22" style="stroke:#000000;stroke-width:0.5;"/>
      </defs>
      <g>
       <use style="stroke:#000000;stroke-width:0.5;" x="216.0" xlink:href="#m93b0483c22" y="308.403529412"/>
      </g>
     </g>
     <g id="line2d_5">
      <defs>
       <path d="
M0 0
L0 4" id="m741efc42ff" style="stroke:#000000;stroke-width:0.5;"/>
      </defs>
      <g>
       <use style="stroke:#000000;stroke-width:0.5;" x="216.0" xlink:href="#m741efc42ff" y="91.98"/>
      </g>
     </g>
    </g>
    <g id="xtick_2">
     <g id="line2d_6">
      <g>
       <use style="stroke:#000000;stroke-width:0.5;" x="483.84" xlink:href="#m93b0483c22" y="308.403529412"/>
      </g>
     </g>
     <g id="line2d_7">
      <g>
       <use style="stroke:#000000;stroke-width:0.5;" x="483.84" xlink:href="#m741efc42ff" y="91.98"/>
      </g>
     </g>
    </g>
    <g id="xtick_3">
     <g id="line2d_8">
      <g>
       <use style="stroke:#000000;stroke-width:0.5;" x="751.68" xlink:href="#m93b0483c22" y="308.403529412"/>
      </g>
     </g>
     <g id="line2d_9">
      <g>
       <use style="stroke:#000000;stroke-width:0.5;" x="751.68" xlink:href="#m741efc42ff" y="91.98"/>
      </g>
     </g>
    </g>
    <g id="xtick_4">
     <g id="line2d_10">
      <g>
       <use style="stroke:#000000;stroke-width:0.5;" x="1019.52" xlink:href="#m93b0483c22" y="308.403529412"/>
      </g>
     </g>
     <g id="line2d_11">
      <g>
       <use style="stroke:#000000;stroke-width:0.5;" x="1019.52" xlink:href="#m741efc42ff" y="91.98"/>
      </g>
     </g>
    </g>
    <g id="xtick_5">
     <g id="line2d_12">
      <g>
       <use style="stroke:#000000;stroke-width:0.5;" x="1287.36" xlink:href="#m93b0483c22" y="308.403529412"/>
      </g>
     </g>
     <g id="line2d_13">
      <g>
       <use style="stroke:#000000;stroke-width:0.5;" x="1287.36" xlink:href="#m741efc42ff" y="91.98"/>
      </g>
     </g>
    </g>
    <g id="xtick_6">
     <g id="line2d_14">
      <g>
       <use style="stroke:#000000;stroke-width:0.5;" x="1555.2" xlink:href="#m93b0483c22" y="308.403529412"/>
      </g>
     </g>
     <g id="line2d_15">
      <g>
       <use style="stroke:#000000;stroke-width:0.5;" x="1555.2" xlink:href="#m741efc42ff" y="91.98"/>
      </g>
     </g>
    </g>
   </g>
   <g id="matplotlib.axis_2">
    <g id="ytick_1">
     <g id="line2d_16">
      <defs>
       <path d="
M0 0
L4 0" id="m728421d6d4" style="stroke:#000000;stroke-width:0.5;"/>
      </defs>
      <g>
       <use style="stroke:#000000;stroke-width:0.5;" x="216.0" xlink:href="#m728421d6d4" y="308.403529412"/>
      </g>
     </g>
     <g id="line2d_17">
      <defs>
       <path d="
M0 0
L-4 0" id="mcb0005524f" style="stroke:#000000;stroke-width:0.5;"/>
      </defs>
      <g>
       <use style="stroke:#000000;stroke-width:0.5;" x="1555.2" xlink:href="#mcb0005524f" y="308.403529412"/>
      </g>
     </g>
     <g id="text_1">
      <!-- −30 -->
      <defs>
       <path d="
M31.7812 66.4062
Q24.1719 66.4062 20.3281 58.9062
Q16.5 51.4219 16.5 36.375
Q16.5 21.3906 20.3281 13.8906
Q24.1719 6.39062 31.7812 6.39062
Q39.4531 6.39062 43.2812 13.8906
Q47.125 21.3906 47.125 36.375
Q47.125 51.4219 43.2812 58.9062
Q39.4531 66.4062 31.7812 66.4062
M31.7812 74.2188
Q44.0469 74.2188 50.5156 64.5156
Q56.9844 54.8281 56.9844 36.375
Q56.9844 17.9688 50.5156 8.26562
Q44.0469 -1.42188 31.7812 -1.42188
Q19.5312 -1.42188 13.0625 8.26562
Q6.59375 17.9688 6.59375 36.375
Q6.59375 54.8281 13.0625 64.5156
Q19.5312 74.2188 31.7812 74.2188" id="DejaVuSans-30"/>
       <path d="
M40.5781 39.3125
Q47.6562 37.7969 51.625 33
Q55.6094 28.2188 55.6094 21.1875
Q55.6094 10.4062 48.1875 4.48438
Q40.7656 -1.42188 27.0938 -1.42188
Q22.5156 -1.42188 17.6562 -0.515625
Q12.7969 0.390625 7.625 2.20312
L7.625 11.7188
Q11.7188 9.32812 16.5938 8.10938
Q21.4844 6.89062 26.8125 6.89062
Q36.0781 6.89062 40.9375 10.5469
Q45.7969 14.2031 45.7969 21.1875
Q45.7969 27.6406 41.2812 31.2656
Q36.7656 34.9062 28.7188 34.9062
L20.2188 34.9062
L20.2188 43.0156
L29.1094 43.0156
Q36.375 43.0156 40.2344 45.9219
Q44.0938 48.8281 44.0938 54.2969
Q44.0938 59.9062 40.1094 62.9062
Q36.1406 65.9219 28.7188 65.9219
Q24.6562 65.9219 20.0156 65.0312
Q15.375 64.1562 9.8125 62.3125
L9.8125 71.0938
Q15.4375 72.6562 20.3438 73.4375
Q25.25 74.2188 29.5938 74.2188
Q40.8281 74.2188 47.3594 69.1094
Q53.9062 64.0156 53.9062 55.3281
Q53.9062 49.2656 50.4375 45.0938
Q46.9688 40.9219 40.5781 39.3125" id="DejaVuSans-33"/>
       <path d="
M10.5938 35.5
L73.1875 35.5
L73.1875 27.2031
L10.5938 27.2031
z
" id="DejaVuSans-2212"/>
      </defs>
      <g transform="translate(188.7425 311.714779412)scale(0.12 -0.12)">
       <use xlink:href="#DejaVuSans-2212"/>
       <use x="83.7890625" xlink:href="#DejaVuSans-33"/>
       <use x="147.412109375" xlink:href="#DejaVuSans-30"/>
      </g>
     </g>
    </g>
    <g id="ytick_2">
     <g id="line2d_18">
      <g>
       <use style="stroke:#000000;stroke-width:0.5;" x="216.0" xlink:href="#m728421d6d4" y="284.356470588"/>
      </g>
     </g>
     <g id="line2d_19">
      <g>
       <use style="stroke:#000000;stroke-width:0.5;" x="1555.2" xlink:href="#mcb0005524f" y="284.356470588"/>
      </g>
     </g>
     <g id="text_2">
      <!-- −20 -->
      <defs>
       <path d="
M19.1875 8.29688
L53.6094 8.29688
L53.6094 0
L7.32812 0
L7.32812 8.29688
Q12.9375 14.1094 22.625 23.8906
Q32.3281 33.6875 34.8125 36.5312
Q39.5469 41.8438 41.4219 45.5312
Q43.3125 49.2188 43.3125 52.7812
Q43.3125 58.5938 39.2344 62.25
Q35.1562 65.9219 28.6094 65.9219
Q23.9688 65.9219 18.8125 64.3125
Q13.6719 62.7031 7.8125 59.4219
L7.8125 69.3906
Q13.7656 71.7812 18.9375 73
Q24.125 74.2188 28.4219 74.2188
Q39.75 74.2188 46.4844 68.5469
Q53.2188 62.8906 53.2188 53.4219
Q53.2188 48.9219 51.5312 44.8906
Q49.8594 40.875 45.4062 35.4062
Q44.1875 33.9844 37.6406 27.2188
Q31.1094 20.4531 19.1875 8.29688" id="DejaVuSans-32"/>
      </defs>
      <g transform="translate(188.7425 287.667720588)scale(0.12 -0.12)">
       <use xlink:href="#DejaVuSans-2212"/>
       <use x="83.7890625" xlink:href="#DejaVuSans-32"/>
       <use x="147.412109375" xlink:href="#DejaVuSans-30"/>
      </g>
     </g>
    </g>
    <g id="ytick_3">
     <g id="line2d_20">
      <g>
       <use style="stroke:#000000;stroke-width:0.5;" x="216.0" xlink:href="#m728421d6d4" y="260.309411765"/>
      </g>
     </g>
     <g id="line2d_21">
      <g>
       <use style="stroke:#000000;stroke-width:0.5;" x="1555.2" xlink:href="#mcb0005524f" y="260.309411765"/>
      </g>
     </g>
     <g id="text_3">
      <!-- −10 -->
      <defs>
       <path d="
M12.4062 8.29688
L28.5156 8.29688
L28.5156 63.9219
L10.9844 60.4062
L10.9844 69.3906
L28.4219 72.9062
L38.2812 72.9062
L38.2812 8.29688
L54.3906 8.29688
L54.3906 0
L12.4062 0
z
" id="DejaVuSans-31"/>
      </defs>
      <g transform="translate(188.7425 263.620661765)scale(0.12 -0.12)">
       <use xlink:href="#DejaVuSans-2212"/>
       <use x="83.7890625" xlink:href="#DejaVuSans-31"/>
       <use x="147.412109375" xlink:href="#DejaVuSans-30"/>
      </g>
     </g>
    </g>
    <g id="ytick_4">
     <g id="line2d_22">
      <g>
       <use style="stroke:#000000;stroke-width:0.5;" x="216.0" xlink:href="#m728421d6d4" y="236.262352941"/>
      </g>
     </g>
     <g id="line2d_23">
      <g>
       <use style="stroke:#000000;stroke-width:0.5;" x="1555.2" xlink:href="#mcb0005524f" y="236.262352941"/>
      </g>
     </g>
     <g id="text_4">
      <!-- 0 -->
      <g transform="translate(205.953125 239.573602941)scale(0.12 -0.12)">
       <use xlink:href="#DejaVuSans-30"/>
      </g>
     </g>
    </g>
    <g id="ytick_5">
     <g id="line2d_24">
      <g>
       <use style="stroke:#000000;stroke-width:0.5;" x="216.0" xlink:href="#m728421d6d4" y="212.215294118"/>
      </g>
     </g>
     <g id="line2d_25">
      <g>
       <use style="stroke:#000000;stroke-width:0.5;" x="1555.2" xlink:href="#mcb0005524f" y="212.215294118"/>
      </g>
     </g>
     <g id="text_5">
      <!-- 10 -->
      <g transform="translate(198.845 215.526544118)scale(0.12 -0.12)">
       <use xlink:href="#DejaVuSans-31"/>
       <use x="63.623046875" xlink:href="#DejaVuSans-30"/>
      </g>
     </g>
    </g>
    <g id="ytick_6">
     <g id="line2d_26">
      <g>
       <use style="stroke:#000000;stroke-width:0.5;" x="216.0" xlink:href="#m728421d6d4" y="188.168235294"/>
      </g>
     </g>
     <g id="line2d_27">
      <g>
       <use style="stroke:#000000;stroke-width:0.5;" x="1555.2" xlink:href="#mcb0005524f" y="188.168235294"/>
      </g>
     </g>
     <g id="text_6">
      <!-- 20 -->
      <g transform="translate(198.40625 191.479485294)scale(0.12 -0.12)">
       <use xlink:href="#DejaVuSans-32"/>
       <use x="63.623046875" xlink:href="#DejaVuSans-30"/>
      </g>
     </g>
    </g>
    <g id="ytick_7">
     <g id="line2d_28">
      <g>
       <use style="stroke:#000000;stroke-width:0.5;" x="216.0" xlink:href="#m728421d6d4" y="164.121176471"/>
      </g>
     </g>
     <g id="line2d_29">
      <g>
       <use style="stroke:#000000;stroke-width:0.5;" x="1555.2" xlink:href="#mcb0005524f" y="164.121176471"/>
      </g>
     </g>
     <g id="text_7">
      <!-- 30 -->
      <g transform="translate(198.441875 167.432426471)scale(0.12 -0.12)">
       <use xlink:href="#DejaVuSans-33"/>
       <use x="63.623046875" xlink:href="#DejaVuSans-30"/>
      </g>
     </g>
    </g>
    <g id="ytick_8">
     <g id="line2d_30">
      <g>
       <use style="stroke:#000000;stroke-width:0.5;" x="216.0" xlink:href="#m728421d6d4" y="140.074117647"/>
      </g>
     </g>
     <g id="line2d_31">
      <g>
       <use style="stroke:#000000;stroke-width:0.5;" x="1555.2" xlink:href="#mcb0005524f" y="140.074117647"/>
      </g>
     </g>
     <g id="text_8">
      <!-- 40 -->
      <defs>
       <path d="
M37.7969 64.3125
L12.8906 25.3906
L37.7969 25.3906
z

M35.2031 72.9062
L47.6094 72.9062
L47.6094 25.3906
L58.0156 25.3906
L58.0156 17.1875
L47.6094 17.1875
L47.6094 0
L37.7969 0
L37.7969 17.1875
L4.89062 17.1875
L4.89062 26.7031
z
" id="DejaVuSans-34"/>
      </defs>
      <g transform="translate(198.11375 143.385367647)scale(0.12 -0.12)">
       <use xlink:href="#DejaVuSans-34"/>
       <use x="63.623046875" xlink:href="#DejaVuSans-30"/>
      </g>
     </g>
    </g>
    <g id="ytick_9">
     <g id="line2d_32">
      <g>
       <use style="stroke:#000000;stroke-width:0.5;" x="216.0" xlink:href="#m728421d6d4" y="116.027058824"/>
      </g>
     </g>
     <g id="line2d_33">
      <g>
       <use style="stroke:#000000;stroke-width:0.5;" x="1555.2" xlink:href="#mcb0005524f" y="116.027058824"/>
      </g>
     </g>
     <g id="text_9">
      <!-- 50 -->
      <defs>
       <path d="
M10.7969 72.9062
L49.5156 72.9062
L49.5156 64.5938
L19.8281 64.5938
L19.8281 46.7344
Q21.9688 47.4688 24.1094 47.8281
Q26.2656 48.1875 28.4219 48.1875
Q40.625 48.1875 47.75 41.5
Q54.8906 34.8125 54.8906 23.3906
Q54.8906 11.625 47.5625 5.09375
Q40.2344 -1.42188 26.9062 -1.42188
Q22.3125 -1.42188 17.5469 -0.640625
Q12.7969 0.140625 7.71875 1.70312
L7.71875 11.625
Q12.1094 9.23438 16.7969 8.0625
Q21.4844 6.89062 26.7031 6.89062
Q35.1562 6.89062 40.0781 11.3281
Q45.0156 15.7656 45.0156 23.3906
Q45.0156 31 40.0781 35.4375
Q35.1562 39.8906 26.7031 39.8906
Q22.75 39.8906 18.8125 39.0156
Q14.8906 38.1406 10.7969 36.2812
z
" id="DejaVuSans-35"/>
      </defs>
      <g transform="translate(198.453125 119.338308824)scale(0.12 -0.12)">
       <use xlink:href="#DejaVuSans-35"/>
       <use x="63.623046875" xlink:href="#DejaVuSans-30"/>
      </g>
     </g>
    </g>
    <g id="ytick_10">
     <g id="line2d_34">
      <g>
       <use style="stroke:#000000;stroke-width:0.5;" x="216.0" xlink:href="#m728421d6d4" y="91.98"/>
      </g>
     </g>
     <g id="line2d_35">
      <g>
       <use style="stroke:#000000;stroke-width:0.5;" x="1555.2" xlink:href="#mcb0005524f" y="91.98"/>
      </g>
     </g>
     <g id="text_10">
      <!-- 60 -->
      <defs>
       <path d="
M33.0156 40.375
Q26.375 40.375 22.4844 35.8281
Q18.6094 31.2969 18.6094 23.3906
Q18.6094 15.5312 22.4844 10.9531
Q26.375 6.39062 33.0156 6.39062
Q39.6562 6.39062 43.5312 10.9531
Q47.4062 15.5312 47.4062 23.3906
Q47.4062 31.2969 43.5312 35.8281
Q39.6562 40.375 33.0156 40.375
M52.5938 71.2969
L52.5938 62.3125
Q48.875 64.0625 45.0938 64.9844
Q41.3125 65.9219 37.5938 65.9219
Q27.8281 65.9219 22.6719 59.3281
Q17.5312 52.7344 16.7969 39.4062
Q19.6719 43.6562 24.0156 45.9219
Q28.375 48.1875 33.5938 48.1875
Q44.5781 48.1875 50.9531 41.5156
Q57.3281 34.8594 57.3281 23.3906
Q57.3281 12.1562 50.6875 5.35938
Q44.0469 -1.42188 33.0156 -1.42188
Q20.3594 -1.42188 13.6719 8.26562
Q6.98438 17.9688 6.98438 36.375
Q6.98438 53.6562 15.1875 63.9375
Q23.3906 74.2188 37.2031 74.2188
Q40.9219 74.2188 44.7031 73.4844
Q48.4844 72.75 52.5938 71.2969" id="DejaVuSans-36"/>
      </defs>
      <g transform="translate(198.365 95.29125)scale(0.12 -0.12)">
       <use xlink:href="#DejaVuSans-36"/>
       <use x="63.623046875" xlink:href="#DejaVuSans-30"/>
      </g>
     </g>
    </g>
   </g>
   <g id="patch_3">
    <path d="
M216 91.98
L1555.2 91.98" style="fill:none;stroke:#000000;"/>
   </g>
   <g id="patch_4">
    <path d="
M1555.2 308.404
L1555.2 91.98" style="fill:none;stroke:#000000;"/>
   </g>
   <g id="patch_5">
    <path d="
M216 308.404
L1555.2 308.404" style="fill:none;stroke:#000000;"/>
   </g>
   <g id="patch_6">
    <path d="
M216 308.404
L216 91.98" style="fill:none;stroke:#000000;"/>
   </g>
   <g id="text_11">
    <!-- $p=0.5$ -->
    <defs>
     <path d="
M-2.48438 -19.3906
Q-3.42188 -19.3906 -3.42188 -18.1094
Q-3.07812 -15.9219 -2.09375 -15.9219
Q1.03125 -15.9219 2.26562 -15.3594
Q3.51562 -14.7969 4.20312 -12.5
L15.4844 32.5156
Q16.2188 34.375 16.2188 37.3125
Q16.2188 41.6094 13.2812 41.6094
Q10.1562 41.6094 8.64062 37.8594
Q7.125 34.125 5.71875 28.4219
Q5.71875 27.7812 4.89062 27.7812
L3.71875 27.7812
Q3.46875 27.7812 3.17188 28.1406
Q2.875 28.5156 2.875 28.8125
Q3.95312 33.1562 4.95312 36.1719
Q5.95312 39.2031 8.07812 41.6875
Q10.2031 44.1875 13.375 44.1875
Q16.7969 44.1875 19.375 42.25
Q21.9688 40.3281 22.7031 37.0156
Q25.4375 40.1875 28.75 42.1875
Q32.0781 44.1875 35.5938 44.1875
Q39.7969 44.1875 42.8906 41.9375
Q46 39.7031 47.5625 36.0625
Q49.125 32.4219 49.125 28.2188
Q49.125 21.7812 45.8281 14.8906
Q42.5312 8.01562 36.8906 3.4375
Q31.25 -1.125 24.8125 -1.125
Q21.875 -1.125 19.5 0.53125
Q17.1406 2.20312 15.8281 4.89062
L11.2812 -12.8906
Q11.0312 -14.3594 10.9844 -14.5938
Q10.9844 -15.9219 17.5781 -15.9219
Q18.6094 -15.9219 18.6094 -17.1875
Q18.2656 -18.5 18.0469 -18.9375
Q17.8281 -19.3906 16.8906 -19.3906
z

M24.9062 1.51562
Q28.375 1.51562 31.3438 4.375
Q34.3281 7.23438 36.1875 10.7969
Q37.5469 13.4844 38.7344 17.3594
Q39.9375 21.2344 40.8125 25.625
Q41.7031 30.0312 41.7031 32.625
Q41.7031 34.9062 41.0938 36.9062
Q40.4844 38.9219 39.0938 40.2656
Q37.7031 41.6094 35.4062 41.6094
Q31.7344 41.6094 28.4844 38.9844
Q25.25 36.375 22.6094 32.5156
L22.6094 32.1719
L17.0938 10.1094
Q17.7812 6.54688 19.7344 4.03125
Q21.6875 1.51562 24.9062 1.51562" id="Cmmi10-70"/>
     <path d="
M25 -2.20312
Q12.75 -2.20312 8.32812 7.875
Q3.90625 17.9688 3.90625 31.8906
Q3.90625 40.5781 5.48438 48.2344
Q7.07812 55.9062 11.7812 61.25
Q16.5 66.6094 25 66.6094
Q31.5938 66.6094 35.7812 63.375
Q39.9844 60.1562 42.1875 55.0469
Q44.3906 49.9531 45.1875 44.1094
Q46 38.2812 46 31.8906
Q46 23.2969 44.4062 15.7969
Q42.8281 8.29688 38.1875 3.04688
Q33.5469 -2.20312 25 -2.20312
M25 0.390625
Q30.5625 0.390625 33.2969 6.09375
Q36.0312 11.8125 36.6719 18.75
Q37.3125 25.6875 37.3125 33.5
Q37.3125 41.0156 36.6719 47.3594
Q36.0312 53.7188 33.3125 58.8594
Q30.6094 64.0156 25 64.0156
Q19.3438 64.0156 16.6094 58.8281
Q13.875 53.6562 13.2344 47.3281
Q12.5938 41.0156 12.5938 33.5
Q12.5938 27.9375 12.8594 23
Q13.1406 18.0625 14.3125 12.8125
Q15.4844 7.5625 18.0938 3.96875
Q20.7031 0.390625 25 0.390625" id="Cmr10-30"/>
     <path d="
M8.40625 5.51562
Q8.40625 7.76562 10.0625 9.375
Q11.7188 10.9844 13.9219 10.9844
Q15.2812 10.9844 16.5938 10.25
Q17.9219 9.51562 18.6562 8.20312
Q19.3906 6.89062 19.3906 5.51562
Q19.3906 3.32812 17.7656 1.65625
Q16.1562 0 13.9219 0
Q11.7188 0 10.0625 1.65625
Q8.40625 3.32812 8.40625 5.51562" id="Cmmi10-3a"/>
     <path d="
M8.6875 11.375
Q9.71875 8.45312 11.8438 6.04688
Q13.9688 3.65625 16.875 2.3125
Q19.7812 0.984375 22.9062 0.984375
Q30.125 0.984375 32.8594 6.59375
Q35.5938 12.2031 35.5938 20.2188
Q35.5938 23.6875 35.4688 26.0469
Q35.3594 28.4219 34.8125 30.6094
Q33.8906 34.125 31.5625 36.7656
Q29.25 39.4062 25.875 39.4062
Q22.5156 39.4062 20.0938 38.375
Q17.6719 37.3594 16.1562 35.9844
Q14.6562 34.625 13.4844 33.1094
Q12.3125 31.5938 12.0156 31.5
L10.8906 31.5
Q10.6406 31.5 10.2656 31.8125
Q9.90625 32.125 9.90625 32.4219
L9.90625 65.8281
Q9.90625 66.0625 10.2188 66.3281
Q10.5469 66.6094 10.8906 66.6094
L11.1875 66.6094
Q17.9219 63.375 25.4844 63.375
Q32.9062 63.375 39.7969 66.6094
L40.0938 66.6094
Q40.4375 66.6094 40.7188 66.3594
Q41.0156 66.1094 41.0156 65.8281
L41.0156 64.8906
Q41.0156 64.4062 40.8281 64.4062
Q37.4062 59.8594 32.25 57.3125
Q27.0938 54.7812 21.5781 54.7812
Q17.5781 54.7812 13.375 55.9062
L13.375 37.0156
Q16.7031 39.7031 19.3125 40.8438
Q21.9219 42 25.9844 42
Q31.5 42 35.8594 38.8125
Q40.2344 35.6406 42.5781 30.5312
Q44.9219 25.4375 44.9219 20.125
Q44.9219 14.1094 41.9688 8.98438
Q39.0156 3.85938 33.9375 0.828125
Q28.8594 -2.20312 22.9062 -2.20312
Q17.9688 -2.20312 13.8438 0.328125
Q9.71875 2.875 7.34375 7.17188
Q4.98438 11.4688 4.98438 16.3125
Q4.98438 18.5625 6.4375 19.9688
Q7.90625 21.3906 10.1094 21.3906
Q12.3125 21.3906 13.7969 19.9375
Q15.2812 18.5 15.2812 16.3125
Q15.2812 14.1562 13.7969 12.6719
Q12.3125 11.1875 10.1094 11.1875
Q9.76562 11.1875 9.32812 11.25
Q8.89062 11.3281 8.6875 11.375" id="Cmr10-35"/>
     <path d="
M7.51562 13.2812
Q6.6875 13.2812 6.14062 13.9062
Q5.60938 14.5469 5.60938 15.2812
Q5.60938 16.1094 6.14062 16.6875
Q6.6875 17.2812 7.51562 17.2812
L70.3125 17.2812
Q71.0469 17.2812 71.5781 16.6875
Q72.125 16.1094 72.125 15.2812
Q72.125 14.5469 71.5781 13.9062
Q71.0469 13.2812 70.3125 13.2812
z

M7.51562 32.7188
Q6.6875 32.7188 6.14062 33.2969
Q5.60938 33.8906 5.60938 34.7188
Q5.60938 35.4531 6.14062 36.0781
Q6.6875 36.7188 7.51562 36.7188
L70.3125 36.7188
Q71.0469 36.7188 71.5781 36.0781
Q72.125 35.4531 72.125 34.7188
Q72.125 33.8906 71.5781 33.2969
Q71.0469 32.7188 70.3125 32.7188
z
" id="Cmr10-3d"/>
    </defs>
    <g transform="translate(854.69 86.98)scale(0.22 -0.22)">
     <use transform="translate(0.0 0.390625)" xlink:href="#Cmmi10-70"/>
     <use transform="translate(67.8515625 0.390625)" xlink:href="#Cmr10-3d"/>
     <use transform="translate(151.91015625 0.390625)" xlink:href="#Cmr10-30"/>
     <use transform="translate(201.91015625 0.390625)" xlink:href="#Cmmi10-3a"/>
     <use transform="translate(230.453125 0.390625)" xlink:href="#Cmr10-35"/>
    </g>
   </g>
  </g>
  <g id="axes_2">
   <g id="patch_7">
    <path d="
M216 568.112
L1555.2 568.112
L1555.2 351.688
L216 351.688
z
" style="fill:#ffffff;"/>
   </g>
   <g id="line2d_36">
    <path clip-path="url(#p611839777d)" d="
M216 437.392
L224.035 432.198
L230.731 436.526
L233.41 434.795
L258.854 451.243
L265.55 446.915
L289.656 462.497
L290.995 461.631
L296.352 465.094
L297.691 464.228
L300.37 465.96
L324.475 450.377
L372.686 481.542
L412.862 455.572
L422.237 461.631
L428.933 457.303
L430.272 458.169
L442.325 450.377
L454.378 458.169
L477.144 443.452
L482.501 446.915
L510.624 428.735
L526.694 439.123
L536.069 433.063
L585.619 465.094
L588.298 463.363
L641.866 497.991
L645.883 495.393
L659.275 504.05
L684.72 487.602
L731.592 517.902
L738.288 513.573
L747.662 519.633
L757.037 513.573
L758.376 514.439
L767.75 508.379
L775.786 513.573
L795.874 500.588
L840.067 529.156
L850.781 522.23
L852.12 523.096
L904.349 489.334
L911.045 493.662
L923.098 485.871
L927.115 488.468
L936.49 482.408
L937.829 483.274
L987.379 451.243
L1023.54 474.617
L1024.88 473.751
L1038.27 482.408
L1042.29 479.811
L1067.73 496.259
L1071.75 493.662
L1073.09 494.528
L1075.77 492.796
L1107.91 513.573
L1144.07 490.199
L1161.48 501.453
L1165.49 498.856
L1200.31 521.364
L1204.33 518.767
L1243.17 543.872
L1244.51 543.007
L1251.2 547.335
L1253.88 545.604
L1267.27 554.261
L1279.32 546.469
L1290.04 553.395
L1312.8 538.678
L1327.54 548.201
L1338.25 541.275
L1342.27 543.872
L1354.32 536.081
L1359.68 539.544
L1369.05 533.484
L1374.41 536.947
L1389.14 527.424
L1394.5 530.887
L1403.87 524.827
L1407.89 527.424
L1409.23 526.558
L1417.26 531.753
L1436.01 519.633
L1448.06 527.424
L1464.13 517.036
L1489.58 533.484
L1494.94 530.021
L1524.4 549.066
L1543.15 536.947
L1547.16 539.544
L1553.86 535.215
L1553.86 535.215" style="fill:none;stroke:#0000ff;stroke-linecap:square;stroke-width:2.0;"/>
   </g>
   <g id="line2d_37">
    <path clip-path="url(#p611839777d)" d="
M216 437.392
L237.427 423.541
L252.158 433.063
L253.498 432.198
L261.533 437.392
L269.568 432.198
L290.995 446.049
L304.387 437.392
L352.598 468.557
L382.061 449.512
L399.47 460.766
L406.166 456.437
L416.88 463.363
L423.576 459.034
L435.629 466.826
L442.325 462.497
L451.699 468.557
L453.038 467.691
L454.378 468.557
L459.734 465.094
L462.413 466.826
L463.752 465.96
L536.069 512.707
L537.408 511.842
L538.747 512.707
L568.21 493.662
L578.923 500.588
L581.602 498.856
L585.619 501.453
L589.637 498.856
L593.654 501.453
L594.994 500.588
L600.35 504.05
L613.742 495.393
L628.474 504.916
L633.83 501.453
L637.848 504.05
L655.258 492.796
L674.006 504.916
L683.381 498.856
L690.077 503.185
L698.112 497.991
L711.504 506.647
L723.557 498.856
L732.931 504.916
L763.733 485.005
L766.411 486.737
L785.16 474.617
L787.838 476.348
L798.552 469.423
L799.891 470.288
L817.301 459.034
L819.979 460.766
L837.389 449.512
L864.173 466.826
L893.635 447.78
L897.653 450.377
L900.331 448.646
L907.027 452.974
L908.366 452.109
L917.741 458.169
L927.115 452.109
L951.221 467.691
L968.63 456.437
L969.97 457.303
L992.736 442.586
L1014.16 456.437
L1026.22 448.646
L1071.75 478.08
L1074.43 476.348
L1109.25 498.856
L1111.92 497.125
L1114.6 498.856
L1148.08 477.214
L1150.76 478.945
L1164.15 470.288
L1173.53 476.348
L1184.24 469.423
L1207.01 484.139
L1217.72 477.214
L1225.76 482.408
L1240.49 472.885
L1247.18 477.214
L1256.56 471.154
L1257.9 472.02
L1267.27 465.96
L1284.68 477.214
L1288.7 474.617
L1302.09 483.274
L1304.77 481.542
L1336.91 502.319
L1340.93 499.722
L1348.96 504.916
L1350.3 504.05
L1352.98 505.782
L1371.73 493.662
L1397.17 510.11
L1411.91 500.588
L1413.24 501.453
L1448.06 478.945
L1449.4 479.811
L1454.76 476.348
L1465.47 483.274
L1493.6 465.094
L1509.67 475.482
L1544.49 452.974
L1553.86 459.034
L1553.86 459.034" style="fill:none;stroke:#008000;stroke-linecap:square;stroke-width:2.0;"/>
   </g>
   <g id="line2d_38">
    <path clip-path="url(#p611839777d)" d="
M216 439.123
L226.714 446.049
L238.766 438.258
L248.141 444.318
L262.872 434.795
L276.264 443.452
L281.621 439.989
L289.656 445.183
L300.37 438.258
L332.51 459.034
L343.224 452.109
L345.902 453.84
L349.92 451.243
L353.938 453.84
L359.294 450.377
L364.651 453.84
L380.722 443.452
L384.739 446.049
L414.202 427.004
L418.219 429.601
L422.237 427.004
L430.272 432.198
L450.36 419.212
L465.091 428.735
L486.518 414.884
L517.32 434.795
L519.998 433.063
L550.8 452.974
L566.87 442.586
L611.064 471.154
L639.187 452.974
L674.006 475.482
L688.738 465.96
L690.077 466.826
L698.112 461.631
L707.486 467.691
L715.522 462.497
L732.931 473.751
L739.627 469.423
L750.341 476.348
L754.358 473.751
L762.394 478.945
L763.733 478.08
L798.552 500.588
L802.57 497.991
L811.944 504.05
L819.979 498.856
L822.658 500.588
L832.032 494.528
L888.278 530.887
L908.366 517.902
L915.062 522.23
L935.15 509.245
L944.525 515.304
L949.882 511.842
L953.899 514.439
L1027.56 466.826
L1030.23 468.557
L1054.34 452.974
L1055.68 453.84
L1066.39 446.915
L1081.12 456.437
L1083.8 454.706
L1086.48 456.437
L1103.89 445.183
L1110.59 449.512
L1118.62 444.318
L1145.4 461.631
L1170.85 445.183
L1172.19 446.049
L1193.62 432.198
L1200.31 436.526
L1212.36 428.735
L1217.72 432.198
L1228.44 425.272
L1237.81 431.332
L1245.84 426.138
L1251.2 429.601
L1280.66 410.555
L1298.07 421.809
L1342.27 393.242
L1347.62 396.704
L1359.68 388.913
L1373.07 397.57
L1389.14 387.182
L1395.84 391.51
L1413.24 380.256
L1434.67 394.107
L1437.35 392.376
L1441.37 394.973
L1454.76 386.316
L1476.19 400.167
L1480.2 397.57
L1519.04 422.675
L1520.38 421.809
L1543.15 436.526
L1547.16 433.929
L1552.52 437.392
L1553.86 436.526
L1553.86 436.526" style="fill:none;stroke:#ff0000;stroke-linecap:square;stroke-width:2.0;"/>
   </g>
   <g id="matplotlib.axis_3">
    <g id="xtick_7">
     <g id="line2d_39">
      <g>
       <use style="stroke:#000000;stroke-width:0.5;" x="216.0" xlink:href="#m93b0483c22" y="568.111764706"/>
      </g>
     </g>
     <g id="line2d_40">
      <g>
       <use style="stroke:#000000;stroke-width:0.5;" x="216.0" xlink:href="#m741efc42ff" y="351.688235294"/>
      </g>
     </g>
    </g>
    <g id="xtick_8">
     <g id="line2d_41">
      <g>
       <use style="stroke:#000000;stroke-width:0.5;" x="483.84" xlink:href="#m93b0483c22" y="568.111764706"/>
      </g>
     </g>
     <g id="line2d_42">
      <g>
       <use style="stroke:#000000;stroke-width:0.5;" x="483.84" xlink:href="#m741efc42ff" y="351.688235294"/>
      </g>
     </g>
    </g>
    <g id="xtick_9">
     <g id="line2d_43">
      <g>
       <use style="stroke:#000000;stroke-width:0.5;" x="751.68" xlink:href="#m93b0483c22" y="568.111764706"/>
      </g>
     </g>
     <g id="line2d_44">
      <g>
       <use style="stroke:#000000;stroke-width:0.5;" x="751.68" xlink:href="#m741efc42ff" y="351.688235294"/>
      </g>
     </g>
    </g>
    <g id="xtick_10">
     <g id="line2d_45">
      <g>
       <use style="stroke:#000000;stroke-width:0.5;" x="1019.52" xlink:href="#m93b0483c22" y="568.111764706"/>
      </g>
     </g>
     <g id="line2d_46">
      <g>
       <use style="stroke:#000000;stroke-width:0.5;" x="1019.52" xlink:href="#m741efc42ff" y="351.688235294"/>
      </g>
     </g>
    </g>
    <g id="xtick_11">
     <g id="line2d_47">
      <g>
       <use style="stroke:#000000;stroke-width:0.5;" x="1287.36" xlink:href="#m93b0483c22" y="568.111764706"/>
      </g>
     </g>
     <g id="line2d_48">
      <g>
       <use style="stroke:#000000;stroke-width:0.5;" x="1287.36" xlink:href="#m741efc42ff" y="351.688235294"/>
      </g>
     </g>
    </g>
    <g id="xtick_12">
     <g id="line2d_49">
      <g>
       <use style="stroke:#000000;stroke-width:0.5;" x="1555.2" xlink:href="#m93b0483c22" y="568.111764706"/>
      </g>
     </g>
     <g id="line2d_50">
      <g>
       <use style="stroke:#000000;stroke-width:0.5;" x="1555.2" xlink:href="#m741efc42ff" y="351.688235294"/>
      </g>
     </g>
    </g>
   </g>
   <g id="matplotlib.axis_4">
    <g id="ytick_11">
     <g id="line2d_51">
      <g>
       <use style="stroke:#000000;stroke-width:0.5;" x="216.0" xlink:href="#m728421d6d4" y="568.111764706"/>
      </g>
     </g>
     <g id="line2d_52">
      <g>
       <use style="stroke:#000000;stroke-width:0.5;" x="1555.2" xlink:href="#mcb0005524f" y="568.111764706"/>
      </g>
     </g>
     <g id="text_12">
      <!-- −150 -->
      <g transform="translate(181.1075 571.423014706)scale(0.12 -0.12)">
       <use xlink:href="#DejaVuSans-2212"/>
       <use x="83.7890625" xlink:href="#DejaVuSans-31"/>
       <use x="147.412109375" xlink:href="#DejaVuSans-35"/>
       <use x="211.03515625" xlink:href="#DejaVuSans-30"/>
      </g>
     </g>
    </g>
    <g id="ytick_12">
     <g id="line2d_53">
      <g>
       <use style="stroke:#000000;stroke-width:0.5;" x="216.0" xlink:href="#m728421d6d4" y="524.827058824"/>
      </g>
     </g>
     <g id="line2d_54">
      <g>
       <use style="stroke:#000000;stroke-width:0.5;" x="1555.2" xlink:href="#mcb0005524f" y="524.827058824"/>
      </g>
     </g>
     <g id="text_13">
      <!-- −100 -->
      <g transform="translate(181.1075 528.138308824)scale(0.12 -0.12)">
       <use xlink:href="#DejaVuSans-2212"/>
       <use x="83.7890625" xlink:href="#DejaVuSans-31"/>
       <use x="147.412109375" xlink:href="#DejaVuSans-30"/>
       <use x="211.03515625" xlink:href="#DejaVuSans-30"/>
      </g>
     </g>
    </g>
    <g id="ytick_13">
     <g id="line2d_55">
      <g>
       <use style="stroke:#000000;stroke-width:0.5;" x="216.0" xlink:href="#m728421d6d4" y="481.542352941"/>
      </g>
     </g>
     <g id="line2d_56">
      <g>
       <use style="stroke:#000000;stroke-width:0.5;" x="1555.2" xlink:href="#mcb0005524f" y="481.542352941"/>
      </g>
     </g>
     <g id="text_14">
      <!-- −50 -->
      <g transform="translate(188.7425 484.853602941)scale(0.12 -0.12)">
       <use xlink:href="#DejaVuSans-2212"/>
       <use x="83.7890625" xlink:href="#DejaVuSans-35"/>
       <use x="147.412109375" xlink:href="#DejaVuSans-30"/>
      </g>
     </g>
    </g>
    <g id="ytick_14">
     <g id="line2d_57">
      <g>
       <use style="stroke:#000000;stroke-width:0.5;" x="216.0" xlink:href="#m728421d6d4" y="438.257647059"/>
      </g>
     </g>
     <g id="line2d_58">
      <g>
       <use style="stroke:#000000;stroke-width:0.5;" x="1555.2" xlink:href="#mcb0005524f" y="438.257647059"/>
      </g>
     </g>
     <g id="text_15">
      <!-- 0 -->
      <g transform="translate(205.953125 441.568897059)scale(0.12 -0.12)">
       <use xlink:href="#DejaVuSans-30"/>
      </g>
     </g>
    </g>
    <g id="ytick_15">
     <g id="line2d_59">
      <g>
       <use style="stroke:#000000;stroke-width:0.5;" x="216.0" xlink:href="#m728421d6d4" y="394.972941176"/>
      </g>
     </g>
     <g id="line2d_60">
      <g>
       <use style="stroke:#000000;stroke-width:0.5;" x="1555.2" xlink:href="#mcb0005524f" y="394.972941176"/>
      </g>
     </g>
     <g id="text_16">
      <!-- 50 -->
      <g transform="translate(198.453125 398.284191176)scale(0.12 -0.12)">
       <use xlink:href="#DejaVuSans-35"/>
       <use x="63.623046875" xlink:href="#DejaVuSans-30"/>
      </g>
     </g>
    </g>
    <g id="ytick_16">
     <g id="line2d_61">
      <g>
       <use style="stroke:#000000;stroke-width:0.5;" x="216.0" xlink:href="#m728421d6d4" y="351.688235294"/>
      </g>
     </g>
     <g id="line2d_62">
      <g>
       <use style="stroke:#000000;stroke-width:0.5;" x="1555.2" xlink:href="#mcb0005524f" y="351.688235294"/>
      </g>
     </g>
     <g id="text_17">
      <!-- 100 -->
      <g transform="translate(191.21 354.999485294)scale(0.12 -0.12)">
       <use xlink:href="#DejaVuSans-31"/>
       <use x="63.623046875" xlink:href="#DejaVuSans-30"/>
       <use x="127.24609375" xlink:href="#DejaVuSans-30"/>
      </g>
     </g>
    </g>
    <g id="text_18">
     <!-- Displacement, $X$ -->
     <defs>
      <path d="
M3.60938 0
Q2.59375 0 2.59375 1.3125
Q2.64062 1.5625 2.8125 2.1875
Q2.98438 2.82812 3.25 3.17188
Q3.51562 3.51562 4 3.51562
Q13.0938 3.51562 19.5781 10.2969
Q19.6719 10.4062 19.7969 10.4531
Q19.9219 10.5 19.9219 10.5
L41.7969 34.0781
L29.8906 62.7969
Q28.8594 64.1094 26.5625 64.4531
Q24.2656 64.7969 21.1875 64.7969
Q20.2188 64.7969 20.2188 66.1094
Q20.5625 67.3906 20.75 67.8438
Q20.9531 68.3125 21.9219 68.3125
L46.9219 68.3125
Q47.9062 68.3125 47.9062 67
Q47.8594 66.75 47.6875 66.1094
Q47.5156 65.4844 47.2344 65.1406
Q46.9688 64.7969 46.4844 64.7969
Q44.625 64.7969 42.6406 64.1875
Q40.6719 63.5781 39.8906 62.2031
L48.4844 41.5
L64.8906 59.0781
Q65.0469 59.4219 65.5781 60.2812
Q66.1094 61.1406 66.1094 61.9219
Q66.1094 63.375 64.8438 64.0781
Q63.5781 64.7969 61.8125 64.7969
Q60.7969 64.7969 60.7969 66.1094
Q61.1406 67.3906 61.3281 67.8438
Q61.5312 68.3125 62.5 68.3125
L84.1875 68.3125
Q84.7188 68.3125 84.9531 67.9219
Q85.2031 67.5312 85.2031 67
Q85.1562 66.75 85 66.1562
Q84.8594 65.5781 84.6094 65.1875
Q84.375 64.7969 83.8906 64.7969
Q79.25 64.7969 75.3594 63.1094
Q71.4844 61.4219 68.2188 58.0156
Q68.1719 57.9531 68.0938 57.9219
Q68.0156 57.9062 67.9219 57.8125
L49.8125 38.2812
L63.4844 5.51562
Q65.0938 3.51562 72.2188 3.51562
Q73.1875 3.51562 73.1875 2.20312
Q72.8594 0.875 72.625 0.4375
Q72.4062 0 71.4844 0
L46.4844 0
Q45.5156 0 45.5156 1.3125
Q45.5625 1.5625 45.7031 2.17188
Q45.8438 2.78125 46.1094 3.14062
Q46.3906 3.51562 46.7812 3.51562
Q48.7344 3.51562 50.7344 4.125
Q52.7344 4.73438 53.5156 6.10938
L43.1094 31
L22.9062 9.1875
Q22.75 8.84375 22.2188 8
Q21.6875 7.17188 21.6875 6.39062
Q21.6875 4.9375 23.0469 4.21875
Q24.4219 3.51562 25.9844 3.51562
Q27 3.51562 27 2.20312
Q26.6562 0.78125 26.4531 0.390625
Q26.2656 0 25.2969 0
z
" id="Cmmi10-58"/>
      <path d="
M11.7188 12.4062
L22.0156 12.4062
L22.0156 4
L14.0156 -11.625
L7.71875 -11.625
L11.7188 4
z
" id="DejaVuSans-2c"/>
      <path d="
M52 44.1875
Q55.375 50.25 60.0625 53.125
Q64.75 56 71.0938 56
Q79.6406 56 84.2812 50.0156
Q88.9219 44.0469 88.9219 33.0156
L88.9219 0
L79.8906 0
L79.8906 32.7188
Q79.8906 40.5781 77.0938 44.375
Q74.3125 48.1875 68.6094 48.1875
Q61.625 48.1875 57.5625 43.5469
Q53.5156 38.9219 53.5156 30.9062
L53.5156 0
L44.4844 0
L44.4844 32.7188
Q44.4844 40.625 41.7031 44.4062
Q38.9219 48.1875 33.1094 48.1875
Q26.2188 48.1875 22.1562 43.5312
Q18.1094 38.875 18.1094 30.9062
L18.1094 0
L9.07812 0
L9.07812 54.6875
L18.1094 54.6875
L18.1094 46.1875
Q21.1875 51.2188 25.4844 53.6094
Q29.7812 56 35.6875 56
Q41.6562 56 45.8281 52.9688
Q50 49.9531 52 44.1875" id="DejaVuSans-6d"/>
      <path d="
M54.8906 33.0156
L54.8906 0
L45.9062 0
L45.9062 32.7188
Q45.9062 40.4844 42.875 44.3281
Q39.8438 48.1875 33.7969 48.1875
Q26.5156 48.1875 22.3125 43.5469
Q18.1094 38.9219 18.1094 30.9062
L18.1094 0
L9.07812 0
L9.07812 54.6875
L18.1094 54.6875
L18.1094 46.1875
Q21.3438 51.125 25.7031 53.5625
Q30.0781 56 35.7969 56
Q45.2188 56 50.0469 50.1719
Q54.8906 44.3438 54.8906 33.0156" id="DejaVuSans-6e"/>
      <path d="
M9.42188 75.9844
L18.4062 75.9844
L18.4062 0
L9.42188 0
z
" id="DejaVuSans-6c"/>
      <path d="
M48.7812 52.5938
L48.7812 44.1875
Q44.9688 46.2969 41.1406 47.3438
Q37.3125 48.3906 33.4062 48.3906
Q24.6562 48.3906 19.8125 42.8438
Q14.9844 37.3125 14.9844 27.2969
Q14.9844 17.2812 19.8125 11.7344
Q24.6562 6.20312 33.4062 6.20312
Q37.3125 6.20312 41.1406 7.25
Q44.9688 8.29688 48.7812 10.4062
L48.7812 2.09375
Q45.0156 0.34375 40.9844 -0.53125
Q36.9688 -1.42188 32.4219 -1.42188
Q20.0625 -1.42188 12.7812 6.34375
Q5.51562 14.1094 5.51562 27.2969
Q5.51562 40.6719 12.8594 48.3281
Q20.2188 56 33.0156 56
Q37.1562 56 41.1094 55.1406
Q45.0625 54.2969 48.7812 52.5938" id="DejaVuSans-63"/>
      <path d="
M19.6719 64.7969
L19.6719 8.10938
L31.5938 8.10938
Q46.6875 8.10938 53.6875 14.9375
Q60.6875 21.7812 60.6875 36.5312
Q60.6875 51.1719 53.6875 57.9844
Q46.6875 64.7969 31.5938 64.7969
z

M9.8125 72.9062
L30.0781 72.9062
Q51.2656 72.9062 61.1719 64.0938
Q71.0938 55.2812 71.0938 36.5312
Q71.0938 17.6719 61.125 8.82812
Q51.1719 0 30.0781 0
L9.8125 0
z
" id="DejaVuSans-44"/>
      <path id="DejaVuSans-20"/>
      <path d="
M9.42188 54.6875
L18.4062 54.6875
L18.4062 0
L9.42188 0
z

M9.42188 75.9844
L18.4062 75.9844
L18.4062 64.5938
L9.42188 64.5938
z
" id="DejaVuSans-69"/>
      <path d="
M18.3125 70.2188
L18.3125 54.6875
L36.8125 54.6875
L36.8125 47.7031
L18.3125 47.7031
L18.3125 18.0156
Q18.3125 11.3281 20.1406 9.42188
Q21.9688 7.51562 27.5938 7.51562
L36.8125 7.51562
L36.8125 0
L27.5938 0
Q17.1875 0 13.2344 3.875
Q9.28125 7.76562 9.28125 18.0156
L9.28125 47.7031
L2.6875 47.7031
L2.6875 54.6875
L9.28125 54.6875
L9.28125 70.2188
z
" id="DejaVuSans-74"/>
      <path d="
M56.2031 29.5938
L56.2031 25.2031
L14.8906 25.2031
Q15.4844 15.9219 20.4844 11.0625
Q25.4844 6.20312 34.4219 6.20312
Q39.5938 6.20312 44.4531 7.46875
Q49.3125 8.73438 54.1094 11.2812
L54.1094 2.78125
Q49.2656 0.734375 44.1875 -0.34375
Q39.1094 -1.42188 33.8906 -1.42188
Q20.7969 -1.42188 13.1562 6.1875
Q5.51562 13.8125 5.51562 26.8125
Q5.51562 40.2344 12.7656 48.1094
Q20.0156 56 32.3281 56
Q43.3594 56 49.7812 48.8906
Q56.2031 41.7969 56.2031 29.5938
M47.2188 32.2344
Q47.125 39.5938 43.0938 43.9844
Q39.0625 48.3906 32.4219 48.3906
Q24.9062 48.3906 20.3906 44.1406
Q15.875 39.8906 15.1875 32.1719
z
" id="DejaVuSans-65"/>
      <path d="
M18.1094 8.20312
L18.1094 -20.7969
L9.07812 -20.7969
L9.07812 54.6875
L18.1094 54.6875
L18.1094 46.3906
Q20.9531 51.2656 25.2656 53.625
Q29.5938 56 35.5938 56
Q45.5625 56 51.7812 48.0938
Q58.0156 40.1875 58.0156 27.2969
Q58.0156 14.4062 51.7812 6.48438
Q45.5625 -1.42188 35.5938 -1.42188
Q29.5938 -1.42188 25.2656 0.953125
Q20.9531 3.32812 18.1094 8.20312
M48.6875 27.2969
Q48.6875 37.2031 44.6094 42.8438
Q40.5312 48.4844 33.4062 48.4844
Q26.2656 48.4844 22.1875 42.8438
Q18.1094 37.2031 18.1094 27.2969
Q18.1094 17.3906 22.1875 11.75
Q26.2656 6.10938 33.4062 6.10938
Q40.5312 6.10938 44.6094 11.75
Q48.6875 17.3906 48.6875 27.2969" id="DejaVuSans-70"/>
      <path d="
M44.2812 53.0781
L44.2812 44.5781
Q40.4844 46.5312 36.375 47.5
Q32.2812 48.4844 27.875 48.4844
Q21.1875 48.4844 17.8438 46.4375
Q14.5 44.3906 14.5 40.2812
Q14.5 37.1562 16.8906 35.375
Q19.2812 33.5938 26.5156 31.9844
L29.5938 31.2969
Q39.1562 29.25 43.1875 25.5156
Q47.2188 21.7812 47.2188 15.0938
Q47.2188 7.46875 41.1875 3.01562
Q35.1562 -1.42188 24.6094 -1.42188
Q20.2188 -1.42188 15.4531 -0.5625
Q10.6875 0.296875 5.42188 2
L5.42188 11.2812
Q10.4062 8.6875 15.2344 7.39062
Q20.0625 6.10938 24.8125 6.10938
Q31.1562 6.10938 34.5625 8.28125
Q37.9844 10.4531 37.9844 14.4062
Q37.9844 18.0625 35.5156 20.0156
Q33.0625 21.9688 24.7031 23.7812
L21.5781 24.5156
Q13.2344 26.2656 9.51562 29.9062
Q5.8125 33.5469 5.8125 39.8906
Q5.8125 47.6094 11.2812 51.7969
Q16.75 56 26.8125 56
Q31.7812 56 36.1719 55.2656
Q40.5781 54.5469 44.2812 53.0781" id="DejaVuSans-73"/>
      <path d="
M34.2812 27.4844
Q23.3906 27.4844 19.1875 25
Q14.9844 22.5156 14.9844 16.5
Q14.9844 11.7188 18.1406 8.90625
Q21.2969 6.10938 26.7031 6.10938
Q34.1875 6.10938 38.7031 11.4062
Q43.2188 16.7031 43.2188 25.4844
L43.2188 27.4844
z

M52.2031 31.2031
L52.2031 0
L43.2188 0
L43.2188 8.29688
Q40.1406 3.32812 35.5469 0.953125
Q30.9531 -1.42188 24.3125 -1.42188
Q15.9219 -1.42188 10.9531 3.29688
Q6 8.01562 6 15.9219
Q6 25.1406 12.1719 29.8281
Q18.3594 34.5156 30.6094 34.5156
L43.2188 34.5156
L43.2188 35.4062
Q43.2188 41.6094 39.1406 45
Q35.0625 48.3906 27.6875 48.3906
Q23 48.3906 18.5469 47.2656
Q14.1094 46.1406 10.0156 43.8906
L10.0156 52.2031
Q14.9375 54.1094 19.5781 55.0469
Q24.2188 56 28.6094 56
Q40.4844 56 46.3438 49.8438
Q52.2031 43.7031 52.2031 31.2031" id="DejaVuSans-61"/>
     </defs>
     <g transform="translate(172.3275 534.96)rotate(-90.0)scale(0.18 -0.18)">
      <use transform="translate(0.0 0.015625)" xlink:href="#DejaVuSans-44"/>
      <use transform="translate(77.001953125 0.015625)" xlink:href="#DejaVuSans-69"/>
      <use transform="translate(104.78515625 0.015625)" xlink:href="#DejaVuSans-73"/>
      <use transform="translate(156.884765625 0.015625)" xlink:href="#DejaVuSans-70"/>
      <use transform="translate(220.361328125 0.015625)" xlink:href="#DejaVuSans-6c"/>
      <use transform="translate(248.14453125 0.015625)" xlink:href="#DejaVuSans-61"/>
      <use transform="translate(309.423828125 0.015625)" xlink:href="#DejaVuSans-63"/>
      <use transform="translate(364.404296875 0.015625)" xlink:href="#DejaVuSans-65"/>
      <use transform="translate(425.927734375 0.015625)" xlink:href="#DejaVuSans-6d"/>
      <use transform="translate(523.33984375 0.015625)" xlink:href="#DejaVuSans-65"/>
      <use transform="translate(584.86328125 0.015625)" xlink:href="#DejaVuSans-6e"/>
      <use transform="translate(648.2421875 0.015625)" xlink:href="#DejaVuSans-74"/>
      <use transform="translate(687.451171875 0.015625)" xlink:href="#DejaVuSans-2c"/>
      <use transform="translate(719.23828125 0.015625)" xlink:href="#DejaVuSans-20"/>
      <use transform="translate(751.025390625 0.015625)" xlink:href="#Cmmi10-58"/>
     </g>
    </g>
   </g>
   <g id="patch_8">
    <path d="
M216 351.688
L1555.2 351.688" style="fill:none;stroke:#000000;"/>
   </g>
   <g id="patch_9">
    <path d="
M1555.2 568.112
L1555.2 351.688" style="fill:none;stroke:#000000;"/>
   </g>
   <g id="patch_10">
    <path d="
M216 568.112
L1555.2 568.112" style="fill:none;stroke:#000000;"/>
   </g>
   <g id="patch_11">
    <path d="
M216 568.112
L216 351.688" style="fill:none;stroke:#000000;"/>
   </g>
   <g id="text_19">
    <!-- $p=0.1$ -->
    <defs>
     <path d="
M9.28125 0
L9.28125 3.51562
Q21.7812 3.51562 21.7812 6.6875
L21.7812 59.1875
Q16.6094 56.6875 8.6875 56.6875
L8.6875 60.2031
Q20.9531 60.2031 27.2031 66.6094
L28.6094 66.6094
Q28.9531 66.6094 29.2656 66.3281
Q29.5938 66.0625 29.5938 65.7188
L29.5938 6.6875
Q29.5938 3.51562 42.0938 3.51562
L42.0938 0
z
" id="Cmr10-31"/>
    </defs>
    <g transform="translate(854.69 346.688235294)scale(0.22 -0.22)">
     <use transform="translate(0.0 0.390625)" xlink:href="#Cmmi10-70"/>
     <use transform="translate(67.8515625 0.390625)" xlink:href="#Cmr10-3d"/>
     <use transform="translate(151.91015625 0.390625)" xlink:href="#Cmr10-30"/>
     <use transform="translate(201.91015625 0.390625)" xlink:href="#Cmmi10-3a"/>
     <use transform="translate(230.453125 0.390625)" xlink:href="#Cmr10-31"/>
    </g>
   </g>
  </g>
  <g id="axes_3">
   <g id="patch_12">
    <path d="
M216 827.82
L1555.2 827.82
L1555.2 611.396
L216 611.396
z
" style="fill:#ffffff;"/>
   </g>
   <g id="line2d_63">
    <path clip-path="url(#p7bbaac4644)" d="
M216 741.034
L371.347 715.929
L648.562 760.729
L724.896 748.393
L763.733 754.669
L819.979 745.579
L1217.72 809.857
L1406.55 779.341
L1450.74 786.483
L1486.9 780.64
L1500.29 782.804
L1553.86 774.147
L1553.86 774.147" style="fill:none;stroke:#0000ff;stroke-linecap:square;stroke-width:2.0;"/>
   </g>
   <g id="line2d_64">
    <path clip-path="url(#p7bbaac4644)" d="
M216 741.034
L248.141 735.84
L304.387 744.93
L773.107 669.182
L937.829 695.802
L959.256 692.339
L973.987 694.72
L1047.64 682.816
L1087.82 689.309
L1136.03 681.518
L1138.71 681.951
L1290.04 657.495
L1340.93 665.719
L1553.86 631.307
L1553.86 631.307" style="fill:none;stroke:#008000;stroke-linecap:square;stroke-width:2.0;"/>
   </g>
   <g id="line2d_65">
    <path clip-path="url(#p7bbaac4644)" d="
M216 741.034
L233.41 738.221
L343.224 755.967
L418.219 743.848
L661.954 783.237
L710.165 775.446
L928.454 810.723
L999.432 799.252
L1027.56 803.797
L1472.17 731.944
L1548.5 744.281
L1553.86 743.415
L1553.86 743.415" style="fill:none;stroke:#ff0000;stroke-linecap:square;stroke-width:2.0;"/>
   </g>
   <g id="matplotlib.axis_5">
    <g id="xtick_13">
     <g id="line2d_66">
      <g>
       <use style="stroke:#000000;stroke-width:0.5;" x="216.0" xlink:href="#m93b0483c22" y="827.82"/>
      </g>
     </g>
     <g id="line2d_67">
      <g>
       <use style="stroke:#000000;stroke-width:0.5;" x="216.0" xlink:href="#m741efc42ff" y="611.396470588"/>
      </g>
     </g>
     <g id="text_20">
      <!-- 0 -->
      <g transform="translate(212.9765625 840.938125)scale(0.12 -0.12)">
       <use xlink:href="#DejaVuSans-30"/>
      </g>
     </g>
    </g>
    <g id="xtick_14">
     <g id="line2d_68">
      <g>
       <use style="stroke:#000000;stroke-width:0.5;" x="483.84" xlink:href="#m93b0483c22" y="827.82"/>
      </g>
     </g>
     <g id="line2d_69">
      <g>
       <use style="stroke:#000000;stroke-width:0.5;" x="483.84" xlink:href="#m741efc42ff" y="611.396470588"/>
      </g>
     </g>
     <g id="text_21">
      <!-- 200 -->
      <g transform="translate(473.225625 840.938125)scale(0.12 -0.12)">
       <use xlink:href="#DejaVuSans-32"/>
       <use x="63.623046875" xlink:href="#DejaVuSans-30"/>
       <use x="127.24609375" xlink:href="#DejaVuSans-30"/>
      </g>
     </g>
    </g>
    <g id="xtick_15">
     <g id="line2d_70">
      <g>
       <use style="stroke:#000000;stroke-width:0.5;" x="751.68" xlink:href="#m93b0483c22" y="827.82"/>
      </g>
     </g>
     <g id="line2d_71">
      <g>
       <use style="stroke:#000000;stroke-width:0.5;" x="751.68" xlink:href="#m741efc42ff" y="611.396470588"/>
      </g>
     </g>
     <g id="text_22">
      <!-- 400 -->
      <g transform="translate(740.919375 840.938125)scale(0.12 -0.12)">
       <use xlink:href="#DejaVuSans-34"/>
       <use x="63.623046875" xlink:href="#DejaVuSans-30"/>
       <use x="127.24609375" xlink:href="#DejaVuSans-30"/>
      </g>
     </g>
    </g>
    <g id="xtick_16">
     <g id="line2d_72">
      <g>
       <use style="stroke:#000000;stroke-width:0.5;" x="1019.52" xlink:href="#m93b0483c22" y="827.82"/>
      </g>
     </g>
     <g id="line2d_73">
      <g>
       <use style="stroke:#000000;stroke-width:0.5;" x="1019.52" xlink:href="#m741efc42ff" y="611.396470588"/>
      </g>
     </g>
     <g id="text_23">
      <!-- 600 -->
      <g transform="translate(1008.885 840.938125)scale(0.12 -0.12)">
       <use xlink:href="#DejaVuSans-36"/>
       <use x="63.623046875" xlink:href="#DejaVuSans-30"/>
       <use x="127.24609375" xlink:href="#DejaVuSans-30"/>
      </g>
     </g>
    </g>
    <g id="xtick_17">
     <g id="line2d_74">
      <g>
       <use style="stroke:#000000;stroke-width:0.5;" x="1287.36" xlink:href="#m93b0483c22" y="827.82"/>
      </g>
     </g>
     <g id="line2d_75">
      <g>
       <use style="stroke:#000000;stroke-width:0.5;" x="1287.36" xlink:href="#m741efc42ff" y="611.396470588"/>
      </g>
     </g>
     <g id="text_24">
      <!-- 800 -->
      <defs>
       <path d="
M31.7812 34.625
Q24.75 34.625 20.7188 30.8594
Q16.7031 27.0938 16.7031 20.5156
Q16.7031 13.9219 20.7188 10.1562
Q24.75 6.39062 31.7812 6.39062
Q38.8125 6.39062 42.8594 10.1719
Q46.9219 13.9688 46.9219 20.5156
Q46.9219 27.0938 42.8906 30.8594
Q38.875 34.625 31.7812 34.625
M21.9219 38.8125
Q15.5781 40.375 12.0312 44.7188
Q8.5 49.0781 8.5 55.3281
Q8.5 64.0625 14.7188 69.1406
Q20.9531 74.2188 31.7812 74.2188
Q42.6719 74.2188 48.875 69.1406
Q55.0781 64.0625 55.0781 55.3281
Q55.0781 49.0781 51.5312 44.7188
Q48 40.375 41.7031 38.8125
Q48.8281 37.1562 52.7969 32.3125
Q56.7812 27.4844 56.7812 20.5156
Q56.7812 9.90625 50.3125 4.23438
Q43.8438 -1.42188 31.7812 -1.42188
Q19.7344 -1.42188 13.25 4.23438
Q6.78125 9.90625 6.78125 20.5156
Q6.78125 27.4844 10.7812 32.3125
Q14.7969 37.1562 21.9219 38.8125
M18.3125 54.3906
Q18.3125 48.7344 21.8438 45.5625
Q25.3906 42.3906 31.7812 42.3906
Q38.1406 42.3906 41.7188 45.5625
Q45.3125 48.7344 45.3125 54.3906
Q45.3125 60.0625 41.7188 63.2344
Q38.1406 66.4062 31.7812 66.4062
Q25.3906 66.4062 21.8438 63.2344
Q18.3125 60.0625 18.3125 54.3906" id="DejaVuSans-38"/>
      </defs>
      <g transform="translate(1276.7128125 840.938125)scale(0.12 -0.12)">
       <use xlink:href="#DejaVuSans-38"/>
       <use x="63.623046875" xlink:href="#DejaVuSans-30"/>
       <use x="127.24609375" xlink:href="#DejaVuSans-30"/>
      </g>
     </g>
    </g>
    <g id="xtick_18">
     <g id="line2d_76">
      <g>
       <use style="stroke:#000000;stroke-width:0.5;" x="1555.2" xlink:href="#m93b0483c22" y="827.82"/>
      </g>
     </g>
     <g id="line2d_77">
      <g>
       <use style="stroke:#000000;stroke-width:0.5;" x="1555.2" xlink:href="#m741efc42ff" y="611.396470588"/>
      </g>
     </g>
     <g id="text_25">
      <!-- 1000 -->
      <g transform="translate(1540.9875 840.938125)scale(0.12 -0.12)">
       <use xlink:href="#DejaVuSans-31"/>
       <use x="63.623046875" xlink:href="#DejaVuSans-30"/>
       <use x="127.24609375" xlink:href="#DejaVuSans-30"/>
       <use x="190.869140625" xlink:href="#DejaVuSans-30"/>
      </g>
     </g>
    </g>
    <g id="text_26">
     <!-- Number of steps taken -->
     <defs>
      <path d="
M9.8125 72.9062
L23.0938 72.9062
L55.4219 11.9219
L55.4219 72.9062
L64.9844 72.9062
L64.9844 0
L51.7031 0
L19.3906 60.9844
L19.3906 0
L9.8125 0
z
" id="DejaVuSans-4e"/>
      <path d="
M30.6094 48.3906
Q23.3906 48.3906 19.1875 42.75
Q14.9844 37.1094 14.9844 27.2969
Q14.9844 17.4844 19.1562 11.8438
Q23.3438 6.20312 30.6094 6.20312
Q37.7969 6.20312 41.9844 11.8594
Q46.1875 17.5312 46.1875 27.2969
Q46.1875 37.0156 41.9844 42.7031
Q37.7969 48.3906 30.6094 48.3906
M30.6094 56
Q42.3281 56 49.0156 48.375
Q55.7188 40.7656 55.7188 27.2969
Q55.7188 13.875 49.0156 6.21875
Q42.3281 -1.42188 30.6094 -1.42188
Q18.8438 -1.42188 12.1719 6.21875
Q5.51562 13.875 5.51562 27.2969
Q5.51562 40.7656 12.1719 48.375
Q18.8438 56 30.6094 56" id="DejaVuSans-6f"/>
      <path d="
M9.07812 75.9844
L18.1094 75.9844
L18.1094 31.1094
L44.9219 54.6875
L56.3906 54.6875
L27.3906 29.1094
L57.625 0
L45.9062 0
L18.1094 26.7031
L18.1094 0
L9.07812 0
z
" id="DejaVuSans-6b"/>
      <path d="
M37.1094 75.9844
L37.1094 68.5
L28.5156 68.5
Q23.6875 68.5 21.7969 66.5469
Q19.9219 64.5938 19.9219 59.5156
L19.9219 54.6875
L34.7188 54.6875
L34.7188 47.7031
L19.9219 47.7031
L19.9219 0
L10.8906 0
L10.8906 47.7031
L2.29688 47.7031
L2.29688 54.6875
L10.8906 54.6875
L10.8906 58.5
Q10.8906 67.625 15.1406 71.7969
Q19.3906 75.9844 28.6094 75.9844
z
" id="DejaVuSans-66"/>
      <path d="
M8.5 21.5781
L8.5 54.6875
L17.4844 54.6875
L17.4844 21.9219
Q17.4844 14.1562 20.5 10.2656
Q23.5312 6.39062 29.5938 6.39062
Q36.8594 6.39062 41.0781 11.0312
Q45.3125 15.6719 45.3125 23.6875
L45.3125 54.6875
L54.2969 54.6875
L54.2969 0
L45.3125 0
L45.3125 8.40625
Q42.0469 3.42188 37.7188 1
Q33.4062 -1.42188 27.6875 -1.42188
Q18.2656 -1.42188 13.375 4.4375
Q8.5 10.2969 8.5 21.5781
M31.1094 56
z
" id="DejaVuSans-75"/>
      <path d="
M48.6875 27.2969
Q48.6875 37.2031 44.6094 42.8438
Q40.5312 48.4844 33.4062 48.4844
Q26.2656 48.4844 22.1875 42.8438
Q18.1094 37.2031 18.1094 27.2969
Q18.1094 17.3906 22.1875 11.75
Q26.2656 6.10938 33.4062 6.10938
Q40.5312 6.10938 44.6094 11.75
Q48.6875 17.3906 48.6875 27.2969
M18.1094 46.3906
Q20.9531 51.2656 25.2656 53.625
Q29.5938 56 35.5938 56
Q45.5625 56 51.7812 48.0938
Q58.0156 40.1875 58.0156 27.2969
Q58.0156 14.4062 51.7812 6.48438
Q45.5625 -1.42188 35.5938 -1.42188
Q29.5938 -1.42188 25.2656 0.953125
Q20.9531 3.32812 18.1094 8.20312
L18.1094 0
L9.07812 0
L9.07812 75.9844
L18.1094 75.9844
z
" id="DejaVuSans-62"/>
      <path d="
M41.1094 46.2969
Q39.5938 47.1719 37.8125 47.5781
Q36.0312 48 33.8906 48
Q26.2656 48 22.1875 43.0469
Q18.1094 38.0938 18.1094 28.8125
L18.1094 0
L9.07812 0
L9.07812 54.6875
L18.1094 54.6875
L18.1094 46.1875
Q20.9531 51.1719 25.4844 53.5781
Q30.0312 56 36.5312 56
Q37.4531 56 38.5781 55.875
Q39.7031 55.7656 41.0625 55.5156
z
" id="DejaVuSans-72"/>
     </defs>
     <g transform="translate(783.62578125 862.1109375)scale(0.18 -0.18)">
      <use xlink:href="#DejaVuSans-4e"/>
      <use x="74.8046875" xlink:href="#DejaVuSans-75"/>
      <use x="138.18359375" xlink:href="#DejaVuSans-6d"/>
      <use x="235.595703125" xlink:href="#DejaVuSans-62"/>
      <use x="299.072265625" xlink:href="#DejaVuSans-65"/>
      <use x="360.595703125" xlink:href="#DejaVuSans-72"/>
      <use x="401.708984375" xlink:href="#DejaVuSans-20"/>
      <use x="433.49609375" xlink:href="#DejaVuSans-6f"/>
      <use x="494.677734375" xlink:href="#DejaVuSans-66"/>
      <use x="529.8828125" xlink:href="#DejaVuSans-20"/>
      <use x="561.669921875" xlink:href="#DejaVuSans-73"/>
      <use x="613.76953125" xlink:href="#DejaVuSans-74"/>
      <use x="652.978515625" xlink:href="#DejaVuSans-65"/>
      <use x="714.501953125" xlink:href="#DejaVuSans-70"/>
      <use x="777.978515625" xlink:href="#DejaVuSans-73"/>
      <use x="830.078125" xlink:href="#DejaVuSans-20"/>
      <use x="861.865234375" xlink:href="#DejaVuSans-74"/>
      <use x="901.07421875" xlink:href="#DejaVuSans-61"/>
      <use x="962.353515625" xlink:href="#DejaVuSans-6b"/>
      <use x="1016.63867188" xlink:href="#DejaVuSans-65"/>
      <use x="1078.16210938" xlink:href="#DejaVuSans-6e"/>
     </g>
    </g>
   </g>
   <g id="matplotlib.axis_6">
    <g id="ytick_17">
     <g id="line2d_78">
      <g>
       <use style="stroke:#000000;stroke-width:0.5;" x="216.0" xlink:href="#m728421d6d4" y="827.82"/>
      </g>
     </g>
     <g id="line2d_79">
      <g>
       <use style="stroke:#000000;stroke-width:0.5;" x="1555.2" xlink:href="#mcb0005524f" y="827.82"/>
      </g>
     </g>
     <g id="text_27">
      <!-- −400 -->
      <g transform="translate(181.1075 831.13125)scale(0.12 -0.12)">
       <use xlink:href="#DejaVuSans-2212"/>
       <use x="83.7890625" xlink:href="#DejaVuSans-34"/>
       <use x="147.412109375" xlink:href="#DejaVuSans-30"/>
       <use x="211.03515625" xlink:href="#DejaVuSans-30"/>
      </g>
     </g>
    </g>
    <g id="ytick_18">
     <g id="line2d_80">
      <g>
       <use style="stroke:#000000;stroke-width:0.5;" x="216.0" xlink:href="#m728421d6d4" y="784.535294118"/>
      </g>
     </g>
     <g id="line2d_81">
      <g>
       <use style="stroke:#000000;stroke-width:0.5;" x="1555.2" xlink:href="#mcb0005524f" y="784.535294118"/>
      </g>
     </g>
     <g id="text_28">
      <!-- −200 -->
      <g transform="translate(181.1075 787.846544118)scale(0.12 -0.12)">
       <use xlink:href="#DejaVuSans-2212"/>
       <use x="83.7890625" xlink:href="#DejaVuSans-32"/>
       <use x="147.412109375" xlink:href="#DejaVuSans-30"/>
       <use x="211.03515625" xlink:href="#DejaVuSans-30"/>
      </g>
     </g>
    </g>
    <g id="ytick_19">
     <g id="line2d_82">
      <g>
       <use style="stroke:#000000;stroke-width:0.5;" x="216.0" xlink:href="#m728421d6d4" y="741.250588235"/>
      </g>
     </g>
     <g id="line2d_83">
      <g>
       <use style="stroke:#000000;stroke-width:0.5;" x="1555.2" xlink:href="#mcb0005524f" y="741.250588235"/>
      </g>
     </g>
     <g id="text_29">
      <!-- 0 -->
      <g transform="translate(205.953125 744.561838235)scale(0.12 -0.12)">
       <use xlink:href="#DejaVuSans-30"/>
      </g>
     </g>
    </g>
    <g id="ytick_20">
     <g id="line2d_84">
      <g>
       <use style="stroke:#000000;stroke-width:0.5;" x="216.0" xlink:href="#m728421d6d4" y="697.965882353"/>
      </g>
     </g>
     <g id="line2d_85">
      <g>
       <use style="stroke:#000000;stroke-width:0.5;" x="1555.2" xlink:href="#mcb0005524f" y="697.965882353"/>
      </g>
     </g>
     <g id="text_30">
      <!-- 200 -->
      <g transform="translate(190.77125 701.277132353)scale(0.12 -0.12)">
       <use xlink:href="#DejaVuSans-32"/>
       <use x="63.623046875" xlink:href="#DejaVuSans-30"/>
       <use x="127.24609375" xlink:href="#DejaVuSans-30"/>
      </g>
     </g>
    </g>
    <g id="ytick_21">
     <g id="line2d_86">
      <g>
       <use style="stroke:#000000;stroke-width:0.5;" x="216.0" xlink:href="#m728421d6d4" y="654.681176471"/>
      </g>
     </g>
     <g id="line2d_87">
      <g>
       <use style="stroke:#000000;stroke-width:0.5;" x="1555.2" xlink:href="#mcb0005524f" y="654.681176471"/>
      </g>
     </g>
     <g id="text_31">
      <!-- 400 -->
      <g transform="translate(190.47875 657.992426471)scale(0.12 -0.12)">
       <use xlink:href="#DejaVuSans-34"/>
       <use x="63.623046875" xlink:href="#DejaVuSans-30"/>
       <use x="127.24609375" xlink:href="#DejaVuSans-30"/>
      </g>
     </g>
    </g>
    <g id="ytick_22">
     <g id="line2d_88">
      <g>
       <use style="stroke:#000000;stroke-width:0.5;" x="216.0" xlink:href="#m728421d6d4" y="611.396470588"/>
      </g>
     </g>
     <g id="line2d_89">
      <g>
       <use style="stroke:#000000;stroke-width:0.5;" x="1555.2" xlink:href="#mcb0005524f" y="611.396470588"/>
      </g>
     </g>
     <g id="text_32">
      <!-- 600 -->
      <g transform="translate(190.73 614.707720588)scale(0.12 -0.12)">
       <use xlink:href="#DejaVuSans-36"/>
       <use x="63.623046875" xlink:href="#DejaVuSans-30"/>
       <use x="127.24609375" xlink:href="#DejaVuSans-30"/>
      </g>
     </g>
    </g>
   </g>
   <g id="patch_13">
    <path d="
M216 611.396
L1555.2 611.396" style="fill:none;stroke:#000000;"/>
   </g>
   <g id="patch_14">
    <path d="
M1555.2 827.82
L1555.2 611.396" style="fill:none;stroke:#000000;"/>
   </g>
   <g id="patch_15">
    <path d="
M216 827.82
L1555.2 827.82" style="fill:none;stroke:#000000;"/>
   </g>
   <g id="patch_16">
    <path d="
M216 827.82
L216 611.396" style="fill:none;stroke:#000000;"/>
   </g>
   <g id="text_33">
    <!-- $p=0.01$ -->
    <g transform="translate(849.19 606.396470588)scale(0.22 -0.22)">
     <use transform="translate(0.0 0.390625)" xlink:href="#Cmmi10-70"/>
     <use transform="translate(67.8515625 0.390625)" xlink:href="#Cmr10-3d"/>
     <use transform="translate(151.91015625 0.390625)" xlink:href="#Cmr10-30"/>
     <use transform="translate(201.91015625 0.390625)" xlink:href="#Cmmi10-3a"/>
     <use transform="translate(230.453125 0.390625)" xlink:href="#Cmr10-30"/>
     <use transform="translate(280.453125 0.390625)" xlink:href="#Cmr10-31"/>
    </g>
   </g>
  </g>
 </g>
 <defs>
  <clipPath id="p250b35b7e6">
   <rect height="216.423529412" width="1339.2" x="216.0" y="91.98"/>
  </clipPath>
  <clipPath id="p7bbaac4644">
   <rect height="216.423529412" width="1339.2" x="216.0" y="611.396470588"/>
  </clipPath>
  <clipPath id="p611839777d">
   <rect height="216.423529412" width="1339.2" x="216.0" y="351.688235294"/>
  </clipPath>
 </defs>
</svg>
