<?xml version="1.0" encoding="utf-8" standalone="no"?>
<!DOCTYPE svg PUBLIC "-//W3C//DTD SVG 1.1//EN"
  "http://www.w3.org/Graphics/SVG/1.1/DTD/svg11.dtd">
<!-- Created with matplotlib (http://matplotlib.org/) -->
<svg height="441pt" version="1.1" viewBox="0 0 585 441" width="585pt" xmlns="http://www.w3.org/2000/svg" xmlns:xlink="http://www.w3.org/1999/xlink">
 <defs>
  <style type="text/css">
*{stroke-linecap:butt;stroke-linejoin:round;}
  </style>
 </defs>
 <g id="figure_1">
  <g id="patch_1">
   <path d="
M0 441
L585 441
L585 0
L0 0
z
" style="fill:#ffffff;"/>
  </g>
  <g id="axes_1">
   <g id="patch_2">
    <path d="
M73.125 147.865
L526.5 147.865
L526.5 44.1
L73.125 44.1
z
" style="fill:#ffffff;"/>
   </g>
   <g id="line2d_1">
    <path clip-path="url(#p3873bab98c)" d="
M73.125 107.656
L73.5784 108.953
L74.0318 107.656
L74.4851 108.953
L75.3919 106.359
L76.2986 108.953
L76.752 107.656
L77.2054 108.953
L77.6587 107.656
L79.0189 111.547
L80.8324 106.359
L81.2858 107.656
L82.1925 105.062
L82.6459 106.359
L83.5526 103.765
L84.4594 106.359
L84.9128 105.062
L85.3661 106.359
L86.2729 103.765
L87.1796 106.359
L88.0864 103.765
L88.5397 105.062
L88.9931 103.765
L89.4465 105.062
L89.8999 103.765
L93.0735 112.844
L93.5269 111.547
L93.9802 112.844
L94.4336 111.547
L95.3404 114.141
L95.7938 112.844
L96.2471 114.141
L97.1539 111.547
L99.8741 119.329
L100.328 118.032
L101.234 120.626
L102.141 118.032
L103.048 120.626
L104.408 116.735
L107.128 124.518
L108.942 119.329
L110.755 124.518
L111.209 123.221
L113.022 128.409
L113.475 127.112
L114.382 129.706
L115.289 127.112
L116.649 131.003
L117.556 128.409
L118.463 131.003
L118.916 129.706
L119.823 132.3
L120.276 131.003
L121.636 134.894
L122.09 133.597
L122.996 136.191
L124.81 131.003
L125.263 132.3
L125.716 131.003
L126.17 132.3
L127.077 129.706
L127.53 131.003
L127.983 129.706
L128.437 131.003
L129.344 128.409
L130.25 131.003
L131.157 128.409
L132.517 132.3
L133.424 129.706
L135.691 136.191
L137.051 132.3
L137.504 133.597
L137.958 132.3
L138.411 133.597
L139.318 131.003
L140.225 133.597
L140.678 132.3
L141.585 134.894
L142.945 131.003
L143.851 133.597
L145.665 128.409
L146.118 129.706
L147.025 127.112
L149.292 133.597
L151.559 127.112
L152.466 129.706
L152.919 128.409
L153.372 129.706
L154.279 127.112
L154.733 128.409
L156.093 124.518
L156.546 125.815
L156.999 124.518
L157.453 125.815
L158.36 123.221
L158.813 124.518
L161.533 116.735
L161.987 118.032
L163.347 114.141
L163.8 115.438
L164.707 112.844
L165.16 114.141
L166.974 108.953
L167.88 111.547
L168.787 108.953
L170.147 112.844
L170.601 111.547
L171.054 112.844
L171.961 110.25
L173.321 114.141
L173.774 112.844
L174.228 114.141
L175.134 111.547
L175.588 112.844
L176.041 111.547
L177.855 116.735
L178.761 114.141
L179.668 116.735
L180.122 115.438
L180.575 116.735
L181.935 112.844
L183.295 116.735
L183.749 115.438
L185.109 119.329
L186.015 116.735
L186.469 118.032
L186.922 116.735
L187.375 118.032
L188.282 115.438
L190.549 121.924
L191.909 118.032
L192.363 119.329
L192.816 118.032
L193.723 120.626
L194.63 118.032
L195.99 121.924
L196.896 119.329
L197.35 120.626
L198.257 118.032
L199.617 121.924
L200.977 118.032
L201.883 120.626
L202.337 119.329
L203.244 121.924
L204.604 118.032
L205.057 119.329
L205.511 118.032
L205.964 119.329
L206.871 116.735
L207.324 118.032
L207.777 116.735
L209.138 120.626
L209.591 119.329
L211.404 124.518
L212.311 121.924
L212.764 123.221
L213.218 121.924
L213.671 123.221
L214.578 120.626
L215.031 121.924
L215.938 119.329
L216.392 120.626
L217.752 116.735
L218.205 118.032
L220.019 112.844
L220.925 115.438
L221.832 112.844
L222.285 114.141
L223.645 110.25
L224.099 111.547
L225.006 108.953
L228.633 119.329
L229.086 118.032
L231.353 124.518
L231.806 123.221
L234.073 129.706
L235.433 125.815
L236.34 128.409
L236.793 127.112
L237.7 129.706
L238.154 128.409
L239.06 131.003
L239.514 129.706
L240.874 133.597
L241.327 132.3
L242.687 136.191
L243.141 134.894
L243.594 136.191
L244.501 133.597
L244.954 134.894
L245.407 133.597
L246.314 136.191
L246.768 134.894
L247.221 136.191
L247.674 134.894
L248.128 136.191
L248.581 134.894
L249.488 137.488
L249.941 136.191
L250.395 137.488
L251.755 133.597
L252.208 134.894
L253.568 131.003
L254.022 132.3
L254.928 129.706
L255.382 131.003
L256.742 127.112
L257.649 129.706
L259.009 125.815
L259.462 127.112
L262.182 119.329
L262.636 120.626
L263.089 119.329
L263.996 121.924
L264.449 120.626
L264.903 121.924
L265.356 120.626
L265.809 121.924
L266.263 120.626
L266.716 121.924
L268.076 118.032
L268.53 119.329
L269.436 116.735
L270.343 119.329
L271.703 115.438
L272.157 116.735
L273.97 111.547
L274.877 114.141
L276.237 110.25
L277.144 112.844
L278.05 110.25
L278.957 112.844
L280.317 108.953
L280.771 110.25
L282.584 105.062
L283.038 106.359
L283.944 103.765
L285.305 107.656
L286.211 105.062
L287.118 107.656
L287.571 106.359
L288.025 107.656
L290.745 99.8735
L293.012 106.359
L294.372 102.468
L294.825 103.765
L298.452 93.3882
L299.359 95.9824
L299.812 94.6853
L300.266 95.9824
L301.626 92.0912
L302.079 93.3882
L302.533 92.0912
L302.986 93.3882
L303.893 90.7941
L305.706 95.9824
L307.973 89.4971
L308.427 90.7941
L308.88 89.4971
L309.333 90.7941
L310.694 86.9029
L312.054 90.7941
L312.96 88.2
L313.414 89.4971
L314.774 85.6059
L315.681 88.2
L316.134 86.9029
L316.587 88.2
L317.041 86.9029
L317.947 89.4971
L318.854 86.9029
L320.668 92.0912
L322.028 88.2
L323.388 92.0912
L324.295 89.4971
L327.922 99.8735
L328.829 97.2794
L329.282 98.5765
L329.735 97.2794
L331.549 102.468
L332.456 99.8735
L332.909 101.171
L334.269 97.2794
L335.629 101.171
L336.083 99.8735
L336.989 102.468
L337.443 101.171
L337.896 102.468
L338.803 99.8735
L340.163 103.765
L341.523 99.8735
L341.976 101.171
L342.43 99.8735
L342.883 101.171
L343.79 98.5765
L345.603 103.765
L346.057 102.468
L346.51 103.765
L347.417 101.171
L348.324 103.765
L349.684 99.8735
L350.137 101.171
L351.951 95.9824
L354.218 102.468
L354.671 101.171
L355.578 103.765
L356.031 102.468
L359.205 111.547
L359.658 110.25
L360.111 111.547
L362.378 105.062
L362.832 106.359
L363.285 105.062
L365.099 110.25
L365.552 108.953
L366.459 111.547
L367.365 108.953
L367.819 110.25
L368.726 107.656
L370.086 111.547
L372.806 103.765
L373.259 105.062
L375.073 99.8735
L375.526 101.171
L375.98 99.8735
L376.433 101.171
L377.793 97.2794
L379.153 101.171
L380.06 98.5765
L380.513 99.8735
L380.967 98.5765
L382.327 102.468
L382.78 101.171
L383.233 102.468
L384.14 99.8735
L385.047 102.468
L385.5 101.171
L385.954 102.468
L387.314 98.5765
L388.221 101.171
L388.674 99.8735
L392.754 111.547
L393.208 110.25
L394.115 112.844
L395.475 108.953
L397.742 115.438
L398.648 112.844
L399.102 114.141
L400.462 110.25
L401.369 112.844
L402.729 108.953
L403.182 110.25
L404.089 107.656
L404.995 110.25
L405.902 107.656
L406.356 108.953
L408.623 102.468
L409.983 106.359
L410.436 105.062
L411.796 108.953
L412.25 107.656
L413.61 111.547
L415.423 106.359
L415.877 107.656
L417.237 103.765
L417.69 105.062
L419.05 101.171
L421.317 107.656
L422.224 105.062
L423.131 107.656
L424.944 102.468
L425.397 103.765
L426.304 101.171
L426.758 102.468
L427.664 99.8735
L429.931 106.359
L430.838 103.765
L431.745 106.359
L432.651 103.765
L433.105 105.062
L434.465 101.171
L434.918 102.468
L435.372 101.171
L436.732 105.062
L438.092 101.171
L438.999 103.765
L439.452 102.468
L441.719 108.953
L445.799 97.2794
L446.253 98.5765
L449.88 88.2
L450.333 89.4971
L450.786 88.2
L451.24 89.4971
L452.147 86.9029
L452.6 88.2
L453.053 86.9029
L453.96 89.4971
L454.413 88.2
L455.774 92.0912
L456.227 90.7941
L456.68 92.0912
L457.134 90.7941
L457.587 92.0912
L458.04 90.7941
L459.401 94.6853
L460.307 92.0912
L461.667 95.9824
L462.121 94.6853
L463.028 97.2794
L463.481 95.9824
L464.841 99.8735
L465.294 98.5765
L465.748 99.8735
L469.828 88.2
L470.282 89.4971
L470.735 88.2
L471.188 89.4971
L471.642 88.2
L473.455 93.3882
L474.815 89.4971
L476.175 93.3882
L477.536 89.4971
L477.989 90.7941
L478.442 89.4971
L478.896 90.7941
L479.349 89.4971
L479.802 90.7941
L480.709 88.2
L482.976 94.6853
L484.79 89.4971
L485.243 90.7941
L486.15 88.2
L487.963 93.3882
L490.683 85.6059
L491.59 88.2
L492.497 85.6059
L493.404 88.2
L494.31 85.6059
L494.764 86.9029
L495.217 85.6059
L496.577 89.4971
L497.484 86.9029
L498.844 90.7941
L500.204 86.9029
L500.658 88.2
L502.018 84.3088
L502.925 86.9029
L503.831 84.3088
L504.285 85.6059
L504.738 84.3088
L505.191 85.6059
L506.098 83.0118
L506.552 84.3088
L507.912 80.4176
L510.179 86.9029
L511.085 84.3088
L511.539 85.6059
L514.259 77.8235
L515.619 81.7147
L516.526 79.1206
L516.979 80.4176
L517.433 79.1206
L518.339 81.7147
L518.793 80.4176
L519.699 83.0118
L522.873 73.9324
L523.326 75.2294
L523.78 73.9324
L524.233 75.2294
L524.687 73.9324
L525.14 75.2294
L525.593 73.9324
L526.047 75.2294
L526.047 75.2294" style="fill:none;stroke:#0000ff;stroke-linecap:square;"/>
   </g>
   <g id="line2d_2">
    <path clip-path="url(#p3873bab98c)" d="
M73.125 107.656
L73.5784 108.953
L74.4851 106.359
L74.9385 107.656
L75.3919 106.359
L75.8452 107.656
L76.752 105.062
L77.2054 106.359
L78.5655 102.468
L80.379 107.656
L81.7391 103.765
L83.5526 108.953
L84.006 107.656
L84.9128 110.25
L85.3661 108.953
L87.1796 114.141
L89.4465 107.656
L89.8999 108.953
L92.1668 102.468
L95.3404 111.547
L96.2471 108.953
L97.6072 112.844
L98.0606 111.547
L98.514 112.844
L98.9674 111.547
L99.8741 114.141
L102.594 106.359
L103.954 110.25
L104.861 107.656
L105.315 108.953
L106.221 106.359
L106.675 107.656
L107.128 106.359
L108.942 111.547
L109.395 110.25
L110.302 112.844
L110.755 111.547
L111.662 114.141
L112.115 112.844
L112.569 114.141
L113.475 111.547
L114.382 114.141
L114.835 112.844
L116.196 116.735
L116.649 115.438
L117.556 118.032
L118.916 114.141
L119.823 116.735
L120.276 115.438
L121.636 119.329
L122.09 118.032
L123.45 121.924
L123.903 120.626
L125.263 124.518
L125.716 123.221
L126.17 124.518
L127.077 121.924
L127.983 124.518
L129.797 119.329
L130.704 121.924
L131.157 120.626
L132.064 123.221
L132.971 120.626
L133.424 121.924
L133.877 120.626
L135.237 124.518
L136.144 121.924
L137.504 125.815
L138.864 121.924
L139.771 124.518
L140.225 123.221
L141.585 127.112
L142.038 125.815
L142.491 127.112
L143.398 124.518
L144.305 127.112
L144.758 125.815
L145.212 127.112
L145.665 125.815
L147.025 129.706
L147.478 128.409
L147.932 129.706
L148.385 128.409
L148.839 129.706
L149.745 127.112
L150.199 128.409
L150.652 127.112
L151.559 129.706
L152.466 127.112
L152.919 128.409
L153.372 127.112
L153.826 128.409
L154.279 127.112
L155.186 129.706
L155.639 128.409
L156.093 129.706
L156.999 127.112
L157.453 128.409
L160.626 119.329
L161.533 121.924
L162.893 118.032
L163.347 119.329
L164.253 116.735
L164.707 118.032
L165.16 116.735
L165.613 118.032
L166.52 115.438
L166.974 116.735
L167.427 115.438
L168.334 118.032
L168.787 116.735
L169.24 118.032
L170.601 114.141
L171.054 115.438
L171.507 114.141
L171.961 115.438
L172.414 114.141
L172.868 115.438
L174.228 111.547
L176.041 116.735
L178.308 110.25
L178.761 111.547
L180.122 107.656
L181.028 110.25
L181.935 107.656
L182.388 108.953
L183.749 105.062
L186.015 111.547
L186.922 108.953
L187.375 110.25
L189.642 103.765
L190.549 106.359
L191.002 105.062
L191.456 106.359
L192.363 103.765
L192.816 105.062
L194.176 101.171
L194.63 102.468
L195.083 101.171
L196.443 105.062
L199.163 97.2794
L200.523 101.171
L201.43 98.5765
L202.337 101.171
L203.697 97.2794
L204.15 98.5765
L204.604 97.2794
L205.511 99.8735
L206.417 97.2794
L207.324 99.8735
L207.777 98.5765
L208.231 99.8735
L208.684 98.5765
L209.138 99.8735
L209.591 98.5765
L210.044 99.8735
L210.951 97.2794
L212.311 101.171
L214.578 94.6853
L215.031 95.9824
L215.485 94.6853
L215.938 95.9824
L216.392 94.6853
L216.845 95.9824
L217.752 93.3882
L218.205 94.6853
L219.112 92.0912
L219.565 93.3882
L220.472 90.7941
L220.925 92.0912
L221.832 89.4971
L223.192 93.3882
L225.459 86.9029
L225.912 88.2
L226.366 86.9029
L228.179 92.0912
L228.633 90.7941
L229.993 94.6853
L230.446 93.3882
L231.353 95.9824
L232.26 93.3882
L232.713 94.6853
L233.166 93.3882
L234.98 98.5765
L235.887 95.9824
L236.34 97.2794
L236.793 95.9824
L237.247 97.2794
L238.607 93.3882
L239.06 94.6853
L239.514 93.3882
L240.42 95.9824
L241.327 93.3882
L241.781 94.6853
L242.687 92.0912
L243.594 94.6853
L244.047 93.3882
L244.954 95.9824
L245.861 93.3882
L246.314 94.6853
L248.128 89.4971
L249.035 92.0912
L249.488 90.7941
L249.941 92.0912
L251.755 86.9029
L252.662 89.4971
L253.115 88.2
L254.022 90.7941
L255.382 86.9029
L255.835 88.2
L257.195 84.3088
L257.649 85.6059
L258.102 84.3088
L259.009 86.9029
L259.462 85.6059
L260.822 89.4971
L261.276 88.2
L261.729 89.4971
L262.636 86.9029
L263.089 88.2
L265.356 81.7147
L266.263 84.3088
L267.169 81.7147
L268.076 84.3088
L268.53 83.0118
L268.983 84.3088
L270.343 80.4176
L271.25 83.0118
L271.703 81.7147
L272.157 83.0118
L272.61 81.7147
L273.063 83.0118
L273.517 81.7147
L273.97 83.0118
L274.877 80.4176
L275.33 81.7147
L276.237 79.1206
L276.69 80.4176
L278.05 76.5265
L278.957 79.1206
L280.771 73.9324
L281.224 75.2294
L281.678 73.9324
L282.131 75.2294
L283.038 72.6353
L283.491 73.9324
L283.944 72.6353
L284.851 75.2294
L285.305 73.9324
L287.571 80.4176
L288.025 79.1206
L288.932 81.7147
L289.385 80.4176
L291.652 86.9029
L292.105 85.6059
L292.558 86.9029
L293.465 84.3088
L296.639 93.3882
L298.452 88.2
L299.359 90.7941
L301.173 85.6059
L302.533 89.4971
L302.986 88.2
L303.893 90.7941
L305.706 85.6059
L306.16 86.9029
L306.613 85.6059
L307.52 88.2
L307.973 86.9029
L308.427 88.2
L309.333 85.6059
L309.787 86.9029
L310.24 85.6059
L310.694 86.9029
L311.6 84.3088
L312.054 85.6059
L312.507 84.3088
L313.414 86.9029
L314.321 84.3088
L315.227 86.9029
L316.587 83.0118
L317.494 85.6059
L318.401 83.0118
L318.854 84.3088
L319.761 81.7147
L320.668 84.3088
L321.121 83.0118
L322.028 85.6059
L322.935 83.0118
L323.388 84.3088
L323.841 83.0118
L324.748 85.6059
L326.562 80.4176
L327.015 81.7147
L328.829 76.5265
L329.282 77.8235
L329.735 76.5265
L330.189 77.8235
L332.909 70.0412
L333.816 72.6353
L335.176 68.7441
L336.536 72.6353
L337.896 68.7441
L339.256 72.6353
L339.709 71.3382
L340.616 73.9324
L341.07 72.6353
L343.337 79.1206
L344.243 76.5265
L345.15 79.1206
L345.603 77.8235
L346.057 79.1206
L346.51 77.8235
L348.324 83.0118
L349.23 80.4176
L350.137 83.0118
L351.044 80.4176
L351.497 81.7147
L351.951 80.4176
L352.404 81.7147
L352.857 80.4176
L353.311 81.7147
L354.218 79.1206
L355.578 83.0118
L356.031 81.7147
L356.484 83.0118
L358.298 77.8235
L358.751 79.1206
L359.205 77.8235
L361.018 83.0118
L362.378 79.1206
L362.832 80.4176
L363.738 77.8235
L364.645 80.4176
L366.005 76.5265
L366.459 77.8235
L366.912 76.5265
L368.726 81.7147
L369.179 80.4176
L370.992 85.6059
L371.446 84.3088
L372.806 88.2
L373.713 85.6059
L374.166 86.9029
L374.619 85.6059
L376.886 92.0912
L378.246 88.2
L379.607 92.0912
L380.06 90.7941
L380.513 92.0912
L380.967 90.7941
L381.42 92.0912
L381.873 90.7941
L382.327 92.0912
L383.233 89.4971
L384.594 93.3882
L385.954 89.4971
L387.767 94.6853
L389.127 90.7941
L389.581 92.0912
L390.941 88.2
L391.394 89.4971
L391.848 88.2
L392.301 89.4971
L392.754 88.2
L393.208 89.4971
L395.021 84.3088
L395.475 85.6059
L395.928 84.3088
L398.648 92.0912
L399.102 90.7941
L400.008 93.3882
L400.462 92.0912
L401.369 94.6853
L401.822 93.3882
L402.275 94.6853
L404.089 89.4971
L404.542 90.7941
L404.995 89.4971
L405.449 90.7941
L405.902 89.4971
L406.356 90.7941
L408.623 84.3088
L409.983 88.2
L410.889 85.6059
L411.343 86.9029
L411.796 85.6059
L414.063 92.0912
L415.423 88.2
L416.33 90.7941
L416.783 89.4971
L418.143 93.3882
L421.317 84.3088
L422.677 88.2
L423.584 85.6059
L424.037 86.9029
L424.491 85.6059
L424.944 86.9029
L426.304 83.0118
L427.211 85.6059
L427.664 84.3088
L428.118 85.6059
L429.024 83.0118
L429.931 85.6059
L430.385 84.3088
L432.198 89.4971
L432.651 88.2
L434.465 93.3882
L434.918 92.0912
L436.278 95.9824
L437.185 93.3882
L437.639 94.6853
L438.999 90.7941
L441.266 97.2794
L441.719 95.9824
L443.079 99.8735
L443.986 97.2794
L444.893 99.8735
L448.066 90.7941
L449.426 94.6853
L450.786 90.7941
L451.24 92.0912
L452.147 89.4971
L453.053 92.0912
L455.32 85.6059
L456.227 88.2
L456.68 86.9029
L457.134 88.2
L458.947 83.0118
L460.307 86.9029
L461.214 84.3088
L462.574 88.2
L463.028 86.9029
L464.388 90.7941
L466.201 85.6059
L466.655 86.9029
L467.108 85.6059
L467.561 86.9029
L468.921 83.0118
L469.375 84.3088
L471.188 79.1206
L471.642 80.4176
L473.455 75.2294
L473.909 76.5265
L475.269 72.6353
L475.722 73.9324
L476.629 71.3382
L477.082 72.6353
L478.442 68.7441
L478.896 70.0412
L479.349 68.7441
L482.976 79.1206
L483.429 77.8235
L484.79 81.7147
L485.243 80.4176
L486.603 84.3088
L488.87 77.8235
L489.323 79.1206
L490.23 76.5265
L491.137 79.1206
L492.497 75.2294
L493.404 77.8235
L493.857 76.5265
L494.31 77.8235
L497.031 70.0412
L498.391 73.9324
L499.751 70.0412
L500.204 71.3382
L500.658 70.0412
L502.018 73.9324
L502.471 72.6353
L502.925 73.9324
L504.738 68.7441
L505.191 70.0412
L506.098 67.4471
L507.005 70.0412
L507.458 68.7441
L507.912 70.0412
L511.085 60.9618
L511.539 62.2588
L514.259 54.4765
L515.166 57.0706
L517.886 49.2882
L518.339 50.5853
L519.699 46.6941
L520.153 47.9912
L521.06 45.3971
L521.513 46.6941
L521.966 45.3971
L522.873 47.9912
L523.326 46.6941
L524.233 49.2882
L525.593 45.3971
L526.047 46.6941
L526.047 46.6941" style="fill:none;stroke:#008000;stroke-linecap:square;"/>
   </g>
   <g id="line2d_3">
    <path clip-path="url(#p3873bab98c)" d="
M73.125 110.25
L73.5784 111.547
L74.0318 110.25
L74.9385 112.844
L76.752 107.656
L77.2054 108.953
L78.1121 106.359
L79.4723 110.25
L83.0992 99.8735
L84.006 102.468
L85.8195 97.2794
L88.5397 105.062
L88.9931 103.765
L89.8999 106.359
L91.26 102.468
L92.1668 105.062
L92.6201 103.765
L93.5269 106.359
L94.4336 103.765
L95.7938 107.656
L96.7005 105.062
L97.6072 107.656
L99.4207 102.468
L100.328 105.062
L100.781 103.765
L101.234 105.062
L102.594 101.171
L103.048 102.468
L103.501 101.171
L104.408 103.765
L104.861 102.468
L105.315 103.765
L106.675 99.8735
L107.582 102.468
L108.488 99.8735
L109.848 103.765
L112.115 97.2794
L113.929 102.468
L114.382 101.171
L115.289 103.765
L115.742 102.468
L116.196 103.765
L117.102 101.171
L117.556 102.468
L118.463 99.8735
L118.916 101.171
L119.369 99.8735
L120.729 103.765
L121.183 102.468
L122.543 106.359
L123.45 103.765
L124.81 107.656
L125.263 106.359
L126.17 108.953
L127.53 105.062
L128.437 107.656
L129.797 103.765
L132.064 110.25
L132.517 108.953
L132.971 110.25
L133.424 108.953
L134.784 112.844
L135.691 110.25
L136.144 111.547
L137.504 107.656
L140.225 115.438
L140.678 114.141
L141.131 115.438
L141.585 114.141
L143.398 119.329
L143.851 118.032
L144.305 119.329
L144.758 118.032
L145.212 119.329
L147.478 112.844
L148.385 115.438
L149.745 111.547
L150.199 112.844
L150.652 111.547
L151.106 112.844
L151.559 111.547
L152.012 112.844
L152.466 111.547
L154.279 116.735
L154.733 115.438
L155.186 116.735
L156.546 112.844
L156.999 114.141
L157.453 112.844
L158.36 115.438
L158.813 114.141
L159.266 115.438
L161.08 110.25
L161.533 111.547
L162.44 108.953
L163.8 112.844
L164.253 111.547
L164.707 112.844
L165.16 111.547
L165.613 112.844
L166.974 108.953
L167.427 110.25
L168.787 106.359
L169.24 107.656
L170.601 103.765
L172.868 110.25
L173.774 107.656
L174.681 110.25
L176.948 103.765
L177.401 105.062
L177.855 103.765
L178.308 105.062
L179.668 101.171
L180.122 102.468
L180.575 101.171
L181.028 102.468
L181.482 101.171
L182.388 103.765
L182.842 102.468
L183.295 103.765
L183.749 102.468
L184.202 103.765
L185.562 99.8735
L186.469 102.468
L187.375 99.8735
L188.282 102.468
L190.096 97.2794
L190.549 98.5765
L191.909 94.6853
L192.816 97.2794
L193.269 95.9824
L193.723 97.2794
L194.176 95.9824
L195.536 99.8735
L195.99 98.5765
L196.443 99.8735
L196.896 98.5765
L197.35 99.8735
L199.163 94.6853
L201.883 102.468
L202.79 99.8735
L203.244 101.171
L204.15 98.5765
L204.604 99.8735
L205.511 97.2794
L205.964 98.5765
L206.417 97.2794
L206.871 98.5765
L208.231 94.6853
L208.684 95.9824
L210.044 92.0912
L210.951 94.6853
L212.764 89.4971
L213.218 90.7941
L213.671 89.4971
L214.125 90.7941
L215.031 88.2
L216.845 93.3882
L217.298 92.0912
L217.752 93.3882
L218.658 90.7941
L220.472 95.9824
L221.832 92.0912
L222.285 93.3882
L223.645 89.4971
L224.552 92.0912
L225.006 90.7941
L225.912 93.3882
L228.179 86.9029
L229.993 92.0912
L230.446 90.7941
L232.26 95.9824
L232.713 94.6853
L233.166 95.9824
L234.526 92.0912
L234.98 93.3882
L235.433 92.0912
L237.247 97.2794
L237.7 95.9824
L238.154 97.2794
L239.06 94.6853
L239.514 95.9824
L239.967 94.6853
L242.687 102.468
L243.141 101.171
L244.501 105.062
L244.954 103.765
L246.768 108.953
L248.581 103.765
L249.035 105.062
L249.488 103.765
L251.301 108.953
L251.755 107.656
L253.115 111.547
L253.568 110.25
L254.022 111.547
L254.475 110.25
L256.288 115.438
L258.102 110.25
L259.462 114.141
L259.916 112.844
L260.369 114.141
L261.729 110.25
L262.182 111.547
L262.636 110.25
L263.089 111.547
L263.543 110.25
L263.996 111.547
L265.356 107.656
L265.809 108.953
L266.263 107.656
L267.169 110.25
L268.53 106.359
L270.343 111.547
L270.797 110.25
L271.25 111.547
L272.157 108.953
L274.423 115.438
L274.877 114.141
L276.69 119.329
L277.144 118.032
L277.597 119.329
L279.864 112.844
L280.317 114.141
L281.224 111.547
L281.678 112.844
L283.038 108.953
L283.491 110.25
L283.944 108.953
L284.398 110.25
L287.118 102.468
L288.478 106.359
L288.932 105.062
L289.838 107.656
L290.745 105.062
L291.198 106.359
L292.105 103.765
L293.012 106.359
L293.465 105.062
L293.919 106.359
L294.372 105.062
L295.279 107.656
L296.639 103.765
L297.092 105.062
L297.546 103.765
L298.906 107.656
L300.266 103.765
L302.986 111.547
L303.44 110.25
L303.893 111.547
L305.706 106.359
L306.613 108.953
L307.067 107.656
L307.973 110.25
L308.88 107.656
L309.787 110.25
L310.24 108.953
L310.694 110.25
L311.147 108.953
L312.507 112.844
L312.96 111.547
L315.227 118.032
L316.134 115.438
L317.041 118.032
L318.401 114.141
L318.854 115.438
L319.308 114.141
L319.761 115.438
L321.121 111.547
L321.575 112.844
L323.388 107.656
L324.295 110.25
L324.748 108.953
L325.202 110.25
L326.108 107.656
L326.562 108.953
L327.468 106.359
L327.922 107.656
L329.282 103.765
L329.735 105.062
L330.642 102.468
L331.095 103.765
L332.456 99.8735
L334.722 106.359
L335.629 103.765
L336.083 105.062
L336.989 102.468
L337.443 103.765
L340.616 94.6853
L342.43 99.8735
L343.337 97.2794
L344.243 99.8735
L345.603 95.9824
L346.51 98.5765
L347.87 94.6853
L348.324 95.9824
L349.684 92.0912
L351.044 95.9824
L351.497 94.6853
L352.404 97.2794
L352.857 95.9824
L353.764 98.5765
L356.031 92.0912
L356.484 93.3882
L357.391 90.7941
L358.298 93.3882
L358.751 92.0912
L359.205 93.3882
L359.658 92.0912
L361.471 97.2794
L361.925 95.9824
L362.378 97.2794
L362.832 95.9824
L364.192 99.8735
L364.645 98.5765
L365.552 101.171
L367.365 95.9824
L368.726 99.8735
L369.632 97.2794
L370.086 98.5765
L370.992 95.9824
L373.259 102.468
L374.619 98.5765
L375.98 102.468
L376.433 101.171
L376.886 102.468
L378.7 97.2794
L379.153 98.5765
L379.607 97.2794
L380.967 101.171
L382.327 97.2794
L382.78 98.5765
L384.14 94.6853
L384.594 95.9824
L386.407 90.7941
L388.221 95.9824
L390.034 90.7941
L390.941 93.3882
L391.848 90.7941
L392.754 93.3882
L394.115 89.4971
L394.568 90.7941
L396.835 84.3088
L397.742 86.9029
L398.648 84.3088
L402.275 94.6853
L402.729 93.3882
L403.182 94.6853
L403.635 93.3882
L404.089 94.6853
L404.542 93.3882
L404.995 94.6853
L406.356 90.7941
L406.809 92.0912
L407.262 90.7941
L407.716 92.0912
L408.623 89.4971
L409.076 90.7941
L409.983 88.2
L410.436 89.4971
L411.343 86.9029
L411.796 88.2
L414.97 79.1206
L415.877 81.7147
L417.237 77.8235
L417.69 79.1206
L418.143 77.8235
L419.504 81.7147
L419.957 80.4176
L420.41 81.7147
L420.864 80.4176
L421.317 81.7147
L421.77 80.4176
L422.224 81.7147
L422.677 80.4176
L424.037 84.3088
L424.491 83.0118
L425.397 85.6059
L425.851 84.3088
L426.758 86.9029
L427.664 84.3088
L428.571 86.9029
L429.478 84.3088
L429.931 85.6059
L430.385 84.3088
L432.198 89.4971
L432.651 88.2
L433.558 90.7941
L434.012 89.4971
L434.465 90.7941
L434.918 89.4971
L435.372 90.7941
L435.825 89.4971
L437.185 93.3882
L438.999 88.2
L439.452 89.4971
L439.905 88.2
L440.812 90.7941
L441.266 89.4971
L441.719 90.7941
L442.172 89.4971
L442.626 90.7941
L443.986 86.9029
L444.893 89.4971
L445.346 88.2
L445.799 89.4971
L446.253 88.2
L447.159 90.7941
L448.52 86.9029
L449.426 89.4971
L450.786 85.6059
L453.053 92.0912
L454.413 88.2
L456.227 93.3882
L456.68 92.0912
L458.947 98.5765
L459.401 97.2794
L459.854 98.5765
L461.667 93.3882
L463.028 97.2794
L464.841 92.0912
L465.294 93.3882
L466.201 90.7941
L467.108 93.3882
L468.015 90.7941
L468.468 92.0912
L469.375 89.4971
L470.282 92.0912
L471.188 89.4971
L471.642 90.7941
L472.095 89.4971
L473.455 93.3882
L473.909 92.0912
L475.269 95.9824
L476.175 93.3882
L476.629 94.6853
L477.082 93.3882
L478.442 97.2794
L479.349 94.6853
L479.802 95.9824
L480.256 94.6853
L481.163 97.2794
L481.616 95.9824
L483.429 101.171
L483.883 99.8735
L484.336 101.171
L485.696 97.2794
L486.603 99.8735
L488.87 93.3882
L490.23 97.2794
L491.137 94.6853
L492.497 98.5765
L493.404 95.9824
L493.857 97.2794
L494.764 94.6853
L495.217 95.9824
L497.031 90.7941
L497.484 92.0912
L497.937 90.7941
L498.844 93.3882
L499.751 90.7941
L500.204 92.0912
L500.658 90.7941
L501.564 93.3882
L502.018 92.0912
L502.471 93.3882
L502.925 92.0912
L503.378 93.3882
L505.191 88.2
L506.098 90.7941
L507.005 88.2
L510.632 98.5765
L511.992 94.6853
L513.352 98.5765
L514.259 95.9824
L515.619 99.8735
L516.526 97.2794
L517.886 101.171
L518.793 98.5765
L519.246 99.8735
L519.699 98.5765
L521.06 102.468
L521.513 101.171
L521.966 102.468
L522.873 99.8735
L524.687 105.062
L526.047 101.171
L526.047 101.171" style="fill:none;stroke:#ff0000;stroke-linecap:square;"/>
   </g>
   <g id="matplotlib.axis_1">
    <g id="xtick_1">
     <g id="line2d_4">
      <defs>
       <path d="
M0 0
L0 -4" id="m93b0483c22" style="stroke:#000000;stroke-width:0.5;"/>
      </defs>
      <g>
       <use style="stroke:#000000;stroke-width:0.5;" x="73.125" xlink:href="#m93b0483c22" y="147.864705882"/>
      </g>
     </g>
     <g id="line2d_5">
      <defs>
       <path d="
M0 0
L0 4" id="m741efc42ff" style="stroke:#000000;stroke-width:0.5;"/>
      </defs>
      <g>
       <use style="stroke:#000000;stroke-width:0.5;" x="73.125" xlink:href="#m741efc42ff" y="44.1"/>
      </g>
     </g>
    </g>
    <g id="xtick_2">
     <g id="line2d_6">
      <g>
       <use style="stroke:#000000;stroke-width:0.5;" x="163.8" xlink:href="#m93b0483c22" y="147.864705882"/>
      </g>
     </g>
     <g id="line2d_7">
      <g>
       <use style="stroke:#000000;stroke-width:0.5;" x="163.8" xlink:href="#m741efc42ff" y="44.1"/>
      </g>
     </g>
    </g>
    <g id="xtick_3">
     <g id="line2d_8">
      <g>
       <use style="stroke:#000000;stroke-width:0.5;" x="254.475" xlink:href="#m93b0483c22" y="147.864705882"/>
      </g>
     </g>
     <g id="line2d_9">
      <g>
       <use style="stroke:#000000;stroke-width:0.5;" x="254.475" xlink:href="#m741efc42ff" y="44.1"/>
      </g>
     </g>
    </g>
    <g id="xtick_4">
     <g id="line2d_10">
      <g>
       <use style="stroke:#000000;stroke-width:0.5;" x="345.15" xlink:href="#m93b0483c22" y="147.864705882"/>
      </g>
     </g>
     <g id="line2d_11">
      <g>
       <use style="stroke:#000000;stroke-width:0.5;" x="345.15" xlink:href="#m741efc42ff" y="44.1"/>
      </g>
     </g>
    </g>
    <g id="xtick_5">
     <g id="line2d_12">
      <g>
       <use style="stroke:#000000;stroke-width:0.5;" x="435.825" xlink:href="#m93b0483c22" y="147.864705882"/>
      </g>
     </g>
     <g id="line2d_13">
      <g>
       <use style="stroke:#000000;stroke-width:0.5;" x="435.825" xlink:href="#m741efc42ff" y="44.1"/>
      </g>
     </g>
    </g>
    <g id="xtick_6">
     <g id="line2d_14">
      <g>
       <use style="stroke:#000000;stroke-width:0.5;" x="526.5" xlink:href="#m93b0483c22" y="147.864705882"/>
      </g>
     </g>
     <g id="line2d_15">
      <g>
       <use style="stroke:#000000;stroke-width:0.5;" x="526.5" xlink:href="#m741efc42ff" y="44.1"/>
      </g>
     </g>
    </g>
   </g>
   <g id="matplotlib.axis_2">
    <g id="ytick_1">
     <g id="line2d_16">
      <defs>
       <path d="
M0 0
L4 0" id="m728421d6d4" style="stroke:#000000;stroke-width:0.5;"/>
      </defs>
      <g>
       <use style="stroke:#000000;stroke-width:0.5;" x="73.125" xlink:href="#m728421d6d4" y="147.864705882"/>
      </g>
     </g>
     <g id="line2d_17">
      <defs>
       <path d="
M0 0
L-4 0" id="mcb0005524f" style="stroke:#000000;stroke-width:0.5;"/>
      </defs>
      <g>
       <use style="stroke:#000000;stroke-width:0.5;" x="526.5" xlink:href="#mcb0005524f" y="147.864705882"/>
      </g>
     </g>
     <g id="text_1">
      <!-- −30 -->
      <defs>
       <path d="
M31.7812 66.4062
Q24.1719 66.4062 20.3281 58.9062
Q16.5 51.4219 16.5 36.375
Q16.5 21.3906 20.3281 13.8906
Q24.1719 6.39062 31.7812 6.39062
Q39.4531 6.39062 43.2812 13.8906
Q47.125 21.3906 47.125 36.375
Q47.125 51.4219 43.2812 58.9062
Q39.4531 66.4062 31.7812 66.4062
M31.7812 74.2188
Q44.0469 74.2188 50.5156 64.5156
Q56.9844 54.8281 56.9844 36.375
Q56.9844 17.9688 50.5156 8.26562
Q44.0469 -1.42188 31.7812 -1.42188
Q19.5312 -1.42188 13.0625 8.26562
Q6.59375 17.9688 6.59375 36.375
Q6.59375 54.8281 13.0625 64.5156
Q19.5312 74.2188 31.7812 74.2188" id="DejaVuSans-30"/>
       <path d="
M40.5781 39.3125
Q47.6562 37.7969 51.625 33
Q55.6094 28.2188 55.6094 21.1875
Q55.6094 10.4062 48.1875 4.48438
Q40.7656 -1.42188 27.0938 -1.42188
Q22.5156 -1.42188 17.6562 -0.515625
Q12.7969 0.390625 7.625 2.20312
L7.625 11.7188
Q11.7188 9.32812 16.5938 8.10938
Q21.4844 6.89062 26.8125 6.89062
Q36.0781 6.89062 40.9375 10.5469
Q45.7969 14.2031 45.7969 21.1875
Q45.7969 27.6406 41.2812 31.2656
Q36.7656 34.9062 28.7188 34.9062
L20.2188 34.9062
L20.2188 43.0156
L29.1094 43.0156
Q36.375 43.0156 40.2344 45.9219
Q44.0938 48.8281 44.0938 54.2969
Q44.0938 59.9062 40.1094 62.9062
Q36.1406 65.9219 28.7188 65.9219
Q24.6562 65.9219 20.0156 65.0312
Q15.375 64.1562 9.8125 62.3125
L9.8125 71.0938
Q15.4375 72.6562 20.3438 73.4375
Q25.25 74.2188 29.5938 74.2188
Q40.8281 74.2188 47.3594 69.1094
Q53.9062 64.0156 53.9062 55.3281
Q53.9062 49.2656 50.4375 45.0938
Q46.9688 40.9219 40.5781 39.3125" id="DejaVuSans-33"/>
       <path d="
M10.5938 35.5
L73.1875 35.5
L73.1875 27.2031
L10.5938 27.2031
z
" id="DejaVuSans-2212"/>
      </defs>
      <g transform="translate(45.8675 151.175955882)scale(0.12 -0.12)">
       <use xlink:href="#DejaVuSans-2212"/>
       <use x="83.7890625" xlink:href="#DejaVuSans-33"/>
       <use x="147.412109375" xlink:href="#DejaVuSans-30"/>
      </g>
     </g>
    </g>
    <g id="ytick_2">
     <g id="line2d_18">
      <g>
       <use style="stroke:#000000;stroke-width:0.5;" x="73.125" xlink:href="#m728421d6d4" y="134.894117647"/>
      </g>
     </g>
     <g id="line2d_19">
      <g>
       <use style="stroke:#000000;stroke-width:0.5;" x="526.5" xlink:href="#mcb0005524f" y="134.894117647"/>
      </g>
     </g>
     <g id="text_2">
      <!-- −20 -->
      <defs>
       <path d="
M19.1875 8.29688
L53.6094 8.29688
L53.6094 0
L7.32812 0
L7.32812 8.29688
Q12.9375 14.1094 22.625 23.8906
Q32.3281 33.6875 34.8125 36.5312
Q39.5469 41.8438 41.4219 45.5312
Q43.3125 49.2188 43.3125 52.7812
Q43.3125 58.5938 39.2344 62.25
Q35.1562 65.9219 28.6094 65.9219
Q23.9688 65.9219 18.8125 64.3125
Q13.6719 62.7031 7.8125 59.4219
L7.8125 69.3906
Q13.7656 71.7812 18.9375 73
Q24.125 74.2188 28.4219 74.2188
Q39.75 74.2188 46.4844 68.5469
Q53.2188 62.8906 53.2188 53.4219
Q53.2188 48.9219 51.5312 44.8906
Q49.8594 40.875 45.4062 35.4062
Q44.1875 33.9844 37.6406 27.2188
Q31.1094 20.4531 19.1875 8.29688" id="DejaVuSans-32"/>
      </defs>
      <g transform="translate(45.8675 138.205367647)scale(0.12 -0.12)">
       <use xlink:href="#DejaVuSans-2212"/>
       <use x="83.7890625" xlink:href="#DejaVuSans-32"/>
       <use x="147.412109375" xlink:href="#DejaVuSans-30"/>
      </g>
     </g>
    </g>
    <g id="ytick_3">
     <g id="line2d_20">
      <g>
       <use style="stroke:#000000;stroke-width:0.5;" x="73.125" xlink:href="#m728421d6d4" y="121.923529412"/>
      </g>
     </g>
     <g id="line2d_21">
      <g>
       <use style="stroke:#000000;stroke-width:0.5;" x="526.5" xlink:href="#mcb0005524f" y="121.923529412"/>
      </g>
     </g>
     <g id="text_3">
      <!-- −10 -->
      <defs>
       <path d="
M12.4062 8.29688
L28.5156 8.29688
L28.5156 63.9219
L10.9844 60.4062
L10.9844 69.3906
L28.4219 72.9062
L38.2812 72.9062
L38.2812 8.29688
L54.3906 8.29688
L54.3906 0
L12.4062 0
z
" id="DejaVuSans-31"/>
      </defs>
      <g transform="translate(45.8675 125.234779412)scale(0.12 -0.12)">
       <use xlink:href="#DejaVuSans-2212"/>
       <use x="83.7890625" xlink:href="#DejaVuSans-31"/>
       <use x="147.412109375" xlink:href="#DejaVuSans-30"/>
      </g>
     </g>
    </g>
    <g id="ytick_4">
     <g id="line2d_22">
      <g>
       <use style="stroke:#000000;stroke-width:0.5;" x="73.125" xlink:href="#m728421d6d4" y="108.952941176"/>
      </g>
     </g>
     <g id="line2d_23">
      <g>
       <use style="stroke:#000000;stroke-width:0.5;" x="526.5" xlink:href="#mcb0005524f" y="108.952941176"/>
      </g>
     </g>
     <g id="text_4">
      <!-- 0 -->
      <g transform="translate(63.078125 112.264191176)scale(0.12 -0.12)">
       <use xlink:href="#DejaVuSans-30"/>
      </g>
     </g>
    </g>
    <g id="ytick_5">
     <g id="line2d_24">
      <g>
       <use style="stroke:#000000;stroke-width:0.5;" x="73.125" xlink:href="#m728421d6d4" y="95.9823529412"/>
      </g>
     </g>
     <g id="line2d_25">
      <g>
       <use style="stroke:#000000;stroke-width:0.5;" x="526.5" xlink:href="#mcb0005524f" y="95.9823529412"/>
      </g>
     </g>
     <g id="text_5">
      <!-- 10 -->
      <g transform="translate(55.97 99.2936029412)scale(0.12 -0.12)">
       <use xlink:href="#DejaVuSans-31"/>
       <use x="63.623046875" xlink:href="#DejaVuSans-30"/>
      </g>
     </g>
    </g>
    <g id="ytick_6">
     <g id="line2d_26">
      <g>
       <use style="stroke:#000000;stroke-width:0.5;" x="73.125" xlink:href="#m728421d6d4" y="83.0117647059"/>
      </g>
     </g>
     <g id="line2d_27">
      <g>
       <use style="stroke:#000000;stroke-width:0.5;" x="526.5" xlink:href="#mcb0005524f" y="83.0117647059"/>
      </g>
     </g>
     <g id="text_6">
      <!-- 20 -->
      <g transform="translate(55.53125 86.3230147059)scale(0.12 -0.12)">
       <use xlink:href="#DejaVuSans-32"/>
       <use x="63.623046875" xlink:href="#DejaVuSans-30"/>
      </g>
     </g>
    </g>
    <g id="ytick_7">
     <g id="line2d_28">
      <g>
       <use style="stroke:#000000;stroke-width:0.5;" x="73.125" xlink:href="#m728421d6d4" y="70.0411764706"/>
      </g>
     </g>
     <g id="line2d_29">
      <g>
       <use style="stroke:#000000;stroke-width:0.5;" x="526.5" xlink:href="#mcb0005524f" y="70.0411764706"/>
      </g>
     </g>
     <g id="text_7">
      <!-- 30 -->
      <g transform="translate(55.566875 73.3524264706)scale(0.12 -0.12)">
       <use xlink:href="#DejaVuSans-33"/>
       <use x="63.623046875" xlink:href="#DejaVuSans-30"/>
      </g>
     </g>
    </g>
    <g id="ytick_8">
     <g id="line2d_30">
      <g>
       <use style="stroke:#000000;stroke-width:0.5;" x="73.125" xlink:href="#m728421d6d4" y="57.0705882353"/>
      </g>
     </g>
     <g id="line2d_31">
      <g>
       <use style="stroke:#000000;stroke-width:0.5;" x="526.5" xlink:href="#mcb0005524f" y="57.0705882353"/>
      </g>
     </g>
     <g id="text_8">
      <!-- 40 -->
      <defs>
       <path d="
M37.7969 64.3125
L12.8906 25.3906
L37.7969 25.3906
z

M35.2031 72.9062
L47.6094 72.9062
L47.6094 25.3906
L58.0156 25.3906
L58.0156 17.1875
L47.6094 17.1875
L47.6094 0
L37.7969 0
L37.7969 17.1875
L4.89062 17.1875
L4.89062 26.7031
z
" id="DejaVuSans-34"/>
      </defs>
      <g transform="translate(55.23875 60.3818382353)scale(0.12 -0.12)">
       <use xlink:href="#DejaVuSans-34"/>
       <use x="63.623046875" xlink:href="#DejaVuSans-30"/>
      </g>
     </g>
    </g>
    <g id="ytick_9">
     <g id="line2d_32">
      <g>
       <use style="stroke:#000000;stroke-width:0.5;" x="73.125" xlink:href="#m728421d6d4" y="44.1"/>
      </g>
     </g>
     <g id="line2d_33">
      <g>
       <use style="stroke:#000000;stroke-width:0.5;" x="526.5" xlink:href="#mcb0005524f" y="44.1"/>
      </g>
     </g>
     <g id="text_9">
      <!-- 50 -->
      <defs>
       <path d="
M10.7969 72.9062
L49.5156 72.9062
L49.5156 64.5938
L19.8281 64.5938
L19.8281 46.7344
Q21.9688 47.4688 24.1094 47.8281
Q26.2656 48.1875 28.4219 48.1875
Q40.625 48.1875 47.75 41.5
Q54.8906 34.8125 54.8906 23.3906
Q54.8906 11.625 47.5625 5.09375
Q40.2344 -1.42188 26.9062 -1.42188
Q22.3125 -1.42188 17.5469 -0.640625
Q12.7969 0.140625 7.71875 1.70312
L7.71875 11.625
Q12.1094 9.23438 16.7969 8.0625
Q21.4844 6.89062 26.7031 6.89062
Q35.1562 6.89062 40.0781 11.3281
Q45.0156 15.7656 45.0156 23.3906
Q45.0156 31 40.0781 35.4375
Q35.1562 39.8906 26.7031 39.8906
Q22.75 39.8906 18.8125 39.0156
Q14.8906 38.1406 10.7969 36.2812
z
" id="DejaVuSans-35"/>
      </defs>
      <g transform="translate(55.578125 47.41125)scale(0.12 -0.12)">
       <use xlink:href="#DejaVuSans-35"/>
       <use x="63.623046875" xlink:href="#DejaVuSans-30"/>
      </g>
     </g>
    </g>
   </g>
   <g id="patch_3">
    <path d="
M73.125 44.1
L526.5 44.1" style="fill:none;stroke:#000000;"/>
   </g>
   <g id="patch_4">
    <path d="
M526.5 147.865
L526.5 44.1" style="fill:none;stroke:#000000;"/>
   </g>
   <g id="patch_5">
    <path d="
M73.125 147.865
L526.5 147.865" style="fill:none;stroke:#000000;"/>
   </g>
   <g id="patch_6">
    <path d="
M73.125 147.865
L73.125 44.1" style="fill:none;stroke:#000000;"/>
   </g>
   <g id="text_10">
    <!-- $p=0.5$ -->
    <defs>
     <path d="
M-2.48438 -19.3906
Q-3.42188 -19.3906 -3.42188 -18.1094
Q-3.07812 -15.9219 -2.09375 -15.9219
Q1.03125 -15.9219 2.26562 -15.3594
Q3.51562 -14.7969 4.20312 -12.5
L15.4844 32.5156
Q16.2188 34.375 16.2188 37.3125
Q16.2188 41.6094 13.2812 41.6094
Q10.1562 41.6094 8.64062 37.8594
Q7.125 34.125 5.71875 28.4219
Q5.71875 27.7812 4.89062 27.7812
L3.71875 27.7812
Q3.46875 27.7812 3.17188 28.1406
Q2.875 28.5156 2.875 28.8125
Q3.95312 33.1562 4.95312 36.1719
Q5.95312 39.2031 8.07812 41.6875
Q10.2031 44.1875 13.375 44.1875
Q16.7969 44.1875 19.375 42.25
Q21.9688 40.3281 22.7031 37.0156
Q25.4375 40.1875 28.75 42.1875
Q32.0781 44.1875 35.5938 44.1875
Q39.7969 44.1875 42.8906 41.9375
Q46 39.7031 47.5625 36.0625
Q49.125 32.4219 49.125 28.2188
Q49.125 21.7812 45.8281 14.8906
Q42.5312 8.01562 36.8906 3.4375
Q31.25 -1.125 24.8125 -1.125
Q21.875 -1.125 19.5 0.53125
Q17.1406 2.20312 15.8281 4.89062
L11.2812 -12.8906
Q11.0312 -14.3594 10.9844 -14.5938
Q10.9844 -15.9219 17.5781 -15.9219
Q18.6094 -15.9219 18.6094 -17.1875
Q18.2656 -18.5 18.0469 -18.9375
Q17.8281 -19.3906 16.8906 -19.3906
z

M24.9062 1.51562
Q28.375 1.51562 31.3438 4.375
Q34.3281 7.23438 36.1875 10.7969
Q37.5469 13.4844 38.7344 17.3594
Q39.9375 21.2344 40.8125 25.625
Q41.7031 30.0312 41.7031 32.625
Q41.7031 34.9062 41.0938 36.9062
Q40.4844 38.9219 39.0938 40.2656
Q37.7031 41.6094 35.4062 41.6094
Q31.7344 41.6094 28.4844 38.9844
Q25.25 36.375 22.6094 32.5156
L22.6094 32.1719
L17.0938 10.1094
Q17.7812 6.54688 19.7344 4.03125
Q21.6875 1.51562 24.9062 1.51562" id="Cmmi10-70"/>
     <path d="
M25 -2.20312
Q12.75 -2.20312 8.32812 7.875
Q3.90625 17.9688 3.90625 31.8906
Q3.90625 40.5781 5.48438 48.2344
Q7.07812 55.9062 11.7812 61.25
Q16.5 66.6094 25 66.6094
Q31.5938 66.6094 35.7812 63.375
Q39.9844 60.1562 42.1875 55.0469
Q44.3906 49.9531 45.1875 44.1094
Q46 38.2812 46 31.8906
Q46 23.2969 44.4062 15.7969
Q42.8281 8.29688 38.1875 3.04688
Q33.5469 -2.20312 25 -2.20312
M25 0.390625
Q30.5625 0.390625 33.2969 6.09375
Q36.0312 11.8125 36.6719 18.75
Q37.3125 25.6875 37.3125 33.5
Q37.3125 41.0156 36.6719 47.3594
Q36.0312 53.7188 33.3125 58.8594
Q30.6094 64.0156 25 64.0156
Q19.3438 64.0156 16.6094 58.8281
Q13.875 53.6562 13.2344 47.3281
Q12.5938 41.0156 12.5938 33.5
Q12.5938 27.9375 12.8594 23
Q13.1406 18.0625 14.3125 12.8125
Q15.4844 7.5625 18.0938 3.96875
Q20.7031 0.390625 25 0.390625" id="Cmr10-30"/>
     <path d="
M8.40625 5.51562
Q8.40625 7.76562 10.0625 9.375
Q11.7188 10.9844 13.9219 10.9844
Q15.2812 10.9844 16.5938 10.25
Q17.9219 9.51562 18.6562 8.20312
Q19.3906 6.89062 19.3906 5.51562
Q19.3906 3.32812 17.7656 1.65625
Q16.1562 0 13.9219 0
Q11.7188 0 10.0625 1.65625
Q8.40625 3.32812 8.40625 5.51562" id="Cmmi10-3a"/>
     <path d="
M8.6875 11.375
Q9.71875 8.45312 11.8438 6.04688
Q13.9688 3.65625 16.875 2.3125
Q19.7812 0.984375 22.9062 0.984375
Q30.125 0.984375 32.8594 6.59375
Q35.5938 12.2031 35.5938 20.2188
Q35.5938 23.6875 35.4688 26.0469
Q35.3594 28.4219 34.8125 30.6094
Q33.8906 34.125 31.5625 36.7656
Q29.25 39.4062 25.875 39.4062
Q22.5156 39.4062 20.0938 38.375
Q17.6719 37.3594 16.1562 35.9844
Q14.6562 34.625 13.4844 33.1094
Q12.3125 31.5938 12.0156 31.5
L10.8906 31.5
Q10.6406 31.5 10.2656 31.8125
Q9.90625 32.125 9.90625 32.4219
L9.90625 65.8281
Q9.90625 66.0625 10.2188 66.3281
Q10.5469 66.6094 10.8906 66.6094
L11.1875 66.6094
Q17.9219 63.375 25.4844 63.375
Q32.9062 63.375 39.7969 66.6094
L40.0938 66.6094
Q40.4375 66.6094 40.7188 66.3594
Q41.0156 66.1094 41.0156 65.8281
L41.0156 64.8906
Q41.0156 64.4062 40.8281 64.4062
Q37.4062 59.8594 32.25 57.3125
Q27.0938 54.7812 21.5781 54.7812
Q17.5781 54.7812 13.375 55.9062
L13.375 37.0156
Q16.7031 39.7031 19.3125 40.8438
Q21.9219 42 25.9844 42
Q31.5 42 35.8594 38.8125
Q40.2344 35.6406 42.5781 30.5312
Q44.9219 25.4375 44.9219 20.125
Q44.9219 14.1094 41.9688 8.98438
Q39.0156 3.85938 33.9375 0.828125
Q28.8594 -2.20312 22.9062 -2.20312
Q17.9688 -2.20312 13.8438 0.328125
Q9.71875 2.875 7.34375 7.17188
Q4.98438 11.4688 4.98438 16.3125
Q4.98438 18.5625 6.4375 19.9688
Q7.90625 21.3906 10.1094 21.3906
Q12.3125 21.3906 13.7969 19.9375
Q15.2812 18.5 15.2812 16.3125
Q15.2812 14.1562 13.7969 12.6719
Q12.3125 11.1875 10.1094 11.1875
Q9.76562 11.1875 9.32812 11.25
Q8.89062 11.3281 8.6875 11.375" id="Cmr10-35"/>
     <path d="
M7.51562 13.2812
Q6.6875 13.2812 6.14062 13.9062
Q5.60938 14.5469 5.60938 15.2812
Q5.60938 16.1094 6.14062 16.6875
Q6.6875 17.2812 7.51562 17.2812
L70.3125 17.2812
Q71.0469 17.2812 71.5781 16.6875
Q72.125 16.1094 72.125 15.2812
Q72.125 14.5469 71.5781 13.9062
Q71.0469 13.2812 70.3125 13.2812
z

M7.51562 32.7188
Q6.6875 32.7188 6.14062 33.2969
Q5.60938 33.8906 5.60938 34.7188
Q5.60938 35.4531 6.14062 36.0781
Q6.6875 36.7188 7.51562 36.7188
L70.3125 36.7188
Q71.0469 36.7188 71.5781 36.0781
Q72.125 35.4531 72.125 34.7188
Q72.125 33.8906 71.5781 33.2969
Q71.0469 32.7188 70.3125 32.7188
z
" id="Cmr10-3d"/>
    </defs>
    <g transform="translate(274.5225 39.1)scale(0.18 -0.18)">
     <use transform="translate(0.0 0.390625)" xlink:href="#Cmmi10-70"/>
     <use transform="translate(67.8515625 0.390625)" xlink:href="#Cmr10-3d"/>
     <use transform="translate(151.91015625 0.390625)" xlink:href="#Cmr10-30"/>
     <use transform="translate(201.91015625 0.390625)" xlink:href="#Cmmi10-3a"/>
     <use transform="translate(230.453125 0.390625)" xlink:href="#Cmr10-35"/>
    </g>
   </g>
  </g>
  <g id="axes_2">
   <g id="patch_7">
    <path d="
M73.125 272.382
L526.5 272.382
L526.5 168.618
L73.125 168.618
z
" style="fill:#ffffff;"/>
   </g>
   <g id="line2d_34">
    <path clip-path="url(#pe8771a43b3)" d="
M73.125 227.615
L73.5784 227.319
L76.2986 229.098
L93.5269 217.832
L94.4336 218.425
L94.887 218.128
L100.781 221.982
L112.115 214.571
L113.475 215.46
L117.556 212.792
L124.81 217.535
L129.797 214.274
L130.704 214.867
L132.517 213.681
L135.237 215.46
L144.758 209.234
L151.106 213.385
L151.559 213.088
L160.173 218.721
L177.855 207.159
L183.749 211.013
L186.922 208.938
L190.096 211.013
L195.536 207.455
L196.443 208.048
L198.257 206.862
L205.057 211.309
L211.404 207.159
L214.125 208.938
L220.925 204.491
L222.285 205.38
L224.552 203.898
L225.006 204.194
L225.912 203.601
L226.819 204.194
L229.086 202.712
L231.353 204.194
L235.887 201.229
L238.154 202.712
L239.514 201.822
L244.047 204.787
L244.954 204.194
L246.768 205.38
L249.035 203.898
L256.288 208.641
L256.742 208.345
L261.276 211.309
L265.356 208.641
L265.809 208.938
L274.877 203.008
L275.33 203.305
L277.597 201.822
L281.224 204.194
L289.385 198.858
L293.012 201.229
L302.079 195.3
L305.253 197.375
L317.041 189.667
L329.735 197.968
L335.629 194.114
L336.989 195.004
L337.896 194.411
L342.43 197.375
L351.044 191.742
L355.578 194.707
L367.819 186.702
L371.446 189.074
L378.7 184.331
L384.594 188.185
L391.394 183.738
L392.301 184.331
L399.555 179.587
L400.008 179.884
L401.369 178.994
L403.182 180.18
L404.995 178.994
L407.262 180.476
L409.076 179.291
L411.343 180.773
L411.796 180.476
L417.237 184.034
L420.41 181.959
L420.864 182.255
L421.317 181.959
L421.77 182.255
L427.211 178.698
L427.664 178.994
L429.931 177.512
L434.012 180.18
L434.918 179.587
L448.52 188.481
L449.426 187.888
L452.6 189.964
L460.307 184.924
L472.095 192.632
L483.883 184.924
L485.696 186.109
L491.137 182.552
L498.391 187.295
L500.658 185.813
L502.925 187.295
L509.272 183.145
L521.06 190.853
L523.78 189.074
L525.593 190.26
L526.047 189.964
L526.047 189.964" style="fill:none;stroke:#0000ff;stroke-linecap:square;"/>
   </g>
   <g id="line2d_35">
    <path clip-path="url(#pe8771a43b3)" d="
M73.125 227.615
L76.2986 229.691
L81.7391 226.133
L83.0992 227.022
L86.7262 224.651
L98.514 232.359
L103.048 229.394
L105.315 230.876
L106.221 230.284
L112.569 234.434
L128.89 223.761
L133.877 227.022
L135.691 225.836
L137.051 226.726
L146.118 220.796
L154.733 226.429
L156.093 225.54
L163.347 230.284
L165.16 229.098
L166.067 229.691
L171.507 226.133
L179.668 231.469
L182.842 229.394
L186.922 232.062
L188.736 230.876
L193.723 234.138
L195.083 233.248
L195.536 233.545
L197.803 232.062
L207.324 238.288
L208.684 237.399
L210.044 238.288
L217.298 233.545
L217.752 233.841
L218.658 233.248
L226.366 238.288
L227.726 237.399
L229.086 238.288
L229.539 237.992
L233.166 240.364
L234.526 239.474
L236.793 240.956
L239.06 239.474
L254.475 249.554
L256.742 248.072
L257.195 248.368
L265.356 243.032
L272.157 247.479
L285.305 238.881
L295.732 245.7
L300.266 242.735
L301.173 243.328
L308.427 238.585
L312.507 241.253
L314.774 239.771
L317.494 241.549
L319.308 240.364
L336.536 251.629
L344.243 246.589
L352.404 251.926
L355.124 250.147
L358.298 252.222
L368.272 245.7
L384.14 256.076
L385.954 254.891
L387.767 256.076
L390.941 254.001
L391.394 254.298
L393.661 252.815
L395.928 254.298
L396.835 253.705
L402.729 257.559
L409.529 253.112
L416.33 257.559
L422.677 253.408
L423.131 253.705
L424.037 253.112
L432.651 258.745
L439.905 254.001
L443.079 256.076
L448.973 252.222
L449.426 252.519
L456.68 247.775
L461.214 250.74
L463.934 248.961
L464.841 249.554
L466.655 248.368
L468.015 249.258
L473.002 245.996
L473.455 246.293
L480.256 241.846
L481.163 242.439
L482.069 241.846
L484.336 243.328
L492.497 237.992
L495.217 239.771
L497.937 237.992
L498.391 238.288
L501.111 236.509
L502.471 237.399
L508.818 233.248
L511.085 234.731
L525.593 225.244
L526.047 225.54
L526.047 225.54" style="fill:none;stroke:#008000;stroke-linecap:square;"/>
   </g>
   <g id="line2d_36">
    <path clip-path="url(#pe8771a43b3)" d="
M73.125 227.615
L74.9385 226.429
L78.1121 228.505
L79.4723 227.615
L79.9256 227.912
L80.8324 227.319
L83.5526 229.098
L87.633 226.429
L88.0864 226.726
L93.0735 223.465
L104.408 230.876
L106.675 229.394
L116.649 235.916
L118.916 234.434
L123.903 237.695
L126.17 236.213
L141.131 245.996
L142.945 244.811
L144.305 245.7
L144.758 245.404
L147.478 247.182
L148.839 246.293
L149.745 246.886
L151.559 245.7
L155.186 248.072
L156.546 247.182
L163.8 251.926
L164.253 251.629
L165.613 252.519
L168.334 250.74
L168.787 251.036
L172.414 248.665
L184.202 256.373
L186.922 254.594
L191.002 257.262
L193.723 255.484
L194.176 255.78
L197.35 253.705
L210.498 262.302
L225.912 252.222
L226.366 252.519
L235.433 246.589
L237.247 247.775
L239.967 245.996
L240.874 246.589
L241.781 245.996
L250.848 251.926
L252.662 250.74
L255.382 252.519
L255.835 252.222
L268.983 260.82
L277.144 255.484
L283.944 259.931
L290.745 255.484
L291.198 255.78
L292.558 254.891
L296.639 257.559
L308.427 249.851
L309.787 250.74
L312.507 248.961
L313.867 249.851
L314.774 249.258
L315.227 249.554
L317.494 248.072
L317.947 248.368
L329.735 240.66
L333.816 243.328
L336.989 241.253
L341.976 244.514
L342.883 243.921
L343.79 244.514
L344.697 243.921
L345.15 244.218
L351.044 240.364
L352.857 241.549
L355.124 240.067
L358.298 242.142
L361.925 239.771
L368.272 243.921
L370.086 242.735
L375.073 245.996
L381.42 241.846
L381.873 242.142
L382.327 241.846
L385.5 243.921
L385.954 243.625
L393.208 248.368
L407.262 239.178
L408.169 239.771
L414.063 235.916
L415.877 237.102
L418.597 235.324
L419.05 235.62
L422.224 233.545
L429.478 238.288
L431.745 236.806
L433.105 237.695
L435.372 236.213
L435.825 236.509
L438.545 234.731
L446.253 239.771
L447.613 238.881
L462.574 248.665
L468.015 245.107
L469.375 245.996
L469.828 245.7
L471.188 246.589
L484.336 237.992
L490.23 241.846
L493.857 239.474
L505.191 246.886
L507.912 245.107
L515.166 249.851
L519.246 247.182
L526.047 251.629
L526.047 251.629" style="fill:none;stroke:#ff0000;stroke-linecap:square;"/>
   </g>
   <g id="matplotlib.axis_3">
    <g id="xtick_7">
     <g id="line2d_37">
      <g>
       <use style="stroke:#000000;stroke-width:0.5;" x="73.125" xlink:href="#m93b0483c22" y="272.382352941"/>
      </g>
     </g>
     <g id="line2d_38">
      <g>
       <use style="stroke:#000000;stroke-width:0.5;" x="73.125" xlink:href="#m741efc42ff" y="168.617647059"/>
      </g>
     </g>
    </g>
    <g id="xtick_8">
     <g id="line2d_39">
      <g>
       <use style="stroke:#000000;stroke-width:0.5;" x="163.8" xlink:href="#m93b0483c22" y="272.382352941"/>
      </g>
     </g>
     <g id="line2d_40">
      <g>
       <use style="stroke:#000000;stroke-width:0.5;" x="163.8" xlink:href="#m741efc42ff" y="168.617647059"/>
      </g>
     </g>
    </g>
    <g id="xtick_9">
     <g id="line2d_41">
      <g>
       <use style="stroke:#000000;stroke-width:0.5;" x="254.475" xlink:href="#m93b0483c22" y="272.382352941"/>
      </g>
     </g>
     <g id="line2d_42">
      <g>
       <use style="stroke:#000000;stroke-width:0.5;" x="254.475" xlink:href="#m741efc42ff" y="168.617647059"/>
      </g>
     </g>
    </g>
    <g id="xtick_10">
     <g id="line2d_43">
      <g>
       <use style="stroke:#000000;stroke-width:0.5;" x="345.15" xlink:href="#m93b0483c22" y="272.382352941"/>
      </g>
     </g>
     <g id="line2d_44">
      <g>
       <use style="stroke:#000000;stroke-width:0.5;" x="345.15" xlink:href="#m741efc42ff" y="168.617647059"/>
      </g>
     </g>
    </g>
    <g id="xtick_11">
     <g id="line2d_45">
      <g>
       <use style="stroke:#000000;stroke-width:0.5;" x="435.825" xlink:href="#m93b0483c22" y="272.382352941"/>
      </g>
     </g>
     <g id="line2d_46">
      <g>
       <use style="stroke:#000000;stroke-width:0.5;" x="435.825" xlink:href="#m741efc42ff" y="168.617647059"/>
      </g>
     </g>
    </g>
    <g id="xtick_12">
     <g id="line2d_47">
      <g>
       <use style="stroke:#000000;stroke-width:0.5;" x="526.5" xlink:href="#m93b0483c22" y="272.382352941"/>
      </g>
     </g>
     <g id="line2d_48">
      <g>
       <use style="stroke:#000000;stroke-width:0.5;" x="526.5" xlink:href="#m741efc42ff" y="168.617647059"/>
      </g>
     </g>
    </g>
   </g>
   <g id="matplotlib.axis_4">
    <g id="ytick_10">
     <g id="line2d_49">
      <g>
       <use style="stroke:#000000;stroke-width:0.5;" x="73.125" xlink:href="#m728421d6d4" y="272.382352941"/>
      </g>
     </g>
     <g id="line2d_50">
      <g>
       <use style="stroke:#000000;stroke-width:0.5;" x="526.5" xlink:href="#mcb0005524f" y="272.382352941"/>
      </g>
     </g>
     <g id="text_11">
      <!-- −150 -->
      <g transform="translate(38.2325 275.693602941)scale(0.12 -0.12)">
       <use xlink:href="#DejaVuSans-2212"/>
       <use x="83.7890625" xlink:href="#DejaVuSans-31"/>
       <use x="147.412109375" xlink:href="#DejaVuSans-35"/>
       <use x="211.03515625" xlink:href="#DejaVuSans-30"/>
      </g>
     </g>
    </g>
    <g id="ytick_11">
     <g id="line2d_51">
      <g>
       <use style="stroke:#000000;stroke-width:0.5;" x="73.125" xlink:href="#m728421d6d4" y="257.558823529"/>
      </g>
     </g>
     <g id="line2d_52">
      <g>
       <use style="stroke:#000000;stroke-width:0.5;" x="526.5" xlink:href="#mcb0005524f" y="257.558823529"/>
      </g>
     </g>
     <g id="text_12">
      <!-- −100 -->
      <g transform="translate(38.2325 260.870073529)scale(0.12 -0.12)">
       <use xlink:href="#DejaVuSans-2212"/>
       <use x="83.7890625" xlink:href="#DejaVuSans-31"/>
       <use x="147.412109375" xlink:href="#DejaVuSans-30"/>
       <use x="211.03515625" xlink:href="#DejaVuSans-30"/>
      </g>
     </g>
    </g>
    <g id="ytick_12">
     <g id="line2d_53">
      <g>
       <use style="stroke:#000000;stroke-width:0.5;" x="73.125" xlink:href="#m728421d6d4" y="242.735294118"/>
      </g>
     </g>
     <g id="line2d_54">
      <g>
       <use style="stroke:#000000;stroke-width:0.5;" x="526.5" xlink:href="#mcb0005524f" y="242.735294118"/>
      </g>
     </g>
     <g id="text_13">
      <!-- −50 -->
      <g transform="translate(45.8675 246.046544118)scale(0.12 -0.12)">
       <use xlink:href="#DejaVuSans-2212"/>
       <use x="83.7890625" xlink:href="#DejaVuSans-35"/>
       <use x="147.412109375" xlink:href="#DejaVuSans-30"/>
      </g>
     </g>
    </g>
    <g id="ytick_13">
     <g id="line2d_55">
      <g>
       <use style="stroke:#000000;stroke-width:0.5;" x="73.125" xlink:href="#m728421d6d4" y="227.911764706"/>
      </g>
     </g>
     <g id="line2d_56">
      <g>
       <use style="stroke:#000000;stroke-width:0.5;" x="526.5" xlink:href="#mcb0005524f" y="227.911764706"/>
      </g>
     </g>
     <g id="text_14">
      <!-- 0 -->
      <g transform="translate(63.078125 231.223014706)scale(0.12 -0.12)">
       <use xlink:href="#DejaVuSans-30"/>
      </g>
     </g>
    </g>
    <g id="ytick_14">
     <g id="line2d_57">
      <g>
       <use style="stroke:#000000;stroke-width:0.5;" x="73.125" xlink:href="#m728421d6d4" y="213.088235294"/>
      </g>
     </g>
     <g id="line2d_58">
      <g>
       <use style="stroke:#000000;stroke-width:0.5;" x="526.5" xlink:href="#mcb0005524f" y="213.088235294"/>
      </g>
     </g>
     <g id="text_15">
      <!-- 50 -->
      <g transform="translate(55.578125 216.399485294)scale(0.12 -0.12)">
       <use xlink:href="#DejaVuSans-35"/>
       <use x="63.623046875" xlink:href="#DejaVuSans-30"/>
      </g>
     </g>
    </g>
    <g id="ytick_15">
     <g id="line2d_59">
      <g>
       <use style="stroke:#000000;stroke-width:0.5;" x="73.125" xlink:href="#m728421d6d4" y="198.264705882"/>
      </g>
     </g>
     <g id="line2d_60">
      <g>
       <use style="stroke:#000000;stroke-width:0.5;" x="526.5" xlink:href="#mcb0005524f" y="198.264705882"/>
      </g>
     </g>
     <g id="text_16">
      <!-- 100 -->
      <g transform="translate(48.335 201.575955882)scale(0.12 -0.12)">
       <use xlink:href="#DejaVuSans-31"/>
       <use x="63.623046875" xlink:href="#DejaVuSans-30"/>
       <use x="127.24609375" xlink:href="#DejaVuSans-30"/>
      </g>
     </g>
    </g>
    <g id="ytick_16">
     <g id="line2d_61">
      <g>
       <use style="stroke:#000000;stroke-width:0.5;" x="73.125" xlink:href="#m728421d6d4" y="183.441176471"/>
      </g>
     </g>
     <g id="line2d_62">
      <g>
       <use style="stroke:#000000;stroke-width:0.5;" x="526.5" xlink:href="#mcb0005524f" y="183.441176471"/>
      </g>
     </g>
     <g id="text_17">
      <!-- 150 -->
      <g transform="translate(48.335 186.752426471)scale(0.12 -0.12)">
       <use xlink:href="#DejaVuSans-31"/>
       <use x="63.623046875" xlink:href="#DejaVuSans-35"/>
       <use x="127.24609375" xlink:href="#DejaVuSans-30"/>
      </g>
     </g>
    </g>
    <g id="ytick_17">
     <g id="line2d_63">
      <g>
       <use style="stroke:#000000;stroke-width:0.5;" x="73.125" xlink:href="#m728421d6d4" y="168.617647059"/>
      </g>
     </g>
     <g id="line2d_64">
      <g>
       <use style="stroke:#000000;stroke-width:0.5;" x="526.5" xlink:href="#mcb0005524f" y="168.617647059"/>
      </g>
     </g>
     <g id="text_18">
      <!-- 200 -->
      <g transform="translate(47.89625 171.928897059)scale(0.12 -0.12)">
       <use xlink:href="#DejaVuSans-32"/>
       <use x="63.623046875" xlink:href="#DejaVuSans-30"/>
       <use x="127.24609375" xlink:href="#DejaVuSans-30"/>
      </g>
     </g>
    </g>
    <g id="text_19">
     <!-- Displacement, $X$ -->
     <defs>
      <path d="
M3.60938 0
Q2.59375 0 2.59375 1.3125
Q2.64062 1.5625 2.8125 2.1875
Q2.98438 2.82812 3.25 3.17188
Q3.51562 3.51562 4 3.51562
Q13.0938 3.51562 19.5781 10.2969
Q19.6719 10.4062 19.7969 10.4531
Q19.9219 10.5 19.9219 10.5
L41.7969 34.0781
L29.8906 62.7969
Q28.8594 64.1094 26.5625 64.4531
Q24.2656 64.7969 21.1875 64.7969
Q20.2188 64.7969 20.2188 66.1094
Q20.5625 67.3906 20.75 67.8438
Q20.9531 68.3125 21.9219 68.3125
L46.9219 68.3125
Q47.9062 68.3125 47.9062 67
Q47.8594 66.75 47.6875 66.1094
Q47.5156 65.4844 47.2344 65.1406
Q46.9688 64.7969 46.4844 64.7969
Q44.625 64.7969 42.6406 64.1875
Q40.6719 63.5781 39.8906 62.2031
L48.4844 41.5
L64.8906 59.0781
Q65.0469 59.4219 65.5781 60.2812
Q66.1094 61.1406 66.1094 61.9219
Q66.1094 63.375 64.8438 64.0781
Q63.5781 64.7969 61.8125 64.7969
Q60.7969 64.7969 60.7969 66.1094
Q61.1406 67.3906 61.3281 67.8438
Q61.5312 68.3125 62.5 68.3125
L84.1875 68.3125
Q84.7188 68.3125 84.9531 67.9219
Q85.2031 67.5312 85.2031 67
Q85.1562 66.75 85 66.1562
Q84.8594 65.5781 84.6094 65.1875
Q84.375 64.7969 83.8906 64.7969
Q79.25 64.7969 75.3594 63.1094
Q71.4844 61.4219 68.2188 58.0156
Q68.1719 57.9531 68.0938 57.9219
Q68.0156 57.9062 67.9219 57.8125
L49.8125 38.2812
L63.4844 5.51562
Q65.0938 3.51562 72.2188 3.51562
Q73.1875 3.51562 73.1875 2.20312
Q72.8594 0.875 72.625 0.4375
Q72.4062 0 71.4844 0
L46.4844 0
Q45.5156 0 45.5156 1.3125
Q45.5625 1.5625 45.7031 2.17188
Q45.8438 2.78125 46.1094 3.14062
Q46.3906 3.51562 46.7812 3.51562
Q48.7344 3.51562 50.7344 4.125
Q52.7344 4.73438 53.5156 6.10938
L43.1094 31
L22.9062 9.1875
Q22.75 8.84375 22.2188 8
Q21.6875 7.17188 21.6875 6.39062
Q21.6875 4.9375 23.0469 4.21875
Q24.4219 3.51562 25.9844 3.51562
Q27 3.51562 27 2.20312
Q26.6562 0.78125 26.4531 0.390625
Q26.2656 0 25.2969 0
z
" id="Cmmi10-58"/>
      <path d="
M11.7188 12.4062
L22.0156 12.4062
L22.0156 4
L14.0156 -11.625
L7.71875 -11.625
L11.7188 4
z
" id="DejaVuSans-2c"/>
      <path d="
M52 44.1875
Q55.375 50.25 60.0625 53.125
Q64.75 56 71.0938 56
Q79.6406 56 84.2812 50.0156
Q88.9219 44.0469 88.9219 33.0156
L88.9219 0
L79.8906 0
L79.8906 32.7188
Q79.8906 40.5781 77.0938 44.375
Q74.3125 48.1875 68.6094 48.1875
Q61.625 48.1875 57.5625 43.5469
Q53.5156 38.9219 53.5156 30.9062
L53.5156 0
L44.4844 0
L44.4844 32.7188
Q44.4844 40.625 41.7031 44.4062
Q38.9219 48.1875 33.1094 48.1875
Q26.2188 48.1875 22.1562 43.5312
Q18.1094 38.875 18.1094 30.9062
L18.1094 0
L9.07812 0
L9.07812 54.6875
L18.1094 54.6875
L18.1094 46.1875
Q21.1875 51.2188 25.4844 53.6094
Q29.7812 56 35.6875 56
Q41.6562 56 45.8281 52.9688
Q50 49.9531 52 44.1875" id="DejaVuSans-6d"/>
      <path d="
M54.8906 33.0156
L54.8906 0
L45.9062 0
L45.9062 32.7188
Q45.9062 40.4844 42.875 44.3281
Q39.8438 48.1875 33.7969 48.1875
Q26.5156 48.1875 22.3125 43.5469
Q18.1094 38.9219 18.1094 30.9062
L18.1094 0
L9.07812 0
L9.07812 54.6875
L18.1094 54.6875
L18.1094 46.1875
Q21.3438 51.125 25.7031 53.5625
Q30.0781 56 35.7969 56
Q45.2188 56 50.0469 50.1719
Q54.8906 44.3438 54.8906 33.0156" id="DejaVuSans-6e"/>
      <path d="
M9.42188 75.9844
L18.4062 75.9844
L18.4062 0
L9.42188 0
z
" id="DejaVuSans-6c"/>
      <path d="
M48.7812 52.5938
L48.7812 44.1875
Q44.9688 46.2969 41.1406 47.3438
Q37.3125 48.3906 33.4062 48.3906
Q24.6562 48.3906 19.8125 42.8438
Q14.9844 37.3125 14.9844 27.2969
Q14.9844 17.2812 19.8125 11.7344
Q24.6562 6.20312 33.4062 6.20312
Q37.3125 6.20312 41.1406 7.25
Q44.9688 8.29688 48.7812 10.4062
L48.7812 2.09375
Q45.0156 0.34375 40.9844 -0.53125
Q36.9688 -1.42188 32.4219 -1.42188
Q20.0625 -1.42188 12.7812 6.34375
Q5.51562 14.1094 5.51562 27.2969
Q5.51562 40.6719 12.8594 48.3281
Q20.2188 56 33.0156 56
Q37.1562 56 41.1094 55.1406
Q45.0625 54.2969 48.7812 52.5938" id="DejaVuSans-63"/>
      <path d="
M19.6719 64.7969
L19.6719 8.10938
L31.5938 8.10938
Q46.6875 8.10938 53.6875 14.9375
Q60.6875 21.7812 60.6875 36.5312
Q60.6875 51.1719 53.6875 57.9844
Q46.6875 64.7969 31.5938 64.7969
z

M9.8125 72.9062
L30.0781 72.9062
Q51.2656 72.9062 61.1719 64.0938
Q71.0938 55.2812 71.0938 36.5312
Q71.0938 17.6719 61.125 8.82812
Q51.1719 0 30.0781 0
L9.8125 0
z
" id="DejaVuSans-44"/>
      <path id="DejaVuSans-20"/>
      <path d="
M9.42188 54.6875
L18.4062 54.6875
L18.4062 0
L9.42188 0
z

M9.42188 75.9844
L18.4062 75.9844
L18.4062 64.5938
L9.42188 64.5938
z
" id="DejaVuSans-69"/>
      <path d="
M18.3125 70.2188
L18.3125 54.6875
L36.8125 54.6875
L36.8125 47.7031
L18.3125 47.7031
L18.3125 18.0156
Q18.3125 11.3281 20.1406 9.42188
Q21.9688 7.51562 27.5938 7.51562
L36.8125 7.51562
L36.8125 0
L27.5938 0
Q17.1875 0 13.2344 3.875
Q9.28125 7.76562 9.28125 18.0156
L9.28125 47.7031
L2.6875 47.7031
L2.6875 54.6875
L9.28125 54.6875
L9.28125 70.2188
z
" id="DejaVuSans-74"/>
      <path d="
M56.2031 29.5938
L56.2031 25.2031
L14.8906 25.2031
Q15.4844 15.9219 20.4844 11.0625
Q25.4844 6.20312 34.4219 6.20312
Q39.5938 6.20312 44.4531 7.46875
Q49.3125 8.73438 54.1094 11.2812
L54.1094 2.78125
Q49.2656 0.734375 44.1875 -0.34375
Q39.1094 -1.42188 33.8906 -1.42188
Q20.7969 -1.42188 13.1562 6.1875
Q5.51562 13.8125 5.51562 26.8125
Q5.51562 40.2344 12.7656 48.1094
Q20.0156 56 32.3281 56
Q43.3594 56 49.7812 48.8906
Q56.2031 41.7969 56.2031 29.5938
M47.2188 32.2344
Q47.125 39.5938 43.0938 43.9844
Q39.0625 48.3906 32.4219 48.3906
Q24.9062 48.3906 20.3906 44.1406
Q15.875 39.8906 15.1875 32.1719
z
" id="DejaVuSans-65"/>
      <path d="
M18.1094 8.20312
L18.1094 -20.7969
L9.07812 -20.7969
L9.07812 54.6875
L18.1094 54.6875
L18.1094 46.3906
Q20.9531 51.2656 25.2656 53.625
Q29.5938 56 35.5938 56
Q45.5625 56 51.7812 48.0938
Q58.0156 40.1875 58.0156 27.2969
Q58.0156 14.4062 51.7812 6.48438
Q45.5625 -1.42188 35.5938 -1.42188
Q29.5938 -1.42188 25.2656 0.953125
Q20.9531 3.32812 18.1094 8.20312
M48.6875 27.2969
Q48.6875 37.2031 44.6094 42.8438
Q40.5312 48.4844 33.4062 48.4844
Q26.2656 48.4844 22.1875 42.8438
Q18.1094 37.2031 18.1094 27.2969
Q18.1094 17.3906 22.1875 11.75
Q26.2656 6.10938 33.4062 6.10938
Q40.5312 6.10938 44.6094 11.75
Q48.6875 17.3906 48.6875 27.2969" id="DejaVuSans-70"/>
      <path d="
M44.2812 53.0781
L44.2812 44.5781
Q40.4844 46.5312 36.375 47.5
Q32.2812 48.4844 27.875 48.4844
Q21.1875 48.4844 17.8438 46.4375
Q14.5 44.3906 14.5 40.2812
Q14.5 37.1562 16.8906 35.375
Q19.2812 33.5938 26.5156 31.9844
L29.5938 31.2969
Q39.1562 29.25 43.1875 25.5156
Q47.2188 21.7812 47.2188 15.0938
Q47.2188 7.46875 41.1875 3.01562
Q35.1562 -1.42188 24.6094 -1.42188
Q20.2188 -1.42188 15.4531 -0.5625
Q10.6875 0.296875 5.42188 2
L5.42188 11.2812
Q10.4062 8.6875 15.2344 7.39062
Q20.0625 6.10938 24.8125 6.10938
Q31.1562 6.10938 34.5625 8.28125
Q37.9844 10.4531 37.9844 14.4062
Q37.9844 18.0625 35.5156 20.0156
Q33.0625 21.9688 24.7031 23.7812
L21.5781 24.5156
Q13.2344 26.2656 9.51562 29.9062
Q5.8125 33.5469 5.8125 39.8906
Q5.8125 47.6094 11.2812 51.7969
Q16.75 56 26.8125 56
Q31.7812 56 36.1719 55.2656
Q40.5781 54.5469 44.2812 53.0781" id="DejaVuSans-73"/>
      <path d="
M34.2812 27.4844
Q23.3906 27.4844 19.1875 25
Q14.9844 22.5156 14.9844 16.5
Q14.9844 11.7188 18.1406 8.90625
Q21.2969 6.10938 26.7031 6.10938
Q34.1875 6.10938 38.7031 11.4062
Q43.2188 16.7031 43.2188 25.4844
L43.2188 27.4844
z

M52.2031 31.2031
L52.2031 0
L43.2188 0
L43.2188 8.29688
Q40.1406 3.32812 35.5469 0.953125
Q30.9531 -1.42188 24.3125 -1.42188
Q15.9219 -1.42188 10.9531 3.29688
Q6 8.01562 6 15.9219
Q6 25.1406 12.1719 29.8281
Q18.3594 34.5156 30.6094 34.5156
L43.2188 34.5156
L43.2188 35.4062
Q43.2188 41.6094 39.1406 45
Q35.0625 48.3906 27.6875 48.3906
Q23 48.3906 18.5469 47.2656
Q14.1094 46.1406 10.0156 43.8906
L10.0156 52.2031
Q14.9375 54.1094 19.5781 55.0469
Q24.2188 56 28.6094 56
Q40.4844 56 46.3438 49.8438
Q52.2031 43.7031 52.2031 31.2031" id="DejaVuSans-61"/>
     </defs>
     <g transform="translate(29.4525 295.56)rotate(-90.0)scale(0.18 -0.18)">
      <use transform="translate(0.0 0.015625)" xlink:href="#DejaVuSans-44"/>
      <use transform="translate(77.001953125 0.015625)" xlink:href="#DejaVuSans-69"/>
      <use transform="translate(104.78515625 0.015625)" xlink:href="#DejaVuSans-73"/>
      <use transform="translate(156.884765625 0.015625)" xlink:href="#DejaVuSans-70"/>
      <use transform="translate(220.361328125 0.015625)" xlink:href="#DejaVuSans-6c"/>
      <use transform="translate(248.14453125 0.015625)" xlink:href="#DejaVuSans-61"/>
      <use transform="translate(309.423828125 0.015625)" xlink:href="#DejaVuSans-63"/>
      <use transform="translate(364.404296875 0.015625)" xlink:href="#DejaVuSans-65"/>
      <use transform="translate(425.927734375 0.015625)" xlink:href="#DejaVuSans-6d"/>
      <use transform="translate(523.33984375 0.015625)" xlink:href="#DejaVuSans-65"/>
      <use transform="translate(584.86328125 0.015625)" xlink:href="#DejaVuSans-6e"/>
      <use transform="translate(648.2421875 0.015625)" xlink:href="#DejaVuSans-74"/>
      <use transform="translate(687.451171875 0.015625)" xlink:href="#DejaVuSans-2c"/>
      <use transform="translate(719.23828125 0.015625)" xlink:href="#DejaVuSans-20"/>
      <use transform="translate(751.025390625 0.015625)" xlink:href="#Cmmi10-58"/>
     </g>
    </g>
   </g>
   <g id="patch_8">
    <path d="
M73.125 168.618
L526.5 168.618" style="fill:none;stroke:#000000;"/>
   </g>
   <g id="patch_9">
    <path d="
M526.5 272.382
L526.5 168.618" style="fill:none;stroke:#000000;"/>
   </g>
   <g id="patch_10">
    <path d="
M73.125 272.382
L526.5 272.382" style="fill:none;stroke:#000000;"/>
   </g>
   <g id="patch_11">
    <path d="
M73.125 272.382
L73.125 168.618" style="fill:none;stroke:#000000;"/>
   </g>
   <g id="text_20">
    <!-- $p=0.1$ -->
    <defs>
     <path d="
M9.28125 0
L9.28125 3.51562
Q21.7812 3.51562 21.7812 6.6875
L21.7812 59.1875
Q16.6094 56.6875 8.6875 56.6875
L8.6875 60.2031
Q20.9531 60.2031 27.2031 66.6094
L28.6094 66.6094
Q28.9531 66.6094 29.2656 66.3281
Q29.5938 66.0625 29.5938 65.7188
L29.5938 6.6875
Q29.5938 3.51562 42.0938 3.51562
L42.0938 0
z
" id="Cmr10-31"/>
    </defs>
    <g transform="translate(274.5225 163.617647059)scale(0.18 -0.18)">
     <use transform="translate(0.0 0.390625)" xlink:href="#Cmmi10-70"/>
     <use transform="translate(67.8515625 0.390625)" xlink:href="#Cmr10-3d"/>
     <use transform="translate(151.91015625 0.390625)" xlink:href="#Cmr10-30"/>
     <use transform="translate(201.91015625 0.390625)" xlink:href="#Cmmi10-3a"/>
     <use transform="translate(230.453125 0.390625)" xlink:href="#Cmr10-31"/>
    </g>
   </g>
  </g>
  <g id="axes_3">
   <g id="patch_12">
    <path d="
M73.125 396.9
L526.5 396.9
L526.5 293.135
L73.125 293.135
z
" style="fill:#ffffff;"/>
   </g>
   <g id="line2d_65">
    <path clip-path="url(#pa5191f872f)" d="
M73.125 352.281
L184.655 315.815
L200.523 321.004
L251.301 304.401
L361.925 340.571
L375.98 335.975
L526.047 385.041
L526.047 385.041" style="fill:none;stroke:#0000ff;stroke-linecap:square;"/>
   </g>
   <g id="line2d_66">
    <path clip-path="url(#pa5191f872f)" d="
M73.125 352.281
L85.8195 348.131
L95.3404 351.244
L138.864 337.013
L162.44 344.721
L189.642 335.827
L207.777 341.756
L267.623 322.189
L282.131 326.933
L304.8 319.521
L340.616 331.232
L372.353 320.855
L404.995 331.528
L417.237 327.526
L481.163 348.427
L520.606 335.531
L526.047 337.309
L526.047 337.309" style="fill:none;stroke:#008000;stroke-linecap:square;"/>
   </g>
   <g id="line2d_67">
    <path clip-path="url(#pa5191f872f)" d="
M73.125 352.281
L73.5784 352.133
L142.038 374.516
L158.36 369.18
L180.575 376.444
L191.909 372.738
L197.803 374.665
L231.353 363.695
L285.758 381.484
L288.932 380.446
L312.054 388.006
L392.754 361.62
L416.783 369.476
L425.851 366.512
L441.266 371.552
L477.536 359.693
L526.047 375.554
L526.047 375.554" style="fill:none;stroke:#ff0000;stroke-linecap:square;"/>
   </g>
   <g id="matplotlib.axis_5">
    <g id="xtick_13">
     <g id="line2d_68">
      <g>
       <use style="stroke:#000000;stroke-width:0.5;" x="73.125" xlink:href="#m93b0483c22" y="396.9"/>
      </g>
     </g>
     <g id="line2d_69">
      <g>
       <use style="stroke:#000000;stroke-width:0.5;" x="73.125" xlink:href="#m741efc42ff" y="293.135294118"/>
      </g>
     </g>
     <g id="text_21">
      <!-- 0 -->
      <g transform="translate(70.1015625 410.018125)scale(0.12 -0.12)">
       <use xlink:href="#DejaVuSans-30"/>
      </g>
     </g>
    </g>
    <g id="xtick_14">
     <g id="line2d_70">
      <g>
       <use style="stroke:#000000;stroke-width:0.5;" x="163.8" xlink:href="#m93b0483c22" y="396.9"/>
      </g>
     </g>
     <g id="line2d_71">
      <g>
       <use style="stroke:#000000;stroke-width:0.5;" x="163.8" xlink:href="#m741efc42ff" y="293.135294118"/>
      </g>
     </g>
     <g id="text_22">
      <!-- 200 -->
      <g transform="translate(153.185625 410.018125)scale(0.12 -0.12)">
       <use xlink:href="#DejaVuSans-32"/>
       <use x="63.623046875" xlink:href="#DejaVuSans-30"/>
       <use x="127.24609375" xlink:href="#DejaVuSans-30"/>
      </g>
     </g>
    </g>
    <g id="xtick_15">
     <g id="line2d_72">
      <g>
       <use style="stroke:#000000;stroke-width:0.5;" x="254.475" xlink:href="#m93b0483c22" y="396.9"/>
      </g>
     </g>
     <g id="line2d_73">
      <g>
       <use style="stroke:#000000;stroke-width:0.5;" x="254.475" xlink:href="#m741efc42ff" y="293.135294118"/>
      </g>
     </g>
     <g id="text_23">
      <!-- 400 -->
      <g transform="translate(243.714375 410.018125)scale(0.12 -0.12)">
       <use xlink:href="#DejaVuSans-34"/>
       <use x="63.623046875" xlink:href="#DejaVuSans-30"/>
       <use x="127.24609375" xlink:href="#DejaVuSans-30"/>
      </g>
     </g>
    </g>
    <g id="xtick_16">
     <g id="line2d_74">
      <g>
       <use style="stroke:#000000;stroke-width:0.5;" x="345.15" xlink:href="#m93b0483c22" y="396.9"/>
      </g>
     </g>
     <g id="line2d_75">
      <g>
       <use style="stroke:#000000;stroke-width:0.5;" x="345.15" xlink:href="#m741efc42ff" y="293.135294118"/>
      </g>
     </g>
     <g id="text_24">
      <!-- 600 -->
      <defs>
       <path d="
M33.0156 40.375
Q26.375 40.375 22.4844 35.8281
Q18.6094 31.2969 18.6094 23.3906
Q18.6094 15.5312 22.4844 10.9531
Q26.375 6.39062 33.0156 6.39062
Q39.6562 6.39062 43.5312 10.9531
Q47.4062 15.5312 47.4062 23.3906
Q47.4062 31.2969 43.5312 35.8281
Q39.6562 40.375 33.0156 40.375
M52.5938 71.2969
L52.5938 62.3125
Q48.875 64.0625 45.0938 64.9844
Q41.3125 65.9219 37.5938 65.9219
Q27.8281 65.9219 22.6719 59.3281
Q17.5312 52.7344 16.7969 39.4062
Q19.6719 43.6562 24.0156 45.9219
Q28.375 48.1875 33.5938 48.1875
Q44.5781 48.1875 50.9531 41.5156
Q57.3281 34.8594 57.3281 23.3906
Q57.3281 12.1562 50.6875 5.35938
Q44.0469 -1.42188 33.0156 -1.42188
Q20.3594 -1.42188 13.6719 8.26562
Q6.98438 17.9688 6.98438 36.375
Q6.98438 53.6562 15.1875 63.9375
Q23.3906 74.2188 37.2031 74.2188
Q40.9219 74.2188 44.7031 73.4844
Q48.4844 72.75 52.5938 71.2969" id="DejaVuSans-36"/>
      </defs>
      <g transform="translate(334.515 410.018125)scale(0.12 -0.12)">
       <use xlink:href="#DejaVuSans-36"/>
       <use x="63.623046875" xlink:href="#DejaVuSans-30"/>
       <use x="127.24609375" xlink:href="#DejaVuSans-30"/>
      </g>
     </g>
    </g>
    <g id="xtick_17">
     <g id="line2d_76">
      <g>
       <use style="stroke:#000000;stroke-width:0.5;" x="435.825" xlink:href="#m93b0483c22" y="396.9"/>
      </g>
     </g>
     <g id="line2d_77">
      <g>
       <use style="stroke:#000000;stroke-width:0.5;" x="435.825" xlink:href="#m741efc42ff" y="293.135294118"/>
      </g>
     </g>
     <g id="text_25">
      <!-- 800 -->
      <defs>
       <path d="
M31.7812 34.625
Q24.75 34.625 20.7188 30.8594
Q16.7031 27.0938 16.7031 20.5156
Q16.7031 13.9219 20.7188 10.1562
Q24.75 6.39062 31.7812 6.39062
Q38.8125 6.39062 42.8594 10.1719
Q46.9219 13.9688 46.9219 20.5156
Q46.9219 27.0938 42.8906 30.8594
Q38.875 34.625 31.7812 34.625
M21.9219 38.8125
Q15.5781 40.375 12.0312 44.7188
Q8.5 49.0781 8.5 55.3281
Q8.5 64.0625 14.7188 69.1406
Q20.9531 74.2188 31.7812 74.2188
Q42.6719 74.2188 48.875 69.1406
Q55.0781 64.0625 55.0781 55.3281
Q55.0781 49.0781 51.5312 44.7188
Q48 40.375 41.7031 38.8125
Q48.8281 37.1562 52.7969 32.3125
Q56.7812 27.4844 56.7812 20.5156
Q56.7812 9.90625 50.3125 4.23438
Q43.8438 -1.42188 31.7812 -1.42188
Q19.7344 -1.42188 13.25 4.23438
Q6.78125 9.90625 6.78125 20.5156
Q6.78125 27.4844 10.7812 32.3125
Q14.7969 37.1562 21.9219 38.8125
M18.3125 54.3906
Q18.3125 48.7344 21.8438 45.5625
Q25.3906 42.3906 31.7812 42.3906
Q38.1406 42.3906 41.7188 45.5625
Q45.3125 48.7344 45.3125 54.3906
Q45.3125 60.0625 41.7188 63.2344
Q38.1406 66.4062 31.7812 66.4062
Q25.3906 66.4062 21.8438 63.2344
Q18.3125 60.0625 18.3125 54.3906" id="DejaVuSans-38"/>
      </defs>
      <g transform="translate(425.1778125 410.018125)scale(0.12 -0.12)">
       <use xlink:href="#DejaVuSans-38"/>
       <use x="63.623046875" xlink:href="#DejaVuSans-30"/>
       <use x="127.24609375" xlink:href="#DejaVuSans-30"/>
      </g>
     </g>
    </g>
    <g id="xtick_18">
     <g id="line2d_78">
      <g>
       <use style="stroke:#000000;stroke-width:0.5;" x="526.5" xlink:href="#m93b0483c22" y="396.9"/>
      </g>
     </g>
     <g id="line2d_79">
      <g>
       <use style="stroke:#000000;stroke-width:0.5;" x="526.5" xlink:href="#m741efc42ff" y="293.135294118"/>
      </g>
     </g>
     <g id="text_26">
      <!-- 1000 -->
      <g transform="translate(512.2875 410.018125)scale(0.12 -0.12)">
       <use xlink:href="#DejaVuSans-31"/>
       <use x="63.623046875" xlink:href="#DejaVuSans-30"/>
       <use x="127.24609375" xlink:href="#DejaVuSans-30"/>
       <use x="190.869140625" xlink:href="#DejaVuSans-30"/>
      </g>
     </g>
    </g>
    <g id="text_27">
     <!-- Number of steps taken -->
     <defs>
      <path d="
M9.8125 72.9062
L23.0938 72.9062
L55.4219 11.9219
L55.4219 72.9062
L64.9844 72.9062
L64.9844 0
L51.7031 0
L19.3906 60.9844
L19.3906 0
L9.8125 0
z
" id="DejaVuSans-4e"/>
      <path d="
M30.6094 48.3906
Q23.3906 48.3906 19.1875 42.75
Q14.9844 37.1094 14.9844 27.2969
Q14.9844 17.4844 19.1562 11.8438
Q23.3438 6.20312 30.6094 6.20312
Q37.7969 6.20312 41.9844 11.8594
Q46.1875 17.5312 46.1875 27.2969
Q46.1875 37.0156 41.9844 42.7031
Q37.7969 48.3906 30.6094 48.3906
M30.6094 56
Q42.3281 56 49.0156 48.375
Q55.7188 40.7656 55.7188 27.2969
Q55.7188 13.875 49.0156 6.21875
Q42.3281 -1.42188 30.6094 -1.42188
Q18.8438 -1.42188 12.1719 6.21875
Q5.51562 13.875 5.51562 27.2969
Q5.51562 40.7656 12.1719 48.375
Q18.8438 56 30.6094 56" id="DejaVuSans-6f"/>
      <path d="
M9.07812 75.9844
L18.1094 75.9844
L18.1094 31.1094
L44.9219 54.6875
L56.3906 54.6875
L27.3906 29.1094
L57.625 0
L45.9062 0
L18.1094 26.7031
L18.1094 0
L9.07812 0
z
" id="DejaVuSans-6b"/>
      <path d="
M37.1094 75.9844
L37.1094 68.5
L28.5156 68.5
Q23.6875 68.5 21.7969 66.5469
Q19.9219 64.5938 19.9219 59.5156
L19.9219 54.6875
L34.7188 54.6875
L34.7188 47.7031
L19.9219 47.7031
L19.9219 0
L10.8906 0
L10.8906 47.7031
L2.29688 47.7031
L2.29688 54.6875
L10.8906 54.6875
L10.8906 58.5
Q10.8906 67.625 15.1406 71.7969
Q19.3906 75.9844 28.6094 75.9844
z
" id="DejaVuSans-66"/>
      <path d="
M8.5 21.5781
L8.5 54.6875
L17.4844 54.6875
L17.4844 21.9219
Q17.4844 14.1562 20.5 10.2656
Q23.5312 6.39062 29.5938 6.39062
Q36.8594 6.39062 41.0781 11.0312
Q45.3125 15.6719 45.3125 23.6875
L45.3125 54.6875
L54.2969 54.6875
L54.2969 0
L45.3125 0
L45.3125 8.40625
Q42.0469 3.42188 37.7188 1
Q33.4062 -1.42188 27.6875 -1.42188
Q18.2656 -1.42188 13.375 4.4375
Q8.5 10.2969 8.5 21.5781
M31.1094 56
z
" id="DejaVuSans-75"/>
      <path d="
M48.6875 27.2969
Q48.6875 37.2031 44.6094 42.8438
Q40.5312 48.4844 33.4062 48.4844
Q26.2656 48.4844 22.1875 42.8438
Q18.1094 37.2031 18.1094 27.2969
Q18.1094 17.3906 22.1875 11.75
Q26.2656 6.10938 33.4062 6.10938
Q40.5312 6.10938 44.6094 11.75
Q48.6875 17.3906 48.6875 27.2969
M18.1094 46.3906
Q20.9531 51.2656 25.2656 53.625
Q29.5938 56 35.5938 56
Q45.5625 56 51.7812 48.0938
Q58.0156 40.1875 58.0156 27.2969
Q58.0156 14.4062 51.7812 6.48438
Q45.5625 -1.42188 35.5938 -1.42188
Q29.5938 -1.42188 25.2656 0.953125
Q20.9531 3.32812 18.1094 8.20312
L18.1094 0
L9.07812 0
L9.07812 75.9844
L18.1094 75.9844
z
" id="DejaVuSans-62"/>
      <path d="
M41.1094 46.2969
Q39.5938 47.1719 37.8125 47.5781
Q36.0312 48 33.8906 48
Q26.2656 48 22.1875 43.0469
Q18.1094 38.0938 18.1094 28.8125
L18.1094 0
L9.07812 0
L9.07812 54.6875
L18.1094 54.6875
L18.1094 46.1875
Q20.9531 51.1719 25.4844 53.5781
Q30.0312 56 36.5312 56
Q37.4531 56 38.5781 55.875
Q39.7031 55.7656 41.0625 55.5156
z
" id="DejaVuSans-72"/>
     </defs>
     <g transform="translate(197.83828125 431.1909375)scale(0.18 -0.18)">
      <use xlink:href="#DejaVuSans-4e"/>
      <use x="74.8046875" xlink:href="#DejaVuSans-75"/>
      <use x="138.18359375" xlink:href="#DejaVuSans-6d"/>
      <use x="235.595703125" xlink:href="#DejaVuSans-62"/>
      <use x="299.072265625" xlink:href="#DejaVuSans-65"/>
      <use x="360.595703125" xlink:href="#DejaVuSans-72"/>
      <use x="401.708984375" xlink:href="#DejaVuSans-20"/>
      <use x="433.49609375" xlink:href="#DejaVuSans-6f"/>
      <use x="494.677734375" xlink:href="#DejaVuSans-66"/>
      <use x="529.8828125" xlink:href="#DejaVuSans-20"/>
      <use x="561.669921875" xlink:href="#DejaVuSans-73"/>
      <use x="613.76953125" xlink:href="#DejaVuSans-74"/>
      <use x="652.978515625" xlink:href="#DejaVuSans-65"/>
      <use x="714.501953125" xlink:href="#DejaVuSans-70"/>
      <use x="777.978515625" xlink:href="#DejaVuSans-73"/>
      <use x="830.078125" xlink:href="#DejaVuSans-20"/>
      <use x="861.865234375" xlink:href="#DejaVuSans-74"/>
      <use x="901.07421875" xlink:href="#DejaVuSans-61"/>
      <use x="962.353515625" xlink:href="#DejaVuSans-6b"/>
      <use x="1016.63867188" xlink:href="#DejaVuSans-65"/>
      <use x="1078.16210938" xlink:href="#DejaVuSans-6e"/>
     </g>
    </g>
   </g>
   <g id="matplotlib.axis_6">
    <g id="ytick_18">
     <g id="line2d_80">
      <g>
       <use style="stroke:#000000;stroke-width:0.5;" x="73.125" xlink:href="#m728421d6d4" y="396.9"/>
      </g>
     </g>
     <g id="line2d_81">
      <g>
       <use style="stroke:#000000;stroke-width:0.5;" x="526.5" xlink:href="#mcb0005524f" y="396.9"/>
      </g>
     </g>
     <g id="text_28">
      <!-- −300 -->
      <g transform="translate(38.2325 400.21125)scale(0.12 -0.12)">
       <use xlink:href="#DejaVuSans-2212"/>
       <use x="83.7890625" xlink:href="#DejaVuSans-33"/>
       <use x="147.412109375" xlink:href="#DejaVuSans-30"/>
       <use x="211.03515625" xlink:href="#DejaVuSans-30"/>
      </g>
     </g>
    </g>
    <g id="ytick_19">
     <g id="line2d_82">
      <g>
       <use style="stroke:#000000;stroke-width:0.5;" x="73.125" xlink:href="#m728421d6d4" y="382.076470588"/>
      </g>
     </g>
     <g id="line2d_83">
      <g>
       <use style="stroke:#000000;stroke-width:0.5;" x="526.5" xlink:href="#mcb0005524f" y="382.076470588"/>
      </g>
     </g>
     <g id="text_29">
      <!-- −200 -->
      <g transform="translate(38.2325 385.387720588)scale(0.12 -0.12)">
       <use xlink:href="#DejaVuSans-2212"/>
       <use x="83.7890625" xlink:href="#DejaVuSans-32"/>
       <use x="147.412109375" xlink:href="#DejaVuSans-30"/>
       <use x="211.03515625" xlink:href="#DejaVuSans-30"/>
      </g>
     </g>
    </g>
    <g id="ytick_20">
     <g id="line2d_84">
      <g>
       <use style="stroke:#000000;stroke-width:0.5;" x="73.125" xlink:href="#m728421d6d4" y="367.252941176"/>
      </g>
     </g>
     <g id="line2d_85">
      <g>
       <use style="stroke:#000000;stroke-width:0.5;" x="526.5" xlink:href="#mcb0005524f" y="367.252941176"/>
      </g>
     </g>
     <g id="text_30">
      <!-- −100 -->
      <g transform="translate(38.2325 370.564191176)scale(0.12 -0.12)">
       <use xlink:href="#DejaVuSans-2212"/>
       <use x="83.7890625" xlink:href="#DejaVuSans-31"/>
       <use x="147.412109375" xlink:href="#DejaVuSans-30"/>
       <use x="211.03515625" xlink:href="#DejaVuSans-30"/>
      </g>
     </g>
    </g>
    <g id="ytick_21">
     <g id="line2d_86">
      <g>
       <use style="stroke:#000000;stroke-width:0.5;" x="73.125" xlink:href="#m728421d6d4" y="352.429411765"/>
      </g>
     </g>
     <g id="line2d_87">
      <g>
       <use style="stroke:#000000;stroke-width:0.5;" x="526.5" xlink:href="#mcb0005524f" y="352.429411765"/>
      </g>
     </g>
     <g id="text_31">
      <!-- 0 -->
      <g transform="translate(63.078125 355.740661765)scale(0.12 -0.12)">
       <use xlink:href="#DejaVuSans-30"/>
      </g>
     </g>
    </g>
    <g id="ytick_22">
     <g id="line2d_88">
      <g>
       <use style="stroke:#000000;stroke-width:0.5;" x="73.125" xlink:href="#m728421d6d4" y="337.605882353"/>
      </g>
     </g>
     <g id="line2d_89">
      <g>
       <use style="stroke:#000000;stroke-width:0.5;" x="526.5" xlink:href="#mcb0005524f" y="337.605882353"/>
      </g>
     </g>
     <g id="text_32">
      <!-- 100 -->
      <g transform="translate(48.335 340.917132353)scale(0.12 -0.12)">
       <use xlink:href="#DejaVuSans-31"/>
       <use x="63.623046875" xlink:href="#DejaVuSans-30"/>
       <use x="127.24609375" xlink:href="#DejaVuSans-30"/>
      </g>
     </g>
    </g>
    <g id="ytick_23">
     <g id="line2d_90">
      <g>
       <use style="stroke:#000000;stroke-width:0.5;" x="73.125" xlink:href="#m728421d6d4" y="322.782352941"/>
      </g>
     </g>
     <g id="line2d_91">
      <g>
       <use style="stroke:#000000;stroke-width:0.5;" x="526.5" xlink:href="#mcb0005524f" y="322.782352941"/>
      </g>
     </g>
     <g id="text_33">
      <!-- 200 -->
      <g transform="translate(47.89625 326.093602941)scale(0.12 -0.12)">
       <use xlink:href="#DejaVuSans-32"/>
       <use x="63.623046875" xlink:href="#DejaVuSans-30"/>
       <use x="127.24609375" xlink:href="#DejaVuSans-30"/>
      </g>
     </g>
    </g>
    <g id="ytick_24">
     <g id="line2d_92">
      <g>
       <use style="stroke:#000000;stroke-width:0.5;" x="73.125" xlink:href="#m728421d6d4" y="307.958823529"/>
      </g>
     </g>
     <g id="line2d_93">
      <g>
       <use style="stroke:#000000;stroke-width:0.5;" x="526.5" xlink:href="#mcb0005524f" y="307.958823529"/>
      </g>
     </g>
     <g id="text_34">
      <!-- 300 -->
      <g transform="translate(47.931875 311.270073529)scale(0.12 -0.12)">
       <use xlink:href="#DejaVuSans-33"/>
       <use x="63.623046875" xlink:href="#DejaVuSans-30"/>
       <use x="127.24609375" xlink:href="#DejaVuSans-30"/>
      </g>
     </g>
    </g>
    <g id="ytick_25">
     <g id="line2d_94">
      <g>
       <use style="stroke:#000000;stroke-width:0.5;" x="73.125" xlink:href="#m728421d6d4" y="293.135294118"/>
      </g>
     </g>
     <g id="line2d_95">
      <g>
       <use style="stroke:#000000;stroke-width:0.5;" x="526.5" xlink:href="#mcb0005524f" y="293.135294118"/>
      </g>
     </g>
     <g id="text_35">
      <!-- 400 -->
      <g transform="translate(47.60375 296.446544118)scale(0.12 -0.12)">
       <use xlink:href="#DejaVuSans-34"/>
       <use x="63.623046875" xlink:href="#DejaVuSans-30"/>
       <use x="127.24609375" xlink:href="#DejaVuSans-30"/>
      </g>
     </g>
    </g>
   </g>
   <g id="patch_13">
    <path d="
M73.125 293.135
L526.5 293.135" style="fill:none;stroke:#000000;"/>
   </g>
   <g id="patch_14">
    <path d="
M526.5 396.9
L526.5 293.135" style="fill:none;stroke:#000000;"/>
   </g>
   <g id="patch_15">
    <path d="
M73.125 396.9
L526.5 396.9" style="fill:none;stroke:#000000;"/>
   </g>
   <g id="patch_16">
    <path d="
M73.125 396.9
L73.125 293.135" style="fill:none;stroke:#000000;"/>
   </g>
   <g id="text_36">
    <!-- $p=0.01$ -->
    <g transform="translate(270.0225 288.135294118)scale(0.18 -0.18)">
     <use transform="translate(0.0 0.390625)" xlink:href="#Cmmi10-70"/>
     <use transform="translate(67.8515625 0.390625)" xlink:href="#Cmr10-3d"/>
     <use transform="translate(151.91015625 0.390625)" xlink:href="#Cmr10-30"/>
     <use transform="translate(201.91015625 0.390625)" xlink:href="#Cmmi10-3a"/>
     <use transform="translate(230.453125 0.390625)" xlink:href="#Cmr10-30"/>
     <use transform="translate(280.453125 0.390625)" xlink:href="#Cmr10-31"/>
    </g>
   </g>
  </g>
 </g>
 <defs>
  <clipPath id="pa5191f872f">
   <rect height="103.764705882" width="453.375" x="73.125" y="293.135294118"/>
  </clipPath>
  <clipPath id="pe8771a43b3">
   <rect height="103.764705882" width="453.375" x="73.125" y="168.617647059"/>
  </clipPath>
  <clipPath id="p3873bab98c">
   <rect height="103.764705882" width="453.375" x="73.125" y="44.1"/>
  </clipPath>
 </defs>
</svg>
