<?xml version="1.0" encoding="utf-8" standalone="no"?>
<!DOCTYPE svg PUBLIC "-//W3C//DTD SVG 1.1//EN"
  "http://www.w3.org/Graphics/SVG/1.1/DTD/svg11.dtd">
<!-- Created with matplotlib (http://matplotlib.org/) -->
<svg height="432pt" version="1.1" viewBox="0 0 576 432" width="576pt" xmlns="http://www.w3.org/2000/svg" xmlns:xlink="http://www.w3.org/1999/xlink">
 <defs>
  <style type="text/css">
*{stroke-linecap:butt;stroke-linejoin:round;}
  </style>
 </defs>
 <g id="figure_1">
  <g id="patch_1">
   <path d="
M0 432
L576 432
L576 0
L0 0
z
" style="fill:#ffffff;"/>
  </g>
  <g id="axes_1">
   <g id="patch_2">
    <path d="
M72 144.847
L518.4 144.847
L518.4 43.2
L72 43.2
z
" style="fill:#ffffff;"/>
   </g>
   <g id="line2d_1">
    <path clip-path="url(#pfd6a83a59a)" d="
M72 95.7176
L72.4464 97.4118
L72.8928 95.7176
L73.7856 99.1059
L74.232 97.4118
L75.1248 100.8
L76.464 95.7176
L76.9104 97.4118
L77.3568 95.7176
L77.8032 97.4118
L78.2496 95.7176
L79.5888 100.8
L80.4816 97.4118
L80.928 99.1059
L81.8208 95.7176
L82.2672 97.4118
L82.7136 95.7176
L83.6064 99.1059
L84.9456 94.0235
L86.2848 99.1059
L87.1776 95.7176
L87.624 97.4118
L89.4096 90.6353
L90.3024 94.0235
L90.7488 92.3294
L92.5344 99.1059
L92.9808 97.4118
L94.32 102.494
L94.7664 100.8
L95.6592 104.188
L96.1056 102.494
L96.552 104.188
L97.8912 99.1059
L99.2304 104.188
L99.6768 102.494
L100.123 104.188
L101.016 100.8
L101.462 102.494
L102.802 97.4118
L103.248 99.1059
L104.141 95.7176
L106.373 104.188
L108.605 95.7176
L109.498 99.1059
L109.944 97.4118
L112.176 105.882
L113.069 102.494
L113.962 105.882
L116.194 97.4118
L117.533 102.494
L117.979 100.8
L118.872 104.188
L119.318 102.494
L120.211 105.882
L122.443 97.4118
L123.336 100.8
L123.782 99.1059
L124.675 102.494
L125.122 100.8
L125.568 102.494
L126.461 99.1059
L127.354 102.494
L128.693 97.4118
L129.139 99.1059
L130.032 95.7176
L131.371 100.8
L133.157 94.0235
L134.05 97.4118
L135.389 92.3294
L136.728 97.4118
L137.621 94.0235
L138.067 95.7176
L139.853 88.9412
L140.299 90.6353
L140.746 88.9412
L141.192 90.6353
L141.638 88.9412
L142.531 92.3294
L145.656 80.4706
L146.995 85.5529
L148.334 80.4706
L148.781 82.1647
L149.674 78.7765
L152.352 88.9412
L153.245 85.5529
L154.138 88.9412
L154.584 87.2471
L156.37 94.0235
L156.816 92.3294
L160.387 105.882
L160.834 104.188
L161.28 105.882
L162.173 102.494
L162.619 104.188
L163.958 99.1059
L165.298 104.188
L166.19 100.8
L166.637 102.494
L167.083 100.8
L168.422 105.882
L168.869 104.188
L169.315 105.882
L169.762 104.188
L170.208 105.882
L171.101 102.494
L171.547 104.188
L171.994 102.494
L172.44 104.188
L173.779 99.1059
L176.458 109.271
L178.243 102.494
L178.69 104.188
L179.582 100.8
L180.029 102.494
L180.922 99.1059
L181.368 100.8
L183.6 92.3294
L184.046 94.0235
L184.493 92.3294
L185.832 97.4118
L186.725 94.0235
L187.171 95.7176
L187.618 94.0235
L188.51 97.4118
L190.296 90.6353
L191.189 94.0235
L191.635 92.3294
L192.528 95.7176
L192.974 94.0235
L193.421 95.7176
L193.867 94.0235
L194.314 95.7176
L194.76 94.0235
L195.653 97.4118
L197.438 90.6353
L197.885 92.3294
L198.778 88.9412
L200.117 94.0235
L200.563 92.3294
L201.902 97.4118
L202.349 95.7176
L203.242 99.1059
L203.688 97.4118
L204.134 99.1059
L204.581 97.4118
L205.027 99.1059
L205.474 97.4118
L205.92 99.1059
L206.366 97.4118
L206.813 99.1059
L207.259 97.4118
L207.706 99.1059
L208.598 95.7176
L209.045 97.4118
L210.83 90.6353
L211.277 92.3294
L211.723 90.6353
L213.509 97.4118
L214.848 92.3294
L215.294 94.0235
L216.187 90.6353
L216.634 92.3294
L218.866 83.8588
L219.312 85.5529
L219.758 83.8588
L220.651 87.2471
L221.99 82.1647
L222.437 83.8588
L222.883 82.1647
L225.115 90.6353
L226.454 85.5529
L226.901 87.2471
L227.347 85.5529
L227.794 87.2471
L229.133 82.1647
L229.579 83.8588
L230.026 82.1647
L231.365 87.2471
L232.258 83.8588
L233.15 87.2471
L233.597 85.5529
L234.043 87.2471
L234.936 83.8588
L236.275 88.9412
L237.614 83.8588
L239.846 92.3294
L242.971 80.4706
L243.418 82.1647
L244.757 77.0824
L245.65 80.4706
L246.542 77.0824
L248.328 83.8588
L249.667 78.7765
L250.56 82.1647
L251.006 80.4706
L252.346 85.5529
L253.238 82.1647
L253.685 83.8588
L255.47 77.0824
L257.702 85.5529
L260.381 75.3882
L260.827 77.0824
L261.274 75.3882
L262.613 80.4706
L264.845 72
L266.63 78.7765
L267.077 77.0824
L267.97 80.4706
L268.416 78.7765
L268.862 80.4706
L270.202 75.3882
L271.541 80.4706
L271.987 78.7765
L272.434 80.4706
L272.88 78.7765
L273.326 80.4706
L273.773 78.7765
L274.219 80.4706
L274.666 78.7765
L276.005 83.8588
L276.898 80.4706
L277.79 83.8588
L278.237 82.1647
L278.683 83.8588
L279.13 82.1647
L280.022 85.5529
L280.915 82.1647
L281.362 83.8588
L281.808 82.1647
L285.826 97.4118
L287.611 90.6353
L288.058 92.3294
L288.504 90.6353
L289.397 94.0235
L290.29 90.6353
L290.736 92.3294
L292.075 87.2471
L292.968 90.6353
L294.754 83.8588
L295.2 85.5529
L295.646 83.8588
L296.986 88.9412
L298.771 82.1647
L299.218 83.8588
L299.664 82.1647
L300.11 83.8588
L300.557 82.1647
L301.003 83.8588
L301.45 82.1647
L301.896 83.8588
L302.342 82.1647
L303.682 87.2471
L304.128 85.5529
L304.574 87.2471
L305.914 82.1647
L306.36 83.8588
L306.806 82.1647
L308.592 88.9412
L309.038 87.2471
L309.485 88.9412
L309.931 87.2471
L310.378 88.9412
L311.27 85.5529
L311.717 87.2471
L312.163 85.5529
L312.61 87.2471
L313.056 85.5529
L314.395 90.6353
L316.181 83.8588
L317.074 87.2471
L317.52 85.5529
L318.413 88.9412
L319.306 85.5529
L320.198 88.9412
L320.645 87.2471
L321.091 88.9412
L322.877 82.1647
L324.216 87.2471
L326.002 80.4706
L326.894 83.8588
L327.341 82.1647
L327.787 83.8588
L328.234 82.1647
L330.912 92.3294
L331.358 90.6353
L331.805 92.3294
L332.251 90.6353
L332.698 92.3294
L333.144 90.6353
L334.483 95.7176
L336.269 88.9412
L337.162 92.3294
L337.608 90.6353
L338.054 92.3294
L338.501 90.6353
L339.394 94.0235
L339.84 92.3294
L340.733 95.7176
L342.072 90.6353
L342.965 94.0235
L343.858 90.6353
L344.304 92.3294
L345.197 88.9412
L345.643 90.6353
L346.09 88.9412
L346.982 92.3294
L347.429 90.6353
L347.875 92.3294
L348.322 90.6353
L349.661 95.7176
L350.107 94.0235
L351.893 100.8
L352.339 99.1059
L353.232 102.494
L353.678 100.8
L355.464 107.576
L356.357 104.188
L356.803 105.882
L357.696 102.494
L358.142 104.188
L358.589 102.494
L359.928 107.576
L360.374 105.882
L360.821 107.576
L362.16 102.494
L362.606 104.188
L363.053 102.494
L364.392 107.576
L364.838 105.882
L365.285 107.576
L365.731 105.882
L367.517 112.659
L367.963 110.965
L368.856 114.353
L370.642 107.576
L371.088 109.271
L371.534 107.576
L372.874 112.659
L373.32 110.965
L374.213 114.353
L374.659 112.659
L376.891 121.129
L377.338 119.435
L377.784 121.129
L379.57 114.353
L380.016 116.047
L380.909 112.659
L381.355 114.353
L382.694 109.271
L383.141 110.965
L383.587 109.271
L384.48 112.659
L384.926 110.965
L385.373 112.659
L385.819 110.965
L386.712 114.353
L387.158 112.659
L387.605 114.353
L388.944 109.271
L391.622 119.435
L392.962 114.353
L393.408 116.047
L394.301 112.659
L394.747 114.353
L395.64 110.965
L396.086 112.659
L397.872 105.882
L398.765 109.271
L399.211 107.576
L399.658 109.271
L400.104 107.576
L400.55 109.271
L402.336 102.494
L402.782 104.188
L403.229 102.494
L404.122 105.882
L405.907 99.1059
L407.246 104.188
L408.139 100.8
L409.478 105.882
L411.71 97.4118
L413.05 102.494
L413.942 99.1059
L415.728 105.882
L416.174 104.188
L417.514 109.271
L417.96 107.576
L418.853 110.965
L421.085 102.494
L421.531 104.188
L422.424 100.8
L422.87 102.494
L423.763 99.1059
L424.21 100.8
L425.995 94.0235
L426.442 95.7176
L426.888 94.0235
L427.334 95.7176
L427.781 94.0235
L428.227 95.7176
L428.674 94.0235
L429.12 95.7176
L429.566 94.0235
L430.459 97.4118
L431.798 92.3294
L434.477 102.494
L435.37 99.1059
L435.816 100.8
L436.262 99.1059
L436.709 100.8
L437.155 99.1059
L439.834 109.271
L441.619 102.494
L442.512 105.882
L442.958 104.188
L443.405 105.882
L443.851 104.188
L444.298 105.882
L444.744 104.188
L446.53 110.965
L449.654 99.1059
L450.994 104.188
L451.886 100.8
L452.333 102.494
L453.672 97.4118
L455.011 102.494
L455.458 100.8
L455.904 102.494
L456.35 100.8
L456.797 102.494
L458.136 97.4118
L459.029 100.8
L459.475 99.1059
L459.922 100.8
L460.368 99.1059
L460.814 100.8
L461.261 99.1059
L461.707 100.8
L462.6 97.4118
L463.939 102.494
L465.278 97.4118
L466.618 102.494
L467.51 99.1059
L468.403 102.494
L468.85 100.8
L469.296 102.494
L470.189 99.1059
L471.082 102.494
L473.314 94.0235
L473.76 95.7176
L474.206 94.0235
L475.099 97.4118
L475.992 94.0235
L476.438 95.7176
L476.885 94.0235
L478.67 100.8
L479.563 97.4118
L480.01 99.1059
L481.349 94.0235
L481.795 95.7176
L482.688 92.3294
L484.474 99.1059
L485.366 95.7176
L485.813 97.4118
L487.598 90.6353
L488.045 92.3294
L488.938 88.9412
L489.83 92.3294
L490.723 88.9412
L491.616 92.3294
L492.062 90.6353
L492.509 92.3294
L492.955 90.6353
L494.294 95.7176
L495.634 90.6353
L496.526 94.0235
L496.973 92.3294
L497.866 95.7176
L498.758 92.3294
L499.205 94.0235
L500.098 90.6353
L500.544 92.3294
L500.99 90.6353
L501.883 94.0235
L503.669 87.2471
L505.008 92.3294
L505.454 90.6353
L505.901 92.3294
L506.794 88.9412
L507.24 90.6353
L507.686 88.9412
L508.133 90.6353
L510.365 82.1647
L510.811 83.8588
L511.258 82.1647
L512.15 85.5529
L512.597 83.8588
L513.043 85.5529
L513.49 83.8588
L514.382 87.2471
L514.829 85.5529
L515.722 88.9412
L516.168 87.2471
L517.061 90.6353
L517.954 87.2471
L517.954 87.2471" style="fill:none;stroke:#0000ff;stroke-linecap:square;"/>
   </g>
   <g id="line2d_2">
    <path clip-path="url(#pfd6a83a59a)" d="
M72 92.3294
L72.4464 90.6353
L73.3392 94.0235
L73.7856 92.3294
L74.6784 95.7176
L76.464 88.9412
L77.3568 92.3294
L77.8032 90.6353
L78.2496 92.3294
L78.696 90.6353
L79.1424 92.3294
L80.4816 87.2471
L81.3744 90.6353
L82.7136 85.5529
L84.4992 92.3294
L84.9456 90.6353
L85.8384 94.0235
L86.2848 92.3294
L87.624 97.4118
L88.0704 95.7176
L88.5168 97.4118
L88.9632 95.7176
L89.4096 97.4118
L89.856 95.7176
L90.3024 97.4118
L90.7488 95.7176
L91.1952 97.4118
L91.6416 95.7176
L92.5344 99.1059
L92.9808 97.4118
L94.32 102.494
L94.7664 100.8
L95.2128 102.494
L96.1056 99.1059
L96.552 100.8
L97.8912 95.7176
L98.3376 97.4118
L99.6768 92.3294
L100.57 95.7176
L102.802 87.2471
L103.248 88.9412
L103.694 87.2471
L104.141 88.9412
L105.034 85.5529
L105.48 87.2471
L106.373 83.8588
L107.712 88.9412
L108.158 87.2471
L109.498 92.3294
L109.944 90.6353
L110.39 92.3294
L110.837 90.6353
L112.176 95.7176
L113.069 92.3294
L113.515 94.0235
L114.408 90.6353
L115.301 94.0235
L115.747 92.3294
L116.194 94.0235
L116.64 92.3294
L117.533 95.7176
L117.979 94.0235
L121.104 105.882
L122.443 100.8
L122.89 102.494
L124.229 97.4118
L125.568 102.494
L126.907 97.4118
L127.354 99.1059
L131.371 83.8588
L131.818 85.5529
L132.71 82.1647
L133.157 83.8588
L133.603 82.1647
L135.389 88.9412
L136.282 85.5529
L137.174 88.9412
L137.621 87.2471
L138.067 88.9412
L138.514 87.2471
L140.746 95.7176
L142.978 87.2471
L143.87 90.6353
L145.21 85.5529
L145.656 87.2471
L146.102 85.5529
L146.995 88.9412
L147.442 87.2471
L148.334 90.6353
L149.227 87.2471
L150.12 90.6353
L151.013 87.2471
L151.459 88.9412
L151.906 87.2471
L154.138 95.7176
L154.584 94.0235
L155.477 97.4118
L155.923 95.7176
L156.816 99.1059
L158.155 94.0235
L159.494 99.1059
L159.941 97.4118
L161.28 102.494
L162.173 99.1059
L163.958 105.882
L164.405 104.188
L166.637 112.659
L167.53 109.271
L167.976 110.965
L168.422 109.271
L168.869 110.965
L169.762 107.576
L170.208 109.271
L171.101 105.882
L174.672 119.435
L175.565 116.047
L176.011 117.741
L176.904 114.353
L177.35 116.047
L178.243 112.659
L178.69 114.353
L180.029 109.271
L180.922 112.659
L182.707 105.882
L183.154 107.576
L183.6 105.882
L184.046 107.576
L184.939 104.188
L185.386 105.882
L185.832 104.188
L187.171 109.271
L187.618 107.576
L188.957 112.659
L189.85 109.271
L190.742 112.659
L192.082 107.576
L192.974 110.965
L193.867 107.576
L195.206 112.659
L195.653 110.965
L196.546 114.353
L197.438 110.965
L198.778 116.047
L199.224 114.353
L201.456 122.824
L203.242 116.047
L203.688 117.741
L204.134 116.047
L204.581 117.741
L205.92 112.659
L206.366 114.353
L207.706 109.271
L208.152 110.965
L208.598 109.271
L209.045 110.965
L209.938 107.576
L210.83 110.965
L211.277 109.271
L211.723 110.965
L213.062 105.882
L214.402 110.965
L214.848 109.271
L215.294 110.965
L215.741 109.271
L217.526 116.047
L217.973 114.353
L218.419 116.047
L219.312 112.659
L219.758 114.353
L220.651 110.965
L221.098 112.659
L223.33 104.188
L224.669 109.271
L225.115 107.576
L227.347 116.047
L227.794 114.353
L228.24 116.047
L228.686 114.353
L229.579 117.741
L230.026 116.047
L230.472 117.741
L231.365 114.353
L231.811 116.047
L232.258 114.353
L232.704 116.047
L235.382 105.882
L235.829 107.576
L236.275 105.882
L236.722 107.576
L237.168 105.882
L237.614 107.576
L238.954 102.494
L241.632 112.659
L242.525 109.271
L243.418 112.659
L243.864 110.965
L244.757 114.353
L245.203 112.659
L245.65 114.353
L246.096 112.659
L246.989 116.047
L247.882 112.659
L249.667 119.435
L250.56 116.047
L251.006 117.741
L251.453 116.047
L251.899 117.741
L252.346 116.047
L253.238 119.435
L254.131 116.047
L254.578 117.741
L255.024 116.047
L255.47 117.741
L256.363 114.353
L258.149 121.129
L259.042 117.741
L259.488 119.435
L260.381 116.047
L260.827 117.741
L261.72 114.353
L263.952 122.824
L264.398 121.129
L264.845 122.824
L265.738 119.435
L266.63 122.824
L267.523 119.435
L267.97 121.129
L268.416 119.435
L268.862 121.129
L269.309 119.435
L270.648 124.518
L271.541 121.129
L271.987 122.824
L272.434 121.129
L273.326 124.518
L273.773 122.824
L274.219 124.518
L275.558 119.435
L276.005 121.129
L276.898 117.741
L277.344 119.435
L277.79 117.741
L278.237 119.435
L278.683 117.741
L279.576 121.129
L280.915 116.047
L281.362 117.741
L281.808 116.047
L283.147 121.129
L283.594 119.435
L284.04 121.129
L285.379 116.047
L286.272 119.435
L287.165 116.047
L289.843 126.212
L292.522 116.047
L292.968 117.741
L294.754 110.965
L295.2 112.659
L296.093 109.271
L296.539 110.965
L296.986 109.271
L297.432 110.965
L297.878 109.271
L298.325 110.965
L299.218 107.576
L299.664 109.271
L300.557 105.882
L301.896 110.965
L302.342 109.271
L303.235 112.659
L303.682 110.965
L304.574 114.353
L305.021 112.659
L306.36 117.741
L307.253 114.353
L309.931 124.518
L310.378 122.824
L310.824 124.518
L311.27 122.824
L311.717 124.518
L313.056 119.435
L313.949 122.824
L314.395 121.129
L314.842 122.824
L315.734 119.435
L316.627 122.824
L317.966 117.741
L319.306 122.824
L320.645 117.741
L321.091 119.435
L321.984 116.047
L323.77 122.824
L324.216 121.129
L324.662 122.824
L325.555 119.435
L328.234 129.6
L329.573 124.518
L330.466 127.906
L330.912 126.212
L331.805 129.6
L332.698 126.212
L333.144 127.906
L333.59 126.212
L334.483 129.6
L334.93 127.906
L336.269 132.988
L336.715 131.294
L337.162 132.988
L337.608 131.294
L338.054 132.988
L338.947 129.6
L339.84 132.988
L341.179 127.906
L342.072 131.294
L343.411 126.212
L344.304 129.6
L344.75 127.906
L345.643 131.294
L346.09 129.6
L346.536 131.294
L346.982 129.6
L347.429 131.294
L348.322 127.906
L348.768 129.6
L350.107 124.518
L351 127.906
L351.446 126.212
L351.893 127.906
L352.786 124.518
L353.678 127.906
L354.571 124.518
L355.018 126.212
L356.357 121.129
L356.803 122.824
L358.142 117.741
L358.589 119.435
L359.928 114.353
L361.267 119.435
L363.499 110.965
L363.946 112.659
L365.285 107.576
L366.624 112.659
L367.963 107.576
L368.41 109.271
L369.302 105.882
L369.749 107.576
L370.195 105.882
L371.534 110.965
L371.981 109.271
L372.427 110.965
L372.874 109.271
L373.32 110.965
L373.766 109.271
L374.213 110.965
L375.552 105.882
L375.998 107.576
L376.445 105.882
L376.891 107.576
L377.338 105.882
L378.23 109.271
L378.677 107.576
L379.57 110.965
L380.462 107.576
L383.141 117.741
L384.48 112.659
L384.926 114.353
L385.819 110.965
L386.266 112.659
L387.158 109.271
L388.051 112.659
L388.498 110.965
L388.944 112.659
L389.39 110.965
L389.837 112.659
L390.283 110.965
L390.73 112.659
L391.176 110.965
L391.622 112.659
L392.069 110.965
L393.854 117.741
L396.086 109.271
L396.533 110.965
L396.979 109.271
L397.426 110.965
L397.872 109.271
L398.318 110.965
L399.211 107.576
L399.658 109.271
L400.104 107.576
L402.336 116.047
L402.782 114.353
L403.229 116.047
L403.675 114.353
L404.122 116.047
L405.014 112.659
L406.8 119.435
L407.693 116.047
L408.139 117.741
L408.586 116.047
L409.032 117.741
L409.925 114.353
L410.371 116.047
L410.818 114.353
L411.264 116.047
L411.71 114.353
L412.157 116.047
L412.603 114.353
L413.05 116.047
L413.496 114.353
L415.282 121.129
L415.728 119.435
L416.174 121.129
L416.621 119.435
L418.853 127.906
L419.299 126.212
L419.746 127.906
L421.085 122.824
L421.531 124.518
L424.656 112.659
L425.549 116.047
L426.442 112.659
L427.334 116.047
L428.227 112.659
L430.459 121.129
L430.906 119.435
L431.352 121.129
L431.798 119.435
L432.245 121.129
L432.691 119.435
L434.477 126.212
L434.923 124.518
L436.262 129.6
L437.602 124.518
L438.494 127.906
L439.387 124.518
L439.834 126.212
L440.726 122.824
L442.066 127.906
L442.512 126.212
L443.851 131.294
L444.298 129.6
L444.744 131.294
L445.637 127.906
L446.083 129.6
L447.422 124.518
L447.869 126.212
L448.315 124.518
L449.208 127.906
L450.994 121.129
L451.44 122.824
L452.333 119.435
L452.779 121.129
L454.565 114.353
L455.904 119.435
L456.35 117.741
L456.797 119.435
L457.69 116.047
L458.582 119.435
L459.475 116.047
L461.261 122.824
L463.493 114.353
L465.725 122.824
L466.171 121.129
L467.51 126.212
L469.296 119.435
L470.635 124.518
L471.082 122.824
L471.528 124.518
L473.314 117.741
L473.76 119.435
L475.546 112.659
L475.992 114.353
L477.778 107.576
L479.117 112.659
L479.563 110.965
L480.456 114.353
L482.242 107.576
L482.688 109.271
L483.134 107.576
L484.474 112.659
L485.813 107.576
L486.259 109.271
L486.706 107.576
L488.938 116.047
L489.83 112.659
L492.062 121.129
L492.509 119.435
L493.402 122.824
L494.294 119.435
L494.741 121.129
L495.634 117.741
L497.866 126.212
L498.312 124.518
L499.205 127.906
L499.651 126.212
L500.098 127.906
L501.883 121.129
L503.669 127.906
L504.115 126.212
L505.454 131.294
L506.794 126.212
L507.686 129.6
L508.579 126.212
L509.026 127.906
L510.811 121.129
L511.258 122.824
L512.15 119.435
L513.043 122.824
L514.382 117.741
L515.275 121.129
L515.722 119.435
L516.614 122.824
L517.061 121.129
L517.954 124.518
L517.954 124.518" style="fill:none;stroke:#008000;stroke-linecap:square;"/>
   </g>
   <g id="line2d_3">
    <path clip-path="url(#pfd6a83a59a)" d="
M72 92.3294
L72.4464 90.6353
L72.8928 92.3294
L74.232 87.2471
L74.6784 88.9412
L78.2496 75.3882
L78.696 77.0824
L80.0352 72
L80.4816 73.6941
L80.928 72
L81.8208 75.3882
L82.2672 73.6941
L84.0528 80.4706
L85.8384 73.6941
L88.9632 85.5529
L91.6416 75.3882
L92.5344 78.7765
L92.9808 77.0824
L93.8736 80.4706
L94.32 78.7765
L94.7664 80.4706
L96.552 73.6941
L96.9984 75.3882
L98.3376 70.3059
L99.2304 73.6941
L99.6768 72
L100.57 75.3882
L101.016 73.6941
L101.462 75.3882
L102.355 72
L103.248 75.3882
L103.694 73.6941
L104.141 75.3882
L104.587 73.6941
L105.48 77.0824
L106.373 73.6941
L107.266 77.0824
L108.158 73.6941
L108.605 75.3882
L109.051 73.6941
L110.39 78.7765
L110.837 77.0824
L111.283 78.7765
L111.73 77.0824
L112.176 78.7765
L112.622 77.0824
L113.069 78.7765
L113.515 77.0824
L114.408 80.4706
L115.301 77.0824
L115.747 78.7765
L116.194 77.0824
L116.64 78.7765
L117.086 77.0824
L118.426 82.1647
L119.765 77.0824
L120.211 78.7765
L121.104 75.3882
L121.997 78.7765
L122.443 77.0824
L123.336 80.4706
L123.782 78.7765
L124.229 80.4706
L127.354 68.6118
L129.139 75.3882
L130.925 68.6118
L131.818 72
L133.157 66.9176
L133.603 68.6118
L134.05 66.9176
L134.942 70.3059
L135.389 68.6118
L136.282 72
L136.728 70.3059
L138.067 75.3882
L138.96 72
L139.406 73.6941
L141.638 65.2235
L142.531 68.6118
L142.978 66.9176
L143.87 70.3059
L144.317 68.6118
L145.656 73.6941
L146.102 72
L146.995 75.3882
L147.888 72
L149.674 78.7765
L150.566 75.3882
L151.459 78.7765
L151.906 77.0824
L152.352 78.7765
L153.691 73.6941
L154.584 77.0824
L155.03 75.3882
L155.477 77.0824
L156.37 73.6941
L158.155 80.4706
L159.941 73.6941
L160.387 75.3882
L161.28 72
L161.726 73.6941
L162.173 72
L162.619 73.6941
L164.851 65.2235
L165.298 66.9176
L167.083 60.1412
L168.422 65.2235
L169.315 61.8353
L169.762 63.5294
L170.654 60.1412
L171.547 63.5294
L172.44 60.1412
L175.118 70.3059
L176.011 66.9176
L176.458 68.6118
L176.904 66.9176
L178.243 72
L180.029 65.2235
L181.368 70.3059
L182.707 65.2235
L184.493 72
L185.386 68.6118
L185.832 70.3059
L186.278 68.6118
L187.618 73.6941
L188.51 70.3059
L188.957 72
L189.403 70.3059
L190.296 73.6941
L190.742 72
L191.189 73.6941
L192.082 70.3059
L192.528 72
L192.974 70.3059
L193.421 72
L193.867 70.3059
L194.314 72
L194.76 70.3059
L195.206 72
L195.653 70.3059
L196.992 75.3882
L197.438 73.6941
L199.224 80.4706
L200.117 77.0824
L201.456 82.1647
L201.902 80.4706
L202.349 82.1647
L202.795 80.4706
L203.242 82.1647
L204.581 77.0824
L205.474 80.4706
L205.92 78.7765
L206.366 80.4706
L206.813 78.7765
L207.259 80.4706
L210.384 68.6118
L210.83 70.3059
L211.277 68.6118
L212.616 73.6941
L213.062 72
L214.402 77.0824
L214.848 75.3882
L216.187 80.4706
L217.08 77.0824
L220.651 90.6353
L221.544 87.2471
L221.99 88.9412
L222.437 87.2471
L223.33 90.6353
L224.222 87.2471
L224.669 88.9412
L226.454 82.1647
L227.347 85.5529
L227.794 83.8588
L228.24 85.5529
L229.133 82.1647
L230.472 87.2471
L230.918 85.5529
L233.15 94.0235
L234.043 90.6353
L234.49 92.3294
L235.829 87.2471
L236.275 88.9412
L236.722 87.2471
L238.954 95.7176
L239.4 94.0235
L239.846 95.7176
L240.739 92.3294
L241.632 95.7176
L242.525 92.3294
L242.971 94.0235
L243.418 92.3294
L243.864 94.0235
L244.757 90.6353
L245.203 92.3294
L245.65 90.6353
L247.435 97.4118
L247.882 95.7176
L248.774 99.1059
L253.685 80.4706
L254.131 82.1647
L254.578 80.4706
L257.702 92.3294
L258.149 90.6353
L258.595 92.3294
L259.042 90.6353
L259.488 92.3294
L259.934 90.6353
L260.827 94.0235
L261.274 92.3294
L262.166 95.7176
L264.398 87.2471
L264.845 88.9412
L265.291 87.2471
L265.738 88.9412
L266.63 85.5529
L267.077 87.2471
L267.523 85.5529
L268.862 90.6353
L270.202 85.5529
L271.541 90.6353
L272.88 85.5529
L274.219 90.6353
L274.666 88.9412
L275.112 90.6353
L276.005 87.2471
L276.451 88.9412
L277.344 85.5529
L278.683 90.6353
L280.022 85.5529
L280.915 88.9412
L281.362 87.2471
L281.808 88.9412
L282.254 87.2471
L282.701 88.9412
L284.486 82.1647
L286.272 88.9412
L286.718 87.2471
L288.504 94.0235
L289.397 90.6353
L289.843 92.3294
L291.182 87.2471
L291.629 88.9412
L293.861 80.4706
L294.307 82.1647
L295.2 78.7765
L296.986 85.5529
L297.432 83.8588
L297.878 85.5529
L298.325 83.8588
L298.771 85.5529
L299.664 82.1647
L300.11 83.8588
L300.557 82.1647
L301.003 83.8588
L301.45 82.1647
L302.789 87.2471
L303.235 85.5529
L304.574 90.6353
L305.467 87.2471
L305.914 88.9412
L306.36 87.2471
L307.253 90.6353
L309.931 80.4706
L312.61 90.6353
L313.502 87.2471
L314.395 90.6353
L314.842 88.9412
L315.288 90.6353
L315.734 88.9412
L316.181 90.6353
L316.627 88.9412
L317.074 90.6353
L317.52 88.9412
L317.966 90.6353
L319.306 85.5529
L320.198 88.9412
L321.091 85.5529
L321.538 87.2471
L323.323 80.4706
L324.216 83.8588
L324.662 82.1647
L325.109 83.8588
L329.126 68.6118
L332.251 80.4706
L333.144 77.0824
L333.59 78.7765
L334.93 73.6941
L335.376 75.3882
L336.269 72
L336.715 73.6941
L337.608 70.3059
L338.054 72
L338.501 70.3059
L339.394 73.6941
L340.286 70.3059
L342.072 77.0824
L344.304 68.6118
L345.643 73.6941
L346.09 72
L346.982 75.3882
L347.875 72
L348.768 75.3882
L349.214 73.6941
L350.107 77.0824
L350.554 75.3882
L351 77.0824
L351.893 73.6941
L352.339 75.3882
L354.571 66.9176
L355.018 68.6118
L355.464 66.9176
L355.91 68.6118
L357.25 63.5294
L358.142 66.9176
L359.482 61.8353
L359.928 63.5294
L360.821 60.1412
L361.714 63.5294
L363.053 58.4471
L363.499 60.1412
L364.392 56.7529
L364.838 58.4471
L367.07 49.9765
L367.517 51.6706
L367.963 49.9765
L369.302 55.0588
L369.749 53.3647
L370.195 55.0588
L370.642 53.3647
L371.088 55.0588
L371.534 53.3647
L371.981 55.0588
L372.427 53.3647
L372.874 55.0588
L373.32 53.3647
L374.659 58.4471
L376.891 49.9765
L377.784 53.3647
L378.23 51.6706
L378.677 53.3647
L379.57 49.9765
L380.016 51.6706
L380.462 49.9765
L380.909 51.6706
L381.355 49.9765
L381.802 51.6706
L382.248 49.9765
L382.694 51.6706
L383.141 49.9765
L384.034 53.3647
L384.926 49.9765
L386.266 55.0588
L386.712 53.3647
L388.498 60.1412
L388.944 58.4471
L389.39 60.1412
L389.837 58.4471
L390.283 60.1412
L391.622 55.0588
L392.515 58.4471
L393.408 55.0588
L394.301 58.4471
L395.194 55.0588
L395.64 56.7529
L396.086 55.0588
L396.979 58.4471
L397.872 55.0588
L398.318 56.7529
L399.658 51.6706
L401.443 58.4471
L401.89 56.7529
L402.336 58.4471
L403.229 55.0588
L404.568 60.1412
L405.014 58.4471
L405.461 60.1412
L406.354 56.7529
L407.693 61.8353
L408.586 58.4471
L410.371 65.2235
L410.818 63.5294
L411.264 65.2235
L412.157 61.8353
L412.603 63.5294
L413.05 61.8353
L414.389 66.9176
L414.835 65.2235
L415.728 68.6118
L416.174 66.9176
L416.621 68.6118
L418.406 61.8353
L418.853 63.5294
L421.085 55.0588
L421.531 56.7529
L421.978 55.0588
L422.87 58.4471
L423.763 55.0588
L424.21 56.7529
L425.102 53.3647
L426.442 58.4471
L426.888 56.7529
L427.334 58.4471
L427.781 56.7529
L429.566 63.5294
L430.013 61.8353
L431.798 68.6118
L432.245 66.9176
L433.138 70.3059
L433.584 68.6118
L434.477 72
L437.602 60.1412
L440.726 72
L441.619 68.6118
L442.066 70.3059
L442.958 66.9176
L443.405 68.6118
L444.744 63.5294
L446.53 70.3059
L447.422 66.9176
L447.869 68.6118
L448.762 65.2235
L449.654 68.6118
L450.101 66.9176
L451.44 72
L451.886 70.3059
L454.565 80.4706
L455.458 77.0824
L456.35 80.4706
L457.69 75.3882
L458.136 77.0824
L458.582 75.3882
L459.475 78.7765
L461.261 72
L462.6 77.0824
L463.046 75.3882
L463.493 77.0824
L464.832 72
L466.171 77.0824
L466.618 75.3882
L467.51 78.7765
L468.403 75.3882
L469.296 78.7765
L472.421 66.9176
L474.206 73.6941
L474.653 72
L475.099 73.6941
L475.546 72
L475.992 73.6941
L476.885 70.3059
L477.331 72
L478.224 68.6118
L478.67 70.3059
L479.117 68.6118
L479.563 70.3059
L480.01 68.6118
L480.456 70.3059
L480.902 68.6118
L481.349 70.3059
L482.242 66.9176
L483.134 70.3059
L484.474 65.2235
L485.366 68.6118
L485.813 66.9176
L486.259 68.6118
L487.152 65.2235
L488.045 68.6118
L488.491 66.9176
L492.062 80.4706
L492.509 78.7765
L492.955 80.4706
L493.848 77.0824
L494.294 78.7765
L494.741 77.0824
L497.866 88.9412
L498.312 87.2471
L500.99 97.4118
L501.437 95.7176
L502.33 99.1059
L502.776 97.4118
L504.115 102.494
L504.562 100.8
L505.008 102.494
L506.794 95.7176
L507.686 99.1059
L509.026 94.0235
L509.472 95.7176
L509.918 94.0235
L510.811 97.4118
L512.597 90.6353
L514.829 99.1059
L515.275 97.4118
L516.168 100.8
L517.507 95.7176
L517.954 97.4118
L517.954 97.4118" style="fill:none;stroke:#ff0000;stroke-linecap:square;"/>
   </g>
   <g id="matplotlib.axis_1">
    <g id="xtick_1">
     <g id="line2d_4">
      <defs>
       <path d="
M0 0
L0 -4" id="m93b0483c22" style="stroke:#000000;stroke-width:0.5;"/>
      </defs>
      <g>
       <use style="stroke:#000000;stroke-width:0.5;" x="72.0" xlink:href="#m93b0483c22" y="144.847058824"/>
      </g>
     </g>
     <g id="line2d_5">
      <defs>
       <path d="
M0 0
L0 4" id="m741efc42ff" style="stroke:#000000;stroke-width:0.5;"/>
      </defs>
      <g>
       <use style="stroke:#000000;stroke-width:0.5;" x="72.0" xlink:href="#m741efc42ff" y="43.2"/>
      </g>
     </g>
    </g>
    <g id="xtick_2">
     <g id="line2d_6">
      <g>
       <use style="stroke:#000000;stroke-width:0.5;" x="161.28" xlink:href="#m93b0483c22" y="144.847058824"/>
      </g>
     </g>
     <g id="line2d_7">
      <g>
       <use style="stroke:#000000;stroke-width:0.5;" x="161.28" xlink:href="#m741efc42ff" y="43.2"/>
      </g>
     </g>
    </g>
    <g id="xtick_3">
     <g id="line2d_8">
      <g>
       <use style="stroke:#000000;stroke-width:0.5;" x="250.56" xlink:href="#m93b0483c22" y="144.847058824"/>
      </g>
     </g>
     <g id="line2d_9">
      <g>
       <use style="stroke:#000000;stroke-width:0.5;" x="250.56" xlink:href="#m741efc42ff" y="43.2"/>
      </g>
     </g>
    </g>
    <g id="xtick_4">
     <g id="line2d_10">
      <g>
       <use style="stroke:#000000;stroke-width:0.5;" x="339.84" xlink:href="#m93b0483c22" y="144.847058824"/>
      </g>
     </g>
     <g id="line2d_11">
      <g>
       <use style="stroke:#000000;stroke-width:0.5;" x="339.84" xlink:href="#m741efc42ff" y="43.2"/>
      </g>
     </g>
    </g>
    <g id="xtick_5">
     <g id="line2d_12">
      <g>
       <use style="stroke:#000000;stroke-width:0.5;" x="429.12" xlink:href="#m93b0483c22" y="144.847058824"/>
      </g>
     </g>
     <g id="line2d_13">
      <g>
       <use style="stroke:#000000;stroke-width:0.5;" x="429.12" xlink:href="#m741efc42ff" y="43.2"/>
      </g>
     </g>
    </g>
    <g id="xtick_6">
     <g id="line2d_14">
      <g>
       <use style="stroke:#000000;stroke-width:0.5;" x="518.4" xlink:href="#m93b0483c22" y="144.847058824"/>
      </g>
     </g>
     <g id="line2d_15">
      <g>
       <use style="stroke:#000000;stroke-width:0.5;" x="518.4" xlink:href="#m741efc42ff" y="43.2"/>
      </g>
     </g>
    </g>
   </g>
   <g id="matplotlib.axis_2">
    <g id="ytick_1">
     <g id="line2d_16">
      <defs>
       <path d="
M0 0
L4 0" id="m728421d6d4" style="stroke:#000000;stroke-width:0.5;"/>
      </defs>
      <g>
       <use style="stroke:#000000;stroke-width:0.5;" x="72.0" xlink:href="#m728421d6d4" y="144.847058824"/>
      </g>
     </g>
     <g id="line2d_17">
      <defs>
       <path d="
M0 0
L-4 0" id="mcb0005524f" style="stroke:#000000;stroke-width:0.5;"/>
      </defs>
      <g>
       <use style="stroke:#000000;stroke-width:0.5;" x="518.4" xlink:href="#mcb0005524f" y="144.847058824"/>
      </g>
     </g>
     <g id="text_1">
      <!-- −30 -->
      <defs>
       <path d="
M31.7812 66.4062
Q24.1719 66.4062 20.3281 58.9062
Q16.5 51.4219 16.5 36.375
Q16.5 21.3906 20.3281 13.8906
Q24.1719 6.39062 31.7812 6.39062
Q39.4531 6.39062 43.2812 13.8906
Q47.125 21.3906 47.125 36.375
Q47.125 51.4219 43.2812 58.9062
Q39.4531 66.4062 31.7812 66.4062
M31.7812 74.2188
Q44.0469 74.2188 50.5156 64.5156
Q56.9844 54.8281 56.9844 36.375
Q56.9844 17.9688 50.5156 8.26562
Q44.0469 -1.42188 31.7812 -1.42188
Q19.5312 -1.42188 13.0625 8.26562
Q6.59375 17.9688 6.59375 36.375
Q6.59375 54.8281 13.0625 64.5156
Q19.5312 74.2188 31.7812 74.2188" id="DejaVuSans-30"/>
       <path d="
M40.5781 39.3125
Q47.6562 37.7969 51.625 33
Q55.6094 28.2188 55.6094 21.1875
Q55.6094 10.4062 48.1875 4.48438
Q40.7656 -1.42188 27.0938 -1.42188
Q22.5156 -1.42188 17.6562 -0.515625
Q12.7969 0.390625 7.625 2.20312
L7.625 11.7188
Q11.7188 9.32812 16.5938 8.10938
Q21.4844 6.89062 26.8125 6.89062
Q36.0781 6.89062 40.9375 10.5469
Q45.7969 14.2031 45.7969 21.1875
Q45.7969 27.6406 41.2812 31.2656
Q36.7656 34.9062 28.7188 34.9062
L20.2188 34.9062
L20.2188 43.0156
L29.1094 43.0156
Q36.375 43.0156 40.2344 45.9219
Q44.0938 48.8281 44.0938 54.2969
Q44.0938 59.9062 40.1094 62.9062
Q36.1406 65.9219 28.7188 65.9219
Q24.6562 65.9219 20.0156 65.0312
Q15.375 64.1562 9.8125 62.3125
L9.8125 71.0938
Q15.4375 72.6562 20.3438 73.4375
Q25.25 74.2188 29.5938 74.2188
Q40.8281 74.2188 47.3594 69.1094
Q53.9062 64.0156 53.9062 55.3281
Q53.9062 49.2656 50.4375 45.0938
Q46.9688 40.9219 40.5781 39.3125" id="DejaVuSans-33"/>
       <path d="
M10.5938 35.5
L73.1875 35.5
L73.1875 27.2031
L10.5938 27.2031
z
" id="DejaVuSans-2212"/>
      </defs>
      <g transform="translate(44.7425 148.158308824)scale(0.12 -0.12)">
       <use xlink:href="#DejaVuSans-2212"/>
       <use x="83.7890625" xlink:href="#DejaVuSans-33"/>
       <use x="147.412109375" xlink:href="#DejaVuSans-30"/>
      </g>
     </g>
    </g>
    <g id="ytick_2">
     <g id="line2d_18">
      <g>
       <use style="stroke:#000000;stroke-width:0.5;" x="72.0" xlink:href="#m728421d6d4" y="127.905882353"/>
      </g>
     </g>
     <g id="line2d_19">
      <g>
       <use style="stroke:#000000;stroke-width:0.5;" x="518.4" xlink:href="#mcb0005524f" y="127.905882353"/>
      </g>
     </g>
     <g id="text_2">
      <!-- −20 -->
      <defs>
       <path d="
M19.1875 8.29688
L53.6094 8.29688
L53.6094 0
L7.32812 0
L7.32812 8.29688
Q12.9375 14.1094 22.625 23.8906
Q32.3281 33.6875 34.8125 36.5312
Q39.5469 41.8438 41.4219 45.5312
Q43.3125 49.2188 43.3125 52.7812
Q43.3125 58.5938 39.2344 62.25
Q35.1562 65.9219 28.6094 65.9219
Q23.9688 65.9219 18.8125 64.3125
Q13.6719 62.7031 7.8125 59.4219
L7.8125 69.3906
Q13.7656 71.7812 18.9375 73
Q24.125 74.2188 28.4219 74.2188
Q39.75 74.2188 46.4844 68.5469
Q53.2188 62.8906 53.2188 53.4219
Q53.2188 48.9219 51.5312 44.8906
Q49.8594 40.875 45.4062 35.4062
Q44.1875 33.9844 37.6406 27.2188
Q31.1094 20.4531 19.1875 8.29688" id="DejaVuSans-32"/>
      </defs>
      <g transform="translate(44.7425 131.217132353)scale(0.12 -0.12)">
       <use xlink:href="#DejaVuSans-2212"/>
       <use x="83.7890625" xlink:href="#DejaVuSans-32"/>
       <use x="147.412109375" xlink:href="#DejaVuSans-30"/>
      </g>
     </g>
    </g>
    <g id="ytick_3">
     <g id="line2d_20">
      <g>
       <use style="stroke:#000000;stroke-width:0.5;" x="72.0" xlink:href="#m728421d6d4" y="110.964705882"/>
      </g>
     </g>
     <g id="line2d_21">
      <g>
       <use style="stroke:#000000;stroke-width:0.5;" x="518.4" xlink:href="#mcb0005524f" y="110.964705882"/>
      </g>
     </g>
     <g id="text_3">
      <!-- −10 -->
      <defs>
       <path d="
M12.4062 8.29688
L28.5156 8.29688
L28.5156 63.9219
L10.9844 60.4062
L10.9844 69.3906
L28.4219 72.9062
L38.2812 72.9062
L38.2812 8.29688
L54.3906 8.29688
L54.3906 0
L12.4062 0
z
" id="DejaVuSans-31"/>
      </defs>
      <g transform="translate(44.7425 114.275955882)scale(0.12 -0.12)">
       <use xlink:href="#DejaVuSans-2212"/>
       <use x="83.7890625" xlink:href="#DejaVuSans-31"/>
       <use x="147.412109375" xlink:href="#DejaVuSans-30"/>
      </g>
     </g>
    </g>
    <g id="ytick_4">
     <g id="line2d_22">
      <g>
       <use style="stroke:#000000;stroke-width:0.5;" x="72.0" xlink:href="#m728421d6d4" y="94.0235294118"/>
      </g>
     </g>
     <g id="line2d_23">
      <g>
       <use style="stroke:#000000;stroke-width:0.5;" x="518.4" xlink:href="#mcb0005524f" y="94.0235294118"/>
      </g>
     </g>
     <g id="text_4">
      <!-- 0 -->
      <g transform="translate(61.953125 97.3347794118)scale(0.12 -0.12)">
       <use xlink:href="#DejaVuSans-30"/>
      </g>
     </g>
    </g>
    <g id="ytick_5">
     <g id="line2d_24">
      <g>
       <use style="stroke:#000000;stroke-width:0.5;" x="72.0" xlink:href="#m728421d6d4" y="77.0823529412"/>
      </g>
     </g>
     <g id="line2d_25">
      <g>
       <use style="stroke:#000000;stroke-width:0.5;" x="518.4" xlink:href="#mcb0005524f" y="77.0823529412"/>
      </g>
     </g>
     <g id="text_5">
      <!-- 10 -->
      <g transform="translate(54.845 80.3936029412)scale(0.12 -0.12)">
       <use xlink:href="#DejaVuSans-31"/>
       <use x="63.623046875" xlink:href="#DejaVuSans-30"/>
      </g>
     </g>
    </g>
    <g id="ytick_6">
     <g id="line2d_26">
      <g>
       <use style="stroke:#000000;stroke-width:0.5;" x="72.0" xlink:href="#m728421d6d4" y="60.1411764706"/>
      </g>
     </g>
     <g id="line2d_27">
      <g>
       <use style="stroke:#000000;stroke-width:0.5;" x="518.4" xlink:href="#mcb0005524f" y="60.1411764706"/>
      </g>
     </g>
     <g id="text_6">
      <!-- 20 -->
      <g transform="translate(54.40625 63.4524264706)scale(0.12 -0.12)">
       <use xlink:href="#DejaVuSans-32"/>
       <use x="63.623046875" xlink:href="#DejaVuSans-30"/>
      </g>
     </g>
    </g>
    <g id="ytick_7">
     <g id="line2d_28">
      <g>
       <use style="stroke:#000000;stroke-width:0.5;" x="72.0" xlink:href="#m728421d6d4" y="43.2"/>
      </g>
     </g>
     <g id="line2d_29">
      <g>
       <use style="stroke:#000000;stroke-width:0.5;" x="518.4" xlink:href="#mcb0005524f" y="43.2"/>
      </g>
     </g>
     <g id="text_7">
      <!-- 30 -->
      <g transform="translate(54.441875 46.51125)scale(0.12 -0.12)">
       <use xlink:href="#DejaVuSans-33"/>
       <use x="63.623046875" xlink:href="#DejaVuSans-30"/>
      </g>
     </g>
    </g>
   </g>
   <g id="patch_3">
    <path d="
M72 43.2
L518.4 43.2" style="fill:none;stroke:#000000;"/>
   </g>
   <g id="patch_4">
    <path d="
M518.4 144.847
L518.4 43.2" style="fill:none;stroke:#000000;"/>
   </g>
   <g id="patch_5">
    <path d="
M72 144.847
L518.4 144.847" style="fill:none;stroke:#000000;"/>
   </g>
   <g id="patch_6">
    <path d="
M72 144.847
L72 43.2" style="fill:none;stroke:#000000;"/>
   </g>
   <g id="text_8">
    <!-- $p=0.5$ -->
    <defs>
     <path d="
M-2.48438 -19.3906
Q-3.42188 -19.3906 -3.42188 -18.1094
Q-3.07812 -15.9219 -2.09375 -15.9219
Q1.03125 -15.9219 2.26562 -15.3594
Q3.51562 -14.7969 4.20312 -12.5
L15.4844 32.5156
Q16.2188 34.375 16.2188 37.3125
Q16.2188 41.6094 13.2812 41.6094
Q10.1562 41.6094 8.64062 37.8594
Q7.125 34.125 5.71875 28.4219
Q5.71875 27.7812 4.89062 27.7812
L3.71875 27.7812
Q3.46875 27.7812 3.17188 28.1406
Q2.875 28.5156 2.875 28.8125
Q3.95312 33.1562 4.95312 36.1719
Q5.95312 39.2031 8.07812 41.6875
Q10.2031 44.1875 13.375 44.1875
Q16.7969 44.1875 19.375 42.25
Q21.9688 40.3281 22.7031 37.0156
Q25.4375 40.1875 28.75 42.1875
Q32.0781 44.1875 35.5938 44.1875
Q39.7969 44.1875 42.8906 41.9375
Q46 39.7031 47.5625 36.0625
Q49.125 32.4219 49.125 28.2188
Q49.125 21.7812 45.8281 14.8906
Q42.5312 8.01562 36.8906 3.4375
Q31.25 -1.125 24.8125 -1.125
Q21.875 -1.125 19.5 0.53125
Q17.1406 2.20312 15.8281 4.89062
L11.2812 -12.8906
Q11.0312 -14.3594 10.9844 -14.5938
Q10.9844 -15.9219 17.5781 -15.9219
Q18.6094 -15.9219 18.6094 -17.1875
Q18.2656 -18.5 18.0469 -18.9375
Q17.8281 -19.3906 16.8906 -19.3906
z

M24.9062 1.51562
Q28.375 1.51562 31.3438 4.375
Q34.3281 7.23438 36.1875 10.7969
Q37.5469 13.4844 38.7344 17.3594
Q39.9375 21.2344 40.8125 25.625
Q41.7031 30.0312 41.7031 32.625
Q41.7031 34.9062 41.0938 36.9062
Q40.4844 38.9219 39.0938 40.2656
Q37.7031 41.6094 35.4062 41.6094
Q31.7344 41.6094 28.4844 38.9844
Q25.25 36.375 22.6094 32.5156
L22.6094 32.1719
L17.0938 10.1094
Q17.7812 6.54688 19.7344 4.03125
Q21.6875 1.51562 24.9062 1.51562" id="Cmmi10-70"/>
     <path d="
M25 -2.20312
Q12.75 -2.20312 8.32812 7.875
Q3.90625 17.9688 3.90625 31.8906
Q3.90625 40.5781 5.48438 48.2344
Q7.07812 55.9062 11.7812 61.25
Q16.5 66.6094 25 66.6094
Q31.5938 66.6094 35.7812 63.375
Q39.9844 60.1562 42.1875 55.0469
Q44.3906 49.9531 45.1875 44.1094
Q46 38.2812 46 31.8906
Q46 23.2969 44.4062 15.7969
Q42.8281 8.29688 38.1875 3.04688
Q33.5469 -2.20312 25 -2.20312
M25 0.390625
Q30.5625 0.390625 33.2969 6.09375
Q36.0312 11.8125 36.6719 18.75
Q37.3125 25.6875 37.3125 33.5
Q37.3125 41.0156 36.6719 47.3594
Q36.0312 53.7188 33.3125 58.8594
Q30.6094 64.0156 25 64.0156
Q19.3438 64.0156 16.6094 58.8281
Q13.875 53.6562 13.2344 47.3281
Q12.5938 41.0156 12.5938 33.5
Q12.5938 27.9375 12.8594 23
Q13.1406 18.0625 14.3125 12.8125
Q15.4844 7.5625 18.0938 3.96875
Q20.7031 0.390625 25 0.390625" id="Cmr10-30"/>
     <path d="
M8.40625 5.51562
Q8.40625 7.76562 10.0625 9.375
Q11.7188 10.9844 13.9219 10.9844
Q15.2812 10.9844 16.5938 10.25
Q17.9219 9.51562 18.6562 8.20312
Q19.3906 6.89062 19.3906 5.51562
Q19.3906 3.32812 17.7656 1.65625
Q16.1562 0 13.9219 0
Q11.7188 0 10.0625 1.65625
Q8.40625 3.32812 8.40625 5.51562" id="Cmmi10-3a"/>
     <path d="
M8.6875 11.375
Q9.71875 8.45312 11.8438 6.04688
Q13.9688 3.65625 16.875 2.3125
Q19.7812 0.984375 22.9062 0.984375
Q30.125 0.984375 32.8594 6.59375
Q35.5938 12.2031 35.5938 20.2188
Q35.5938 23.6875 35.4688 26.0469
Q35.3594 28.4219 34.8125 30.6094
Q33.8906 34.125 31.5625 36.7656
Q29.25 39.4062 25.875 39.4062
Q22.5156 39.4062 20.0938 38.375
Q17.6719 37.3594 16.1562 35.9844
Q14.6562 34.625 13.4844 33.1094
Q12.3125 31.5938 12.0156 31.5
L10.8906 31.5
Q10.6406 31.5 10.2656 31.8125
Q9.90625 32.125 9.90625 32.4219
L9.90625 65.8281
Q9.90625 66.0625 10.2188 66.3281
Q10.5469 66.6094 10.8906 66.6094
L11.1875 66.6094
Q17.9219 63.375 25.4844 63.375
Q32.9062 63.375 39.7969 66.6094
L40.0938 66.6094
Q40.4375 66.6094 40.7188 66.3594
Q41.0156 66.1094 41.0156 65.8281
L41.0156 64.8906
Q41.0156 64.4062 40.8281 64.4062
Q37.4062 59.8594 32.25 57.3125
Q27.0938 54.7812 21.5781 54.7812
Q17.5781 54.7812 13.375 55.9062
L13.375 37.0156
Q16.7031 39.7031 19.3125 40.8438
Q21.9219 42 25.9844 42
Q31.5 42 35.8594 38.8125
Q40.2344 35.6406 42.5781 30.5312
Q44.9219 25.4375 44.9219 20.125
Q44.9219 14.1094 41.9688 8.98438
Q39.0156 3.85938 33.9375 0.828125
Q28.8594 -2.20312 22.9062 -2.20312
Q17.9688 -2.20312 13.8438 0.328125
Q9.71875 2.875 7.34375 7.17188
Q4.98438 11.4688 4.98438 16.3125
Q4.98438 18.5625 6.4375 19.9688
Q7.90625 21.3906 10.1094 21.3906
Q12.3125 21.3906 13.7969 19.9375
Q15.2812 18.5 15.2812 16.3125
Q15.2812 14.1562 13.7969 12.6719
Q12.3125 11.1875 10.1094 11.1875
Q9.76562 11.1875 9.32812 11.25
Q8.89062 11.3281 8.6875 11.375" id="Cmr10-35"/>
     <path d="
M7.51562 13.2812
Q6.6875 13.2812 6.14062 13.9062
Q5.60938 14.5469 5.60938 15.2812
Q5.60938 16.1094 6.14062 16.6875
Q6.6875 17.2812 7.51562 17.2812
L70.3125 17.2812
Q71.0469 17.2812 71.5781 16.6875
Q72.125 16.1094 72.125 15.2812
Q72.125 14.5469 71.5781 13.9062
Q71.0469 13.2812 70.3125 13.2812
z

M7.51562 32.7188
Q6.6875 32.7188 6.14062 33.2969
Q5.60938 33.8906 5.60938 34.7188
Q5.60938 35.4531 6.14062 36.0781
Q6.6875 36.7188 7.51562 36.7188
L70.3125 36.7188
Q71.0469 36.7188 71.5781 36.0781
Q72.125 35.4531 72.125 34.7188
Q72.125 33.8906 71.5781 33.2969
Q71.0469 32.7188 70.3125 32.7188
z
" id="Cmr10-3d"/>
    </defs>
    <g transform="translate(269.91 38.2)scale(0.18 -0.18)">
     <use transform="translate(0.0 0.390625)" xlink:href="#Cmmi10-70"/>
     <use transform="translate(67.8515625 0.390625)" xlink:href="#Cmr10-3d"/>
     <use transform="translate(151.91015625 0.390625)" xlink:href="#Cmr10-30"/>
     <use transform="translate(201.91015625 0.390625)" xlink:href="#Cmmi10-3a"/>
     <use transform="translate(230.453125 0.390625)" xlink:href="#Cmr10-35"/>
    </g>
   </g>
  </g>
  <g id="axes_2">
   <g id="patch_7">
    <path d="
M72 266.824
L518.4 266.824
L518.4 165.176
L72 165.176
z
" style="fill:#ffffff;"/>
   </g>
   <g id="line2d_30">
    <path clip-path="url(#p19969a3f5c)" d="
M72 225.758
L74.232 223.725
L77.3568 226.571
L84.4992 220.066
L86.2848 221.692
L88.5168 219.659
L88.9632 220.066
L93.4272 216
L94.32 216.813
L98.3376 213.154
L102.355 216.813
L107.712 211.934
L108.158 212.341
L110.837 209.901
L120.211 218.44
L125.122 213.967
L125.568 214.374
L129.586 210.714
L132.71 213.56
L142.531 204.616
L156.816 217.626
L158.602 216
L159.941 217.22
L160.834 216.407
L167.083 222.099
L185.832 205.022
L197.438 215.593
L199.67 213.56
L202.349 216
L207.259 211.528
L207.706 211.934
L209.045 210.714
L211.723 213.154
L218.866 206.648
L224.222 211.528
L231.365 205.022
L234.043 207.462
L242.525 199.736
L246.096 202.989
L251.006 198.517
L251.899 199.33
L254.131 197.297
L260.827 203.396
L263.059 201.363
L265.291 203.396
L271.094 198.11
L275.112 201.769
L277.79 199.33
L280.469 201.769
L283.594 198.923
L286.272 201.363
L287.165 200.55
L297.878 210.308
L298.771 209.495
L299.664 210.308
L301.003 209.088
L306.36 213.967
L306.806 213.56
L335.376 239.582
L337.608 237.549
L338.947 238.769
L343.411 234.703
L344.304 235.516
L351 229.417
L362.16 239.582
L373.766 229.011
L376.445 231.45
L376.891 231.044
L382.694 236.329
L390.73 229.011
L391.176 229.417
L392.962 227.791
L396.979 231.45
L397.426 231.044
L408.586 241.208
L414.389 235.923
L414.835 236.329
L415.728 235.516
L416.621 236.329
L424.21 229.417
L426.442 231.45
L427.781 230.231
L428.674 231.044
L431.352 228.604
L434.03 231.044
L435.37 229.824
L436.709 231.044
L438.494 229.417
L448.315 238.362
L453.226 233.89
L454.565 235.11
L455.458 234.296
L459.029 237.549
L463.046 233.89
L464.832 235.516
L467.51 233.077
L467.957 233.483
L475.099 226.978
L484.474 235.516
L488.938 231.45
L500.098 241.615
L506.347 235.923
L510.811 239.989
L512.15 238.769
L512.597 239.176
L513.936 237.956
L517.507 241.208
L517.954 240.802
L517.954 240.802" style="fill:none;stroke:#0000ff;stroke-linecap:square;"/>
   </g>
   <g id="line2d_31">
    <path clip-path="url(#p19969a3f5c)" d="
M72 225.758
L76.0176 222.099
L76.464 222.505
L84.9456 214.78
L85.392 215.187
L88.5168 212.341
L91.1952 214.78
L106.819 200.55
L112.176 205.429
L117.979 200.143
L122.89 204.616
L126.014 201.769
L147.888 221.692
L151.906 218.033
L157.262 222.912
L158.155 222.099
L163.066 226.571
L164.851 224.945
L166.19 226.165
L169.315 223.319
L170.654 224.538
L185.386 211.121
L187.171 212.747
L187.618 212.341
L189.403 213.967
L193.867 209.901
L195.206 211.121
L196.992 209.495
L198.331 210.714
L201.456 207.868
L205.027 211.121
L212.17 204.616
L217.973 209.901
L226.008 202.583
L228.686 205.022
L229.579 204.209
L230.026 204.616
L231.365 203.396
L231.811 203.802
L237.614 198.517
L239.4 200.143
L240.739 198.923
L249.221 206.648
L250.114 205.835
L251.899 207.462
L258.595 201.363
L259.042 201.769
L260.827 200.143
L268.862 207.462
L272.434 204.209
L285.826 216.407
L286.718 215.593
L288.058 216.813
L288.95 216
L291.629 218.44
L294.307 216
L301.896 222.912
L305.467 219.659
L307.253 221.286
L317.074 212.341
L319.752 214.78
L321.091 213.56
L321.984 214.374
L322.877 213.56
L327.341 217.626
L328.234 216.813
L329.126 217.626
L333.144 213.967
L340.733 220.879
L350.107 212.341
L353.232 215.187
L356.803 211.934
L358.589 213.56
L363.053 209.495
L365.731 211.934
L385.373 194.044
L392.515 200.55
L393.854 199.33
L394.747 200.143
L398.318 196.89
L399.658 198.11
L401.443 196.484
L403.229 198.11
L406.8 194.857
L412.157 199.736
L421.978 190.792
L427.781 196.077
L433.584 190.792
L434.923 192.011
L452.333 176.154
L466.171 188.759
L472.867 182.66
L474.206 183.88
L476.885 181.44
L480.01 184.286
L480.902 183.473
L484.92 187.132
L487.598 184.693
L488.491 185.506
L490.277 183.88
L499.205 192.011
L502.33 189.165
L502.776 189.572
L510.811 182.253
L513.043 184.286
L517.954 179.814
L517.954 179.814" style="fill:none;stroke:#008000;stroke-linecap:square;"/>
   </g>
   <g id="line2d_32">
    <path clip-path="url(#p19969a3f5c)" d="
M72 225.758
L77.8032 220.472
L79.1424 221.692
L80.4816 220.472
L88.0704 227.384
L93.8736 222.099
L94.32 222.505
L100.123 217.22
L101.016 218.033
L101.909 217.22
L106.373 221.286
L109.051 218.846
L115.747 224.945
L116.194 224.538
L119.318 227.384
L121.104 225.758
L124.675 229.011
L128.693 225.352
L130.925 227.384
L132.264 226.165
L133.157 226.978
L134.942 225.352
L141.192 231.044
L142.085 230.231
L149.227 236.736
L155.477 231.044
L157.262 232.67
L165.744 224.945
L167.53 226.571
L167.976 226.165
L172.886 230.637
L174.226 229.417
L183.154 237.549
L183.6 237.143
L185.832 239.176
L196.099 229.824
L198.778 232.264
L206.366 225.352
L233.597 250.153
L238.954 245.274
L255.024 259.912
L256.81 258.285
L260.827 261.944
L262.166 260.725
L263.059 261.538
L266.184 258.692
L271.541 263.571
L281.362 254.626
L284.04 257.065
L284.933 256.252
L285.379 256.659
L287.165 255.032
L289.397 257.065
L292.075 254.626
L292.522 255.032
L295.2 252.593
L301.003 257.879
L306.36 253
L312.163 258.285
L317.074 253.813
L319.752 256.252
L321.538 254.626
L324.662 257.472
L335.376 247.714
L342.518 254.219
L344.75 252.186
L346.536 253.813
L346.982 253.406
L347.429 253.813
L347.875 253.406
L349.214 254.626
L351 253
L354.571 256.252
L359.035 252.186
L359.928 253
L360.821 252.186
L363.499 254.626
L369.749 248.934
L378.23 256.659
L379.57 255.439
L380.909 256.659
L385.373 252.593
L390.73 257.472
L391.176 257.065
L392.069 257.879
L395.194 255.032
L397.426 257.065
L398.765 255.846
L399.658 256.659
L402.782 253.813
L403.229 254.219
L405.014 252.593
L417.96 264.384
L421.978 260.725
L422.424 261.131
L432.245 252.186
L438.941 258.285
L453.226 245.274
L459.922 251.373
L470.635 241.615
L476.438 246.901
L481.349 242.428
L484.474 245.274
L484.92 244.868
L506.794 264.791
L512.15 259.912
L514.829 262.351
L517.954 259.505
L517.954 259.505" style="fill:none;stroke:#ff0000;stroke-linecap:square;"/>
   </g>
   <g id="matplotlib.axis_3">
    <g id="xtick_7">
     <g id="line2d_33">
      <g>
       <use style="stroke:#000000;stroke-width:0.5;" x="72.0" xlink:href="#m93b0483c22" y="266.823529412"/>
      </g>
     </g>
     <g id="line2d_34">
      <g>
       <use style="stroke:#000000;stroke-width:0.5;" x="72.0" xlink:href="#m741efc42ff" y="165.176470588"/>
      </g>
     </g>
    </g>
    <g id="xtick_8">
     <g id="line2d_35">
      <g>
       <use style="stroke:#000000;stroke-width:0.5;" x="161.28" xlink:href="#m93b0483c22" y="266.823529412"/>
      </g>
     </g>
     <g id="line2d_36">
      <g>
       <use style="stroke:#000000;stroke-width:0.5;" x="161.28" xlink:href="#m741efc42ff" y="165.176470588"/>
      </g>
     </g>
    </g>
    <g id="xtick_9">
     <g id="line2d_37">
      <g>
       <use style="stroke:#000000;stroke-width:0.5;" x="250.56" xlink:href="#m93b0483c22" y="266.823529412"/>
      </g>
     </g>
     <g id="line2d_38">
      <g>
       <use style="stroke:#000000;stroke-width:0.5;" x="250.56" xlink:href="#m741efc42ff" y="165.176470588"/>
      </g>
     </g>
    </g>
    <g id="xtick_10">
     <g id="line2d_39">
      <g>
       <use style="stroke:#000000;stroke-width:0.5;" x="339.84" xlink:href="#m93b0483c22" y="266.823529412"/>
      </g>
     </g>
     <g id="line2d_40">
      <g>
       <use style="stroke:#000000;stroke-width:0.5;" x="339.84" xlink:href="#m741efc42ff" y="165.176470588"/>
      </g>
     </g>
    </g>
    <g id="xtick_11">
     <g id="line2d_41">
      <g>
       <use style="stroke:#000000;stroke-width:0.5;" x="429.12" xlink:href="#m93b0483c22" y="266.823529412"/>
      </g>
     </g>
     <g id="line2d_42">
      <g>
       <use style="stroke:#000000;stroke-width:0.5;" x="429.12" xlink:href="#m741efc42ff" y="165.176470588"/>
      </g>
     </g>
    </g>
    <g id="xtick_12">
     <g id="line2d_43">
      <g>
       <use style="stroke:#000000;stroke-width:0.5;" x="518.4" xlink:href="#m93b0483c22" y="266.823529412"/>
      </g>
     </g>
     <g id="line2d_44">
      <g>
       <use style="stroke:#000000;stroke-width:0.5;" x="518.4" xlink:href="#m741efc42ff" y="165.176470588"/>
      </g>
     </g>
    </g>
   </g>
   <g id="matplotlib.axis_4">
    <g id="ytick_8">
     <g id="line2d_45">
      <g>
       <use style="stroke:#000000;stroke-width:0.5;" x="72.0" xlink:href="#m728421d6d4" y="266.823529412"/>
      </g>
     </g>
     <g id="line2d_46">
      <g>
       <use style="stroke:#000000;stroke-width:0.5;" x="518.4" xlink:href="#mcb0005524f" y="266.823529412"/>
      </g>
     </g>
     <g id="text_9">
      <!-- −100 -->
      <g transform="translate(37.1075 270.134779412)scale(0.12 -0.12)">
       <use xlink:href="#DejaVuSans-2212"/>
       <use x="83.7890625" xlink:href="#DejaVuSans-31"/>
       <use x="147.412109375" xlink:href="#DejaVuSans-30"/>
       <use x="211.03515625" xlink:href="#DejaVuSans-30"/>
      </g>
     </g>
    </g>
    <g id="ytick_9">
     <g id="line2d_47">
      <g>
       <use style="stroke:#000000;stroke-width:0.5;" x="72.0" xlink:href="#m728421d6d4" y="246.494117647"/>
      </g>
     </g>
     <g id="line2d_48">
      <g>
       <use style="stroke:#000000;stroke-width:0.5;" x="518.4" xlink:href="#mcb0005524f" y="246.494117647"/>
      </g>
     </g>
     <g id="text_10">
      <!-- −50 -->
      <defs>
       <path d="
M10.7969 72.9062
L49.5156 72.9062
L49.5156 64.5938
L19.8281 64.5938
L19.8281 46.7344
Q21.9688 47.4688 24.1094 47.8281
Q26.2656 48.1875 28.4219 48.1875
Q40.625 48.1875 47.75 41.5
Q54.8906 34.8125 54.8906 23.3906
Q54.8906 11.625 47.5625 5.09375
Q40.2344 -1.42188 26.9062 -1.42188
Q22.3125 -1.42188 17.5469 -0.640625
Q12.7969 0.140625 7.71875 1.70312
L7.71875 11.625
Q12.1094 9.23438 16.7969 8.0625
Q21.4844 6.89062 26.7031 6.89062
Q35.1562 6.89062 40.0781 11.3281
Q45.0156 15.7656 45.0156 23.3906
Q45.0156 31 40.0781 35.4375
Q35.1562 39.8906 26.7031 39.8906
Q22.75 39.8906 18.8125 39.0156
Q14.8906 38.1406 10.7969 36.2812
z
" id="DejaVuSans-35"/>
      </defs>
      <g transform="translate(44.7425 249.805367647)scale(0.12 -0.12)">
       <use xlink:href="#DejaVuSans-2212"/>
       <use x="83.7890625" xlink:href="#DejaVuSans-35"/>
       <use x="147.412109375" xlink:href="#DejaVuSans-30"/>
      </g>
     </g>
    </g>
    <g id="ytick_10">
     <g id="line2d_49">
      <g>
       <use style="stroke:#000000;stroke-width:0.5;" x="72.0" xlink:href="#m728421d6d4" y="226.164705882"/>
      </g>
     </g>
     <g id="line2d_50">
      <g>
       <use style="stroke:#000000;stroke-width:0.5;" x="518.4" xlink:href="#mcb0005524f" y="226.164705882"/>
      </g>
     </g>
     <g id="text_11">
      <!-- 0 -->
      <g transform="translate(61.953125 229.475955882)scale(0.12 -0.12)">
       <use xlink:href="#DejaVuSans-30"/>
      </g>
     </g>
    </g>
    <g id="ytick_11">
     <g id="line2d_51">
      <g>
       <use style="stroke:#000000;stroke-width:0.5;" x="72.0" xlink:href="#m728421d6d4" y="205.835294118"/>
      </g>
     </g>
     <g id="line2d_52">
      <g>
       <use style="stroke:#000000;stroke-width:0.5;" x="518.4" xlink:href="#mcb0005524f" y="205.835294118"/>
      </g>
     </g>
     <g id="text_12">
      <!-- 50 -->
      <g transform="translate(54.453125 209.146544118)scale(0.12 -0.12)">
       <use xlink:href="#DejaVuSans-35"/>
       <use x="63.623046875" xlink:href="#DejaVuSans-30"/>
      </g>
     </g>
    </g>
    <g id="ytick_12">
     <g id="line2d_53">
      <g>
       <use style="stroke:#000000;stroke-width:0.5;" x="72.0" xlink:href="#m728421d6d4" y="185.505882353"/>
      </g>
     </g>
     <g id="line2d_54">
      <g>
       <use style="stroke:#000000;stroke-width:0.5;" x="518.4" xlink:href="#mcb0005524f" y="185.505882353"/>
      </g>
     </g>
     <g id="text_13">
      <!-- 100 -->
      <g transform="translate(47.21 188.817132353)scale(0.12 -0.12)">
       <use xlink:href="#DejaVuSans-31"/>
       <use x="63.623046875" xlink:href="#DejaVuSans-30"/>
       <use x="127.24609375" xlink:href="#DejaVuSans-30"/>
      </g>
     </g>
    </g>
    <g id="ytick_13">
     <g id="line2d_55">
      <g>
       <use style="stroke:#000000;stroke-width:0.5;" x="72.0" xlink:href="#m728421d6d4" y="165.176470588"/>
      </g>
     </g>
     <g id="line2d_56">
      <g>
       <use style="stroke:#000000;stroke-width:0.5;" x="518.4" xlink:href="#mcb0005524f" y="165.176470588"/>
      </g>
     </g>
     <g id="text_14">
      <!-- 150 -->
      <g transform="translate(47.21 168.487720588)scale(0.12 -0.12)">
       <use xlink:href="#DejaVuSans-31"/>
       <use x="63.623046875" xlink:href="#DejaVuSans-35"/>
       <use x="127.24609375" xlink:href="#DejaVuSans-30"/>
      </g>
     </g>
    </g>
    <g id="text_15">
     <!-- Displacement, $X_t$ -->
     <defs>
      <path d="
M3.60938 0
Q2.59375 0 2.59375 1.3125
Q2.64062 1.5625 2.8125 2.1875
Q2.98438 2.82812 3.25 3.17188
Q3.51562 3.51562 4 3.51562
Q13.0938 3.51562 19.5781 10.2969
Q19.6719 10.4062 19.7969 10.4531
Q19.9219 10.5 19.9219 10.5
L41.7969 34.0781
L29.8906 62.7969
Q28.8594 64.1094 26.5625 64.4531
Q24.2656 64.7969 21.1875 64.7969
Q20.2188 64.7969 20.2188 66.1094
Q20.5625 67.3906 20.75 67.8438
Q20.9531 68.3125 21.9219 68.3125
L46.9219 68.3125
Q47.9062 68.3125 47.9062 67
Q47.8594 66.75 47.6875 66.1094
Q47.5156 65.4844 47.2344 65.1406
Q46.9688 64.7969 46.4844 64.7969
Q44.625 64.7969 42.6406 64.1875
Q40.6719 63.5781 39.8906 62.2031
L48.4844 41.5
L64.8906 59.0781
Q65.0469 59.4219 65.5781 60.2812
Q66.1094 61.1406 66.1094 61.9219
Q66.1094 63.375 64.8438 64.0781
Q63.5781 64.7969 61.8125 64.7969
Q60.7969 64.7969 60.7969 66.1094
Q61.1406 67.3906 61.3281 67.8438
Q61.5312 68.3125 62.5 68.3125
L84.1875 68.3125
Q84.7188 68.3125 84.9531 67.9219
Q85.2031 67.5312 85.2031 67
Q85.1562 66.75 85 66.1562
Q84.8594 65.5781 84.6094 65.1875
Q84.375 64.7969 83.8906 64.7969
Q79.25 64.7969 75.3594 63.1094
Q71.4844 61.4219 68.2188 58.0156
Q68.1719 57.9531 68.0938 57.9219
Q68.0156 57.9062 67.9219 57.8125
L49.8125 38.2812
L63.4844 5.51562
Q65.0938 3.51562 72.2188 3.51562
Q73.1875 3.51562 73.1875 2.20312
Q72.8594 0.875 72.625 0.4375
Q72.4062 0 71.4844 0
L46.4844 0
Q45.5156 0 45.5156 1.3125
Q45.5625 1.5625 45.7031 2.17188
Q45.8438 2.78125 46.1094 3.14062
Q46.3906 3.51562 46.7812 3.51562
Q48.7344 3.51562 50.7344 4.125
Q52.7344 4.73438 53.5156 6.10938
L43.1094 31
L22.9062 9.1875
Q22.75 8.84375 22.2188 8
Q21.6875 7.17188 21.6875 6.39062
Q21.6875 4.9375 23.0469 4.21875
Q24.4219 3.51562 25.9844 3.51562
Q27 3.51562 27 2.20312
Q26.6562 0.78125 26.4531 0.390625
Q26.2656 0 25.2969 0
z
" id="Cmmi10-58"/>
      <path d="
M11.7188 12.4062
L22.0156 12.4062
L22.0156 4
L14.0156 -11.625
L7.71875 -11.625
L11.7188 4
z
" id="DejaVuSans-2c"/>
      <path d="
M52 44.1875
Q55.375 50.25 60.0625 53.125
Q64.75 56 71.0938 56
Q79.6406 56 84.2812 50.0156
Q88.9219 44.0469 88.9219 33.0156
L88.9219 0
L79.8906 0
L79.8906 32.7188
Q79.8906 40.5781 77.0938 44.375
Q74.3125 48.1875 68.6094 48.1875
Q61.625 48.1875 57.5625 43.5469
Q53.5156 38.9219 53.5156 30.9062
L53.5156 0
L44.4844 0
L44.4844 32.7188
Q44.4844 40.625 41.7031 44.4062
Q38.9219 48.1875 33.1094 48.1875
Q26.2188 48.1875 22.1562 43.5312
Q18.1094 38.875 18.1094 30.9062
L18.1094 0
L9.07812 0
L9.07812 54.6875
L18.1094 54.6875
L18.1094 46.1875
Q21.1875 51.2188 25.4844 53.6094
Q29.7812 56 35.6875 56
Q41.6562 56 45.8281 52.9688
Q50 49.9531 52 44.1875" id="DejaVuSans-6d"/>
      <path d="
M54.8906 33.0156
L54.8906 0
L45.9062 0
L45.9062 32.7188
Q45.9062 40.4844 42.875 44.3281
Q39.8438 48.1875 33.7969 48.1875
Q26.5156 48.1875 22.3125 43.5469
Q18.1094 38.9219 18.1094 30.9062
L18.1094 0
L9.07812 0
L9.07812 54.6875
L18.1094 54.6875
L18.1094 46.1875
Q21.3438 51.125 25.7031 53.5625
Q30.0781 56 35.7969 56
Q45.2188 56 50.0469 50.1719
Q54.8906 44.3438 54.8906 33.0156" id="DejaVuSans-6e"/>
      <path d="
M9.42188 75.9844
L18.4062 75.9844
L18.4062 0
L9.42188 0
z
" id="DejaVuSans-6c"/>
      <path d="
M48.7812 52.5938
L48.7812 44.1875
Q44.9688 46.2969 41.1406 47.3438
Q37.3125 48.3906 33.4062 48.3906
Q24.6562 48.3906 19.8125 42.8438
Q14.9844 37.3125 14.9844 27.2969
Q14.9844 17.2812 19.8125 11.7344
Q24.6562 6.20312 33.4062 6.20312
Q37.3125 6.20312 41.1406 7.25
Q44.9688 8.29688 48.7812 10.4062
L48.7812 2.09375
Q45.0156 0.34375 40.9844 -0.53125
Q36.9688 -1.42188 32.4219 -1.42188
Q20.0625 -1.42188 12.7812 6.34375
Q5.51562 14.1094 5.51562 27.2969
Q5.51562 40.6719 12.8594 48.3281
Q20.2188 56 33.0156 56
Q37.1562 56 41.1094 55.1406
Q45.0625 54.2969 48.7812 52.5938" id="DejaVuSans-63"/>
      <path d="
M19.6719 64.7969
L19.6719 8.10938
L31.5938 8.10938
Q46.6875 8.10938 53.6875 14.9375
Q60.6875 21.7812 60.6875 36.5312
Q60.6875 51.1719 53.6875 57.9844
Q46.6875 64.7969 31.5938 64.7969
z

M9.8125 72.9062
L30.0781 72.9062
Q51.2656 72.9062 61.1719 64.0938
Q71.0938 55.2812 71.0938 36.5312
Q71.0938 17.6719 61.125 8.82812
Q51.1719 0 30.0781 0
L9.8125 0
z
" id="DejaVuSans-44"/>
      <path id="DejaVuSans-20"/>
      <path d="
M6.20312 8.10938
Q6.20312 9.57812 6.5 10.8906
L13.7188 39.5938
L3.21875 39.5938
Q2.20312 39.5938 2.20312 40.9219
Q2.59375 43.1094 3.51562 43.1094
L14.5938 43.1094
L18.6094 59.4219
Q19 60.75 20.1719 61.6719
Q21.3438 62.5938 22.7969 62.5938
Q24.0781 62.5938 24.9219 61.8281
Q25.7812 61.0781 25.7812 59.8125
Q25.7812 59.5156 25.75 59.3438
Q25.7344 59.1875 25.6875 58.9844
L21.6875 43.1094
L31.9844 43.1094
Q33.0156 43.1094 33.0156 41.7969
Q32.9531 41.5469 32.8125 40.9531
Q32.6719 40.375 32.4219 39.9844
Q32.1719 39.5938 31.6875 39.5938
L20.7969 39.5938
L13.625 10.6875
Q12.8906 7.85938 12.8906 5.8125
Q12.8906 1.51562 15.8281 1.51562
Q20.2188 1.51562 23.6094 5.64062
Q27 9.76562 28.8125 14.7031
Q29.2031 15.2812 29.5938 15.2812
L30.8125 15.2812
Q31.2031 15.2812 31.4375 15.0156
Q31.6875 14.75 31.6875 14.4062
Q31.6875 14.2031 31.5938 14.1094
Q29.3906 8.0625 25.1875 3.46875
Q21 -1.125 15.5781 -1.125
Q11.625 -1.125 8.90625 1.45312
Q6.20312 4.04688 6.20312 8.10938" id="Cmmi10-74"/>
      <path d="
M9.42188 54.6875
L18.4062 54.6875
L18.4062 0
L9.42188 0
z

M9.42188 75.9844
L18.4062 75.9844
L18.4062 64.5938
L9.42188 64.5938
z
" id="DejaVuSans-69"/>
      <path d="
M18.3125 70.2188
L18.3125 54.6875
L36.8125 54.6875
L36.8125 47.7031
L18.3125 47.7031
L18.3125 18.0156
Q18.3125 11.3281 20.1406 9.42188
Q21.9688 7.51562 27.5938 7.51562
L36.8125 7.51562
L36.8125 0
L27.5938 0
Q17.1875 0 13.2344 3.875
Q9.28125 7.76562 9.28125 18.0156
L9.28125 47.7031
L2.6875 47.7031
L2.6875 54.6875
L9.28125 54.6875
L9.28125 70.2188
z
" id="DejaVuSans-74"/>
      <path d="
M56.2031 29.5938
L56.2031 25.2031
L14.8906 25.2031
Q15.4844 15.9219 20.4844 11.0625
Q25.4844 6.20312 34.4219 6.20312
Q39.5938 6.20312 44.4531 7.46875
Q49.3125 8.73438 54.1094 11.2812
L54.1094 2.78125
Q49.2656 0.734375 44.1875 -0.34375
Q39.1094 -1.42188 33.8906 -1.42188
Q20.7969 -1.42188 13.1562 6.1875
Q5.51562 13.8125 5.51562 26.8125
Q5.51562 40.2344 12.7656 48.1094
Q20.0156 56 32.3281 56
Q43.3594 56 49.7812 48.8906
Q56.2031 41.7969 56.2031 29.5938
M47.2188 32.2344
Q47.125 39.5938 43.0938 43.9844
Q39.0625 48.3906 32.4219 48.3906
Q24.9062 48.3906 20.3906 44.1406
Q15.875 39.8906 15.1875 32.1719
z
" id="DejaVuSans-65"/>
      <path d="
M18.1094 8.20312
L18.1094 -20.7969
L9.07812 -20.7969
L9.07812 54.6875
L18.1094 54.6875
L18.1094 46.3906
Q20.9531 51.2656 25.2656 53.625
Q29.5938 56 35.5938 56
Q45.5625 56 51.7812 48.0938
Q58.0156 40.1875 58.0156 27.2969
Q58.0156 14.4062 51.7812 6.48438
Q45.5625 -1.42188 35.5938 -1.42188
Q29.5938 -1.42188 25.2656 0.953125
Q20.9531 3.32812 18.1094 8.20312
M48.6875 27.2969
Q48.6875 37.2031 44.6094 42.8438
Q40.5312 48.4844 33.4062 48.4844
Q26.2656 48.4844 22.1875 42.8438
Q18.1094 37.2031 18.1094 27.2969
Q18.1094 17.3906 22.1875 11.75
Q26.2656 6.10938 33.4062 6.10938
Q40.5312 6.10938 44.6094 11.75
Q48.6875 17.3906 48.6875 27.2969" id="DejaVuSans-70"/>
      <path d="
M44.2812 53.0781
L44.2812 44.5781
Q40.4844 46.5312 36.375 47.5
Q32.2812 48.4844 27.875 48.4844
Q21.1875 48.4844 17.8438 46.4375
Q14.5 44.3906 14.5 40.2812
Q14.5 37.1562 16.8906 35.375
Q19.2812 33.5938 26.5156 31.9844
L29.5938 31.2969
Q39.1562 29.25 43.1875 25.5156
Q47.2188 21.7812 47.2188 15.0938
Q47.2188 7.46875 41.1875 3.01562
Q35.1562 -1.42188 24.6094 -1.42188
Q20.2188 -1.42188 15.4531 -0.5625
Q10.6875 0.296875 5.42188 2
L5.42188 11.2812
Q10.4062 8.6875 15.2344 7.39062
Q20.0625 6.10938 24.8125 6.10938
Q31.1562 6.10938 34.5625 8.28125
Q37.9844 10.4531 37.9844 14.4062
Q37.9844 18.0625 35.5156 20.0156
Q33.0625 21.9688 24.7031 23.7812
L21.5781 24.5156
Q13.2344 26.2656 9.51562 29.9062
Q5.8125 33.5469 5.8125 39.8906
Q5.8125 47.6094 11.2812 51.7969
Q16.75 56 26.8125 56
Q31.7812 56 36.1719 55.2656
Q40.5781 54.5469 44.2812 53.0781" id="DejaVuSans-73"/>
      <path d="
M34.2812 27.4844
Q23.3906 27.4844 19.1875 25
Q14.9844 22.5156 14.9844 16.5
Q14.9844 11.7188 18.1406 8.90625
Q21.2969 6.10938 26.7031 6.10938
Q34.1875 6.10938 38.7031 11.4062
Q43.2188 16.7031 43.2188 25.4844
L43.2188 27.4844
z

M52.2031 31.2031
L52.2031 0
L43.2188 0
L43.2188 8.29688
Q40.1406 3.32812 35.5469 0.953125
Q30.9531 -1.42188 24.3125 -1.42188
Q15.9219 -1.42188 10.9531 3.29688
Q6 8.01562 6 15.9219
Q6 25.1406 12.1719 29.8281
Q18.3594 34.5156 30.6094 34.5156
L43.2188 34.5156
L43.2188 35.4062
Q43.2188 41.6094 39.1406 45
Q35.0625 48.3906 27.6875 48.3906
Q23 48.3906 18.5469 47.2656
Q14.1094 46.1406 10.0156 43.8906
L10.0156 52.2031
Q14.9375 54.1094 19.5781 55.0469
Q24.2188 56 28.6094 56
Q40.4844 56 46.3438 49.8438
Q52.2031 43.7031 52.2031 31.2031" id="DejaVuSans-61"/>
     </defs>
     <g transform="translate(28.3275 276.9)rotate(-90.0)scale(0.14 -0.14)">
      <use transform="translate(0.0 0.015625)" xlink:href="#DejaVuSans-44"/>
      <use transform="translate(77.001953125 0.015625)" xlink:href="#DejaVuSans-69"/>
      <use transform="translate(104.78515625 0.015625)" xlink:href="#DejaVuSans-73"/>
      <use transform="translate(156.884765625 0.015625)" xlink:href="#DejaVuSans-70"/>
      <use transform="translate(220.361328125 0.015625)" xlink:href="#DejaVuSans-6c"/>
      <use transform="translate(248.14453125 0.015625)" xlink:href="#DejaVuSans-61"/>
      <use transform="translate(309.423828125 0.015625)" xlink:href="#DejaVuSans-63"/>
      <use transform="translate(364.404296875 0.015625)" xlink:href="#DejaVuSans-65"/>
      <use transform="translate(425.927734375 0.015625)" xlink:href="#DejaVuSans-6d"/>
      <use transform="translate(523.33984375 0.015625)" xlink:href="#DejaVuSans-65"/>
      <use transform="translate(584.86328125 0.015625)" xlink:href="#DejaVuSans-6e"/>
      <use transform="translate(648.2421875 0.015625)" xlink:href="#DejaVuSans-74"/>
      <use transform="translate(687.451171875 0.015625)" xlink:href="#DejaVuSans-2c"/>
      <use transform="translate(719.23828125 0.015625)" xlink:href="#DejaVuSans-20"/>
      <use transform="translate(751.025390625 0.015625)" xlink:href="#Cmmi10-58"/>
      <use transform="translate(833.837890625 -25.49375)scale(0.7)" xlink:href="#Cmmi10-74"/>
     </g>
    </g>
   </g>
   <g id="patch_8">
    <path d="
M72 165.176
L518.4 165.176" style="fill:none;stroke:#000000;"/>
   </g>
   <g id="patch_9">
    <path d="
M518.4 266.824
L518.4 165.176" style="fill:none;stroke:#000000;"/>
   </g>
   <g id="patch_10">
    <path d="
M72 266.824
L518.4 266.824" style="fill:none;stroke:#000000;"/>
   </g>
   <g id="patch_11">
    <path d="
M72 266.824
L72 165.176" style="fill:none;stroke:#000000;"/>
   </g>
   <g id="text_16">
    <!-- $p=0.1$ -->
    <defs>
     <path d="
M9.28125 0
L9.28125 3.51562
Q21.7812 3.51562 21.7812 6.6875
L21.7812 59.1875
Q16.6094 56.6875 8.6875 56.6875
L8.6875 60.2031
Q20.9531 60.2031 27.2031 66.6094
L28.6094 66.6094
Q28.9531 66.6094 29.2656 66.3281
Q29.5938 66.0625 29.5938 65.7188
L29.5938 6.6875
Q29.5938 3.51562 42.0938 3.51562
L42.0938 0
z
" id="Cmr10-31"/>
    </defs>
    <g transform="translate(269.91 160.176470588)scale(0.18 -0.18)">
     <use transform="translate(0.0 0.390625)" xlink:href="#Cmmi10-70"/>
     <use transform="translate(67.8515625 0.390625)" xlink:href="#Cmr10-3d"/>
     <use transform="translate(151.91015625 0.390625)" xlink:href="#Cmr10-30"/>
     <use transform="translate(201.91015625 0.390625)" xlink:href="#Cmmi10-3a"/>
     <use transform="translate(230.453125 0.390625)" xlink:href="#Cmr10-31"/>
    </g>
   </g>
  </g>
  <g id="axes_3">
   <g id="patch_12">
    <path d="
M72 388.8
L518.4 388.8
L518.4 287.153
L72 287.153
z
" style="fill:#ffffff;"/>
   </g>
   <g id="line2d_57">
    <path clip-path="url(#p6780c7d7d8)" d="
M72 316.34
L82.7136 319.825
L112.622 310.096
L121.997 313.146
L181.368 293.833
L190.296 296.737
L196.546 294.704
L256.363 314.162
L263.059 311.984
L269.755 314.162
L326.448 295.72
L432.245 330.135
L492.509 310.532
L517.954 318.809
L517.954 318.809" style="fill:none;stroke:#0000ff;stroke-linecap:square;"/>
   </g>
   <g id="line2d_58">
    <path clip-path="url(#p6780c7d7d8)" d="
M72 316.05
L90.3024 310.096
L145.21 327.957
L149.674 326.505
L165.298 331.587
L257.702 301.529
L292.522 312.855
L295.646 311.839
L304.574 314.743
L317.074 310.677
L318.859 311.258
L357.25 298.77
L438.941 325.343
L500.99 305.159
L507.686 307.337
L517.954 303.997
L517.954 303.997" style="fill:none;stroke:#008000;stroke-linecap:square;"/>
   </g>
   <g id="line2d_59">
    <path clip-path="url(#p6780c7d7d8)" d="
M72 316.05
L123.782 299.205
L165.298 312.71
L165.744 312.565
L369.302 378.781
L413.942 364.259
L429.566 369.342
L473.76 354.966
L517.954 369.342
L517.954 369.342" style="fill:none;stroke:#ff0000;stroke-linecap:square;"/>
   </g>
   <g id="matplotlib.axis_5">
    <g id="xtick_13">
     <g id="line2d_60">
      <g>
       <use style="stroke:#000000;stroke-width:0.5;" x="72.0" xlink:href="#m93b0483c22" y="388.8"/>
      </g>
     </g>
     <g id="line2d_61">
      <g>
       <use style="stroke:#000000;stroke-width:0.5;" x="72.0" xlink:href="#m741efc42ff" y="287.152941176"/>
      </g>
     </g>
     <g id="text_17">
      <!-- 0 -->
      <g transform="translate(68.9765625 401.918125)scale(0.12 -0.12)">
       <use xlink:href="#DejaVuSans-30"/>
      </g>
     </g>
    </g>
    <g id="xtick_14">
     <g id="line2d_62">
      <g>
       <use style="stroke:#000000;stroke-width:0.5;" x="161.28" xlink:href="#m93b0483c22" y="388.8"/>
      </g>
     </g>
     <g id="line2d_63">
      <g>
       <use style="stroke:#000000;stroke-width:0.5;" x="161.28" xlink:href="#m741efc42ff" y="287.152941176"/>
      </g>
     </g>
     <g id="text_18">
      <!-- 200 -->
      <g transform="translate(150.665625 401.918125)scale(0.12 -0.12)">
       <use xlink:href="#DejaVuSans-32"/>
       <use x="63.623046875" xlink:href="#DejaVuSans-30"/>
       <use x="127.24609375" xlink:href="#DejaVuSans-30"/>
      </g>
     </g>
    </g>
    <g id="xtick_15">
     <g id="line2d_64">
      <g>
       <use style="stroke:#000000;stroke-width:0.5;" x="250.56" xlink:href="#m93b0483c22" y="388.8"/>
      </g>
     </g>
     <g id="line2d_65">
      <g>
       <use style="stroke:#000000;stroke-width:0.5;" x="250.56" xlink:href="#m741efc42ff" y="287.152941176"/>
      </g>
     </g>
     <g id="text_19">
      <!-- 400 -->
      <defs>
       <path d="
M37.7969 64.3125
L12.8906 25.3906
L37.7969 25.3906
z

M35.2031 72.9062
L47.6094 72.9062
L47.6094 25.3906
L58.0156 25.3906
L58.0156 17.1875
L47.6094 17.1875
L47.6094 0
L37.7969 0
L37.7969 17.1875
L4.89062 17.1875
L4.89062 26.7031
z
" id="DejaVuSans-34"/>
      </defs>
      <g transform="translate(239.799375 401.918125)scale(0.12 -0.12)">
       <use xlink:href="#DejaVuSans-34"/>
       <use x="63.623046875" xlink:href="#DejaVuSans-30"/>
       <use x="127.24609375" xlink:href="#DejaVuSans-30"/>
      </g>
     </g>
    </g>
    <g id="xtick_16">
     <g id="line2d_66">
      <g>
       <use style="stroke:#000000;stroke-width:0.5;" x="339.84" xlink:href="#m93b0483c22" y="388.8"/>
      </g>
     </g>
     <g id="line2d_67">
      <g>
       <use style="stroke:#000000;stroke-width:0.5;" x="339.84" xlink:href="#m741efc42ff" y="287.152941176"/>
      </g>
     </g>
     <g id="text_20">
      <!-- 600 -->
      <defs>
       <path d="
M33.0156 40.375
Q26.375 40.375 22.4844 35.8281
Q18.6094 31.2969 18.6094 23.3906
Q18.6094 15.5312 22.4844 10.9531
Q26.375 6.39062 33.0156 6.39062
Q39.6562 6.39062 43.5312 10.9531
Q47.4062 15.5312 47.4062 23.3906
Q47.4062 31.2969 43.5312 35.8281
Q39.6562 40.375 33.0156 40.375
M52.5938 71.2969
L52.5938 62.3125
Q48.875 64.0625 45.0938 64.9844
Q41.3125 65.9219 37.5938 65.9219
Q27.8281 65.9219 22.6719 59.3281
Q17.5312 52.7344 16.7969 39.4062
Q19.6719 43.6562 24.0156 45.9219
Q28.375 48.1875 33.5938 48.1875
Q44.5781 48.1875 50.9531 41.5156
Q57.3281 34.8594 57.3281 23.3906
Q57.3281 12.1562 50.6875 5.35938
Q44.0469 -1.42188 33.0156 -1.42188
Q20.3594 -1.42188 13.6719 8.26562
Q6.98438 17.9688 6.98438 36.375
Q6.98438 53.6562 15.1875 63.9375
Q23.3906 74.2188 37.2031 74.2188
Q40.9219 74.2188 44.7031 73.4844
Q48.4844 72.75 52.5938 71.2969" id="DejaVuSans-36"/>
      </defs>
      <g transform="translate(329.205 401.918125)scale(0.12 -0.12)">
       <use xlink:href="#DejaVuSans-36"/>
       <use x="63.623046875" xlink:href="#DejaVuSans-30"/>
       <use x="127.24609375" xlink:href="#DejaVuSans-30"/>
      </g>
     </g>
    </g>
    <g id="xtick_17">
     <g id="line2d_68">
      <g>
       <use style="stroke:#000000;stroke-width:0.5;" x="429.12" xlink:href="#m93b0483c22" y="388.8"/>
      </g>
     </g>
     <g id="line2d_69">
      <g>
       <use style="stroke:#000000;stroke-width:0.5;" x="429.12" xlink:href="#m741efc42ff" y="287.152941176"/>
      </g>
     </g>
     <g id="text_21">
      <!-- 800 -->
      <defs>
       <path d="
M31.7812 34.625
Q24.75 34.625 20.7188 30.8594
Q16.7031 27.0938 16.7031 20.5156
Q16.7031 13.9219 20.7188 10.1562
Q24.75 6.39062 31.7812 6.39062
Q38.8125 6.39062 42.8594 10.1719
Q46.9219 13.9688 46.9219 20.5156
Q46.9219 27.0938 42.8906 30.8594
Q38.875 34.625 31.7812 34.625
M21.9219 38.8125
Q15.5781 40.375 12.0312 44.7188
Q8.5 49.0781 8.5 55.3281
Q8.5 64.0625 14.7188 69.1406
Q20.9531 74.2188 31.7812 74.2188
Q42.6719 74.2188 48.875 69.1406
Q55.0781 64.0625 55.0781 55.3281
Q55.0781 49.0781 51.5312 44.7188
Q48 40.375 41.7031 38.8125
Q48.8281 37.1562 52.7969 32.3125
Q56.7812 27.4844 56.7812 20.5156
Q56.7812 9.90625 50.3125 4.23438
Q43.8438 -1.42188 31.7812 -1.42188
Q19.7344 -1.42188 13.25 4.23438
Q6.78125 9.90625 6.78125 20.5156
Q6.78125 27.4844 10.7812 32.3125
Q14.7969 37.1562 21.9219 38.8125
M18.3125 54.3906
Q18.3125 48.7344 21.8438 45.5625
Q25.3906 42.3906 31.7812 42.3906
Q38.1406 42.3906 41.7188 45.5625
Q45.3125 48.7344 45.3125 54.3906
Q45.3125 60.0625 41.7188 63.2344
Q38.1406 66.4062 31.7812 66.4062
Q25.3906 66.4062 21.8438 63.2344
Q18.3125 60.0625 18.3125 54.3906" id="DejaVuSans-38"/>
      </defs>
      <g transform="translate(418.4728125 401.918125)scale(0.12 -0.12)">
       <use xlink:href="#DejaVuSans-38"/>
       <use x="63.623046875" xlink:href="#DejaVuSans-30"/>
       <use x="127.24609375" xlink:href="#DejaVuSans-30"/>
      </g>
     </g>
    </g>
    <g id="xtick_18">
     <g id="line2d_70">
      <g>
       <use style="stroke:#000000;stroke-width:0.5;" x="518.4" xlink:href="#m93b0483c22" y="388.8"/>
      </g>
     </g>
     <g id="line2d_71">
      <g>
       <use style="stroke:#000000;stroke-width:0.5;" x="518.4" xlink:href="#m741efc42ff" y="287.152941176"/>
      </g>
     </g>
     <g id="text_22">
      <!-- 1000 -->
      <g transform="translate(504.1875 401.918125)scale(0.12 -0.12)">
       <use xlink:href="#DejaVuSans-31"/>
       <use x="63.623046875" xlink:href="#DejaVuSans-30"/>
       <use x="127.24609375" xlink:href="#DejaVuSans-30"/>
       <use x="190.869140625" xlink:href="#DejaVuSans-30"/>
      </g>
     </g>
    </g>
    <g id="text_23">
     <!-- Time, $t$ -->
     <defs>
      <path d="
M-0.296875 72.9062
L61.375 72.9062
L61.375 64.5938
L35.5 64.5938
L35.5 0
L25.5938 0
L25.5938 64.5938
L-0.296875 64.5938
z
" id="DejaVuSans-54"/>
     </defs>
     <g transform="translate(270.84 420.0515625)scale(0.14 -0.14)">
      <use transform="translate(0.0 0.015625)" xlink:href="#DejaVuSans-54"/>
      <use transform="translate(61.083984375 0.015625)" xlink:href="#DejaVuSans-69"/>
      <use transform="translate(88.8671875 0.015625)" xlink:href="#DejaVuSans-6d"/>
      <use transform="translate(186.279296875 0.015625)" xlink:href="#DejaVuSans-65"/>
      <use transform="translate(247.802734375 0.015625)" xlink:href="#DejaVuSans-2c"/>
      <use transform="translate(279.58984375 0.015625)" xlink:href="#DejaVuSans-20"/>
      <use transform="translate(311.376953125 0.015625)" xlink:href="#Cmmi10-74"/>
     </g>
    </g>
   </g>
   <g id="matplotlib.axis_6">
    <g id="ytick_14">
     <g id="line2d_72">
      <g>
       <use style="stroke:#000000;stroke-width:0.5;" x="72.0" xlink:href="#m728421d6d4" y="388.8"/>
      </g>
     </g>
     <g id="line2d_73">
      <g>
       <use style="stroke:#000000;stroke-width:0.5;" x="518.4" xlink:href="#mcb0005524f" y="388.8"/>
      </g>
     </g>
     <g id="text_24">
      <!-- −500 -->
      <g transform="translate(37.1075 392.11125)scale(0.12 -0.12)">
       <use xlink:href="#DejaVuSans-2212"/>
       <use x="83.7890625" xlink:href="#DejaVuSans-35"/>
       <use x="147.412109375" xlink:href="#DejaVuSans-30"/>
       <use x="211.03515625" xlink:href="#DejaVuSans-30"/>
      </g>
     </g>
    </g>
    <g id="ytick_15">
     <g id="line2d_74">
      <g>
       <use style="stroke:#000000;stroke-width:0.5;" x="72.0" xlink:href="#m728421d6d4" y="374.278991597"/>
      </g>
     </g>
     <g id="line2d_75">
      <g>
       <use style="stroke:#000000;stroke-width:0.5;" x="518.4" xlink:href="#mcb0005524f" y="374.278991597"/>
      </g>
     </g>
     <g id="text_25">
      <!-- −400 -->
      <g transform="translate(37.1075 377.590241597)scale(0.12 -0.12)">
       <use xlink:href="#DejaVuSans-2212"/>
       <use x="83.7890625" xlink:href="#DejaVuSans-34"/>
       <use x="147.412109375" xlink:href="#DejaVuSans-30"/>
       <use x="211.03515625" xlink:href="#DejaVuSans-30"/>
      </g>
     </g>
    </g>
    <g id="ytick_16">
     <g id="line2d_76">
      <g>
       <use style="stroke:#000000;stroke-width:0.5;" x="72.0" xlink:href="#m728421d6d4" y="359.757983193"/>
      </g>
     </g>
     <g id="line2d_77">
      <g>
       <use style="stroke:#000000;stroke-width:0.5;" x="518.4" xlink:href="#mcb0005524f" y="359.757983193"/>
      </g>
     </g>
     <g id="text_26">
      <!-- −300 -->
      <g transform="translate(37.1075 363.069233193)scale(0.12 -0.12)">
       <use xlink:href="#DejaVuSans-2212"/>
       <use x="83.7890625" xlink:href="#DejaVuSans-33"/>
       <use x="147.412109375" xlink:href="#DejaVuSans-30"/>
       <use x="211.03515625" xlink:href="#DejaVuSans-30"/>
      </g>
     </g>
    </g>
    <g id="ytick_17">
     <g id="line2d_78">
      <g>
       <use style="stroke:#000000;stroke-width:0.5;" x="72.0" xlink:href="#m728421d6d4" y="345.23697479"/>
      </g>
     </g>
     <g id="line2d_79">
      <g>
       <use style="stroke:#000000;stroke-width:0.5;" x="518.4" xlink:href="#mcb0005524f" y="345.23697479"/>
      </g>
     </g>
     <g id="text_27">
      <!-- −200 -->
      <g transform="translate(37.1075 348.54822479)scale(0.12 -0.12)">
       <use xlink:href="#DejaVuSans-2212"/>
       <use x="83.7890625" xlink:href="#DejaVuSans-32"/>
       <use x="147.412109375" xlink:href="#DejaVuSans-30"/>
       <use x="211.03515625" xlink:href="#DejaVuSans-30"/>
      </g>
     </g>
    </g>
    <g id="ytick_18">
     <g id="line2d_80">
      <g>
       <use style="stroke:#000000;stroke-width:0.5;" x="72.0" xlink:href="#m728421d6d4" y="330.715966387"/>
      </g>
     </g>
     <g id="line2d_81">
      <g>
       <use style="stroke:#000000;stroke-width:0.5;" x="518.4" xlink:href="#mcb0005524f" y="330.715966387"/>
      </g>
     </g>
     <g id="text_28">
      <!-- −100 -->
      <g transform="translate(37.1075 334.027216387)scale(0.12 -0.12)">
       <use xlink:href="#DejaVuSans-2212"/>
       <use x="83.7890625" xlink:href="#DejaVuSans-31"/>
       <use x="147.412109375" xlink:href="#DejaVuSans-30"/>
       <use x="211.03515625" xlink:href="#DejaVuSans-30"/>
      </g>
     </g>
    </g>
    <g id="ytick_19">
     <g id="line2d_82">
      <g>
       <use style="stroke:#000000;stroke-width:0.5;" x="72.0" xlink:href="#m728421d6d4" y="316.194957983"/>
      </g>
     </g>
     <g id="line2d_83">
      <g>
       <use style="stroke:#000000;stroke-width:0.5;" x="518.4" xlink:href="#mcb0005524f" y="316.194957983"/>
      </g>
     </g>
     <g id="text_29">
      <!-- 0 -->
      <g transform="translate(61.953125 319.506207983)scale(0.12 -0.12)">
       <use xlink:href="#DejaVuSans-30"/>
      </g>
     </g>
    </g>
    <g id="ytick_20">
     <g id="line2d_84">
      <g>
       <use style="stroke:#000000;stroke-width:0.5;" x="72.0" xlink:href="#m728421d6d4" y="301.67394958"/>
      </g>
     </g>
     <g id="line2d_85">
      <g>
       <use style="stroke:#000000;stroke-width:0.5;" x="518.4" xlink:href="#mcb0005524f" y="301.67394958"/>
      </g>
     </g>
     <g id="text_30">
      <!-- 100 -->
      <g transform="translate(47.21 304.98519958)scale(0.12 -0.12)">
       <use xlink:href="#DejaVuSans-31"/>
       <use x="63.623046875" xlink:href="#DejaVuSans-30"/>
       <use x="127.24609375" xlink:href="#DejaVuSans-30"/>
      </g>
     </g>
    </g>
    <g id="ytick_21">
     <g id="line2d_86">
      <g>
       <use style="stroke:#000000;stroke-width:0.5;" x="72.0" xlink:href="#m728421d6d4" y="287.152941176"/>
      </g>
     </g>
     <g id="line2d_87">
      <g>
       <use style="stroke:#000000;stroke-width:0.5;" x="518.4" xlink:href="#mcb0005524f" y="287.152941176"/>
      </g>
     </g>
     <g id="text_31">
      <!-- 200 -->
      <g transform="translate(46.77125 290.464191176)scale(0.12 -0.12)">
       <use xlink:href="#DejaVuSans-32"/>
       <use x="63.623046875" xlink:href="#DejaVuSans-30"/>
       <use x="127.24609375" xlink:href="#DejaVuSans-30"/>
      </g>
     </g>
    </g>
   </g>
   <g id="patch_13">
    <path d="
M72 287.153
L518.4 287.153" style="fill:none;stroke:#000000;"/>
   </g>
   <g id="patch_14">
    <path d="
M518.4 388.8
L518.4 287.153" style="fill:none;stroke:#000000;"/>
   </g>
   <g id="patch_15">
    <path d="
M72 388.8
L518.4 388.8" style="fill:none;stroke:#000000;"/>
   </g>
   <g id="patch_16">
    <path d="
M72 388.8
L72 287.153" style="fill:none;stroke:#000000;"/>
   </g>
   <g id="text_32">
    <!-- $p=0.01$ -->
    <g transform="translate(265.41 282.152941176)scale(0.18 -0.18)">
     <use transform="translate(0.0 0.390625)" xlink:href="#Cmmi10-70"/>
     <use transform="translate(67.8515625 0.390625)" xlink:href="#Cmr10-3d"/>
     <use transform="translate(151.91015625 0.390625)" xlink:href="#Cmr10-30"/>
     <use transform="translate(201.91015625 0.390625)" xlink:href="#Cmmi10-3a"/>
     <use transform="translate(230.453125 0.390625)" xlink:href="#Cmr10-30"/>
     <use transform="translate(280.453125 0.390625)" xlink:href="#Cmr10-31"/>
    </g>
   </g>
  </g>
 </g>
 <defs>
  <clipPath id="pfd6a83a59a">
   <rect height="101.647058824" width="446.4" x="72.0" y="43.2"/>
  </clipPath>
  <clipPath id="p6780c7d7d8">
   <rect height="101.647058824" width="446.4" x="72.0" y="287.152941176"/>
  </clipPath>
  <clipPath id="p19969a3f5c">
   <rect height="101.647058824" width="446.4" x="72.0" y="165.176470588"/>
  </clipPath>
 </defs>
</svg>
